<?xml version="1.0" encoding="UTF-8"?>
<svg width="173px" height="81px" viewBox="0 0 173 81" version="1.1" xmlns="http://www.w3.org/2000/svg" xmlns:xlink="http://www.w3.org/1999/xlink">
    <!-- Generator: Sketch 48.2 (47327) - http://www.bohemiancoding.com/sketch -->
    <title>Artboard 3</title>
    <desc>Created with Sketch.</desc>
    <defs>
        <polygon id="path-1" points="0 80.8997993 173.742702 80.8997993 173.742702 0.143042553 0 0.143042553"></polygon>
    </defs>
    <g id="Page-1" stroke="none" stroke-width="1" fill="none" fill-rule="evenodd">
        <g id="Artboard-3">
            <g id="Group-14-Copy" transform="translate(0.000000, -2.000000)">
                <g id="Page-1">
                    <polygon id="Fill-1" fill="#0062AF" points="0 82.7142681 173.742702 82.7142681 173.742702 1.76631064 0 1.76631064"></polygon>
                    <g id="Group-16" transform="translate(0.000000, 0.358604)">
                        <path d="M48.074534,43.5791237 L48.074534,30.8748259 C48.074534,29.5750812 48.6779809,28.0298684 50.9973638,28.0298684 C53.3111936,28.0298684 53.9127894,29.9812514 53.9127894,30.8748259 L53.9127894,43.5791237 L60.1860447,43.5791237 L60.1860447,31.033762 C60.1860447,28.5172727 58.4608532,23.484294 51.6822574,23.484294 C46.5325979,23.484294 44.6463638,26.9755918 44.6463638,26.9755918 C44.6463638,26.9755918 42.7545766,23.484294 37.6086191,23.484294 C30.8300234,23.484294 29.108534,28.5172727 29.108534,31.033762 L29.108534,43.5791237 L35.3780872,43.5791237 L35.3780872,30.8748259 C35.3780872,29.9812514 35.979683,28.0298684 38.2972149,28.0298684 C40.6110447,28.0298684 41.2144915,29.5750812 41.2144915,30.8748259 L41.2144915,43.5791237 L48.074534,43.5791237 Z" id="Fill-2" fill="#FEFEFE"></path>
                        <path d="M63.986834,40.4549684 C66.0304085,42.9290748 69.2142383,44.5202025 72.7886426,44.5202025 C76.3686,44.5202025 79.5542809,42.9290748 81.5960043,40.4549684 L63.986834,40.4549684 Z" id="Fill-4" fill="#FEFEFE"></path>
                        <path d="M74.2837468,38.4541386 C72.8269596,38.4541386 71.3923851,37.2003089 74.609534,35.9411812 C75.8182787,35.4661386 78.3283213,33.8856067 78.929917,31.8936067 C79.5278106,36.4020961 77.1158745,38.4541386 74.2837468,38.4541386 Z M82.4654489,39.2364578 C83.4150447,37.6859472 83.9574064,35.8793727 83.9574064,33.958011 C83.9574064,28.6159897 79.7684489,24.202862 74.3244702,23.4947131 C75.6035553,24.1852025 78.1154489,26.2337131 78.1154489,29.7567982 C78.1154489,35.0846918 71.1610021,34.6891174 71.1610021,37.5535003 C71.1610021,38.8179259 72.3401298,39.2523514 72.7899383,39.2523514 L82.4654489,39.2364578 Z M70.6390021,39.2523514 C68.6454064,38.5830535 66.8498745,36.7005429 66.8498745,33.8979684 C66.8498745,28.6000961 74.2504277,28.0508833 74.2504277,25.1865003 C74.2504277,24.1339897 73.041683,23.5618195 72.0087894,23.4205429 C66.2075553,23.8019897 61.6280234,28.3740535 61.6280234,33.958011 C61.6280234,35.8793727 62.1722362,37.6859472 63.1181298,39.2364578 L70.6390021,39.2523514 Z" id="Fill-6" fill="#FEFEFE"></path>
                        <mask id="mask-2" fill="white">
                            <use xlink:href="#path-1"></use>
                        </mask>
                        <g id="Clip-9"></g>
                        <polygon id="Fill-8" fill="#FEFEFE" mask="url(#mask-2)" points="85.2562979 43.5805365 91.5628723 43.5805365 91.5628723 19.0407918 85.2562979 19.0407918"></polygon>
                        <path d="M104.047557,29.0822025 L104.047557,24.2752663 L99.8641532,24.2752663 L99.8641532,19.101011 L93.8148766,19.101011 L93.8148766,37.4916918 C93.8148766,38.8920961 94.6497064,41.4509684 96.3915574,42.4858195 C98.1278553,43.5206706 99.6050043,43.8244152 104.047557,43.8244152 L104.047557,38.646628 C102.568557,38.9539046 99.8641532,39.0139472 99.8641532,36.3314578 L99.8641532,29.0822025 L104.047557,29.0822025 Z" id="Fill-10" fill="#FEFEFE" mask="url(#mask-2)"></path>
                        <path d="M110.403926,31.3392727 C110.990713,28.5720174 112.651117,27.2616769 115.375883,27.2616769 C118.846628,27.2616769 120.073883,30.0006769 120.073883,31.3392727 L110.403926,31.3392727 Z M126.249032,31.8884855 C125.797372,27.4418046 121.360372,22.9333152 115.375883,22.9333152 C109.387691,22.9333152 104.175096,27.3799961 104.175096,34.0818046 C104.175096,36.638911 105.979883,44.1866131 114.98716,44.1866131 C123.998138,44.1866131 125.995436,38.586762 125.995436,37.3046769 L119.881372,37.3046769 C119.749947,37.673762 119.04284,39.9288897 115.116734,39.9288897 C112.110606,39.9288897 110.511287,38.7015493 110.211415,35.2367408 L126.317521,35.2367408 C126.317521,34.2001237 126.378606,33.2871237 126.249032,31.8884855 Z" id="Fill-11" fill="#FEFEFE" mask="url(#mask-2)"></path>
                        <path d="M136.966321,27.6881557 C139.541151,27.6881557 140.020577,30.0598365 140.020577,30.6690918 L140.020577,43.5782408 L146.201279,43.5782408 L146.201279,31.4019642 C146.201279,29.3923046 145.26464,22.9977727 136.966321,22.9977727 C128.660598,22.9977727 127.731364,29.3923046 127.731364,31.4019642 L127.731364,43.5782408 L133.906513,43.5782408 L133.906513,30.6690918 C133.906513,30.0598365 134.38964,27.6881557 136.966321,27.6881557" id="Fill-12" fill="#FEFEFE" mask="url(#mask-2)"></path>
                        <path d="M144.313934,22.5790642 C144.313934,21.9962982 144.554572,21.4488514 144.993274,21.0373833 C145.426423,20.6241493 146.002104,20.3945748 146.62036,20.3945748 C147.236764,20.3945748 147.817998,20.6241493 148.252998,21.0373833 C148.686147,21.4488514 148.928636,21.9962982 148.928636,22.5790642 C148.928636,23.7816812 147.893891,24.7617876 146.62036,24.7617876 C146.002104,24.7617876 145.426423,24.535745 144.993274,24.1260429 C144.554572,23.7110429 144.313934,23.165362 144.313934,22.5790642 M146.62036,25.1926812 C147.357083,25.1926812 148.051232,24.9189578 148.573232,24.4262557 C149.095232,23.9335535 149.380296,23.2766174 149.380296,22.5790642 C149.380296,21.881511 149.095232,21.2245748 148.573232,20.7336386 C148.051232,20.2409365 147.357083,19.9689791 146.62036,19.9689791 C145.100636,19.9689791 143.858572,21.1398089 143.858572,22.5790642 C143.858572,23.2766174 144.145487,23.9335535 144.665636,24.4262557 C145.191338,24.9189578 145.885487,25.1926812 146.62036,25.1926812" id="Fill-13" fill="#FEFEFE" mask="url(#mask-2)"></path>
                        <path d="M145.874381,24.0068408 L145.874381,22.7759684 L146.809168,22.7759684 C146.979466,22.7759684 147.099785,22.793628 147.179381,22.8271812 C147.318211,22.8925216 147.392253,23.0196706 147.395955,23.206862 L147.423721,23.6836706 C147.427423,23.7984578 147.436679,23.872628 147.444083,23.913245 C147.453338,23.9485642 147.462594,23.9838833 147.477402,24.0068408 L147.982743,24.0068408 L147.982743,23.9450323 C147.919806,23.9167769 147.875381,23.8585003 147.851317,23.7666706 C147.836509,23.7154578 147.823551,23.6306918 147.823551,23.5229684 L147.80504,23.1397557 C147.801338,22.9702237 147.766168,22.8519046 147.706934,22.7759684 C147.6477,22.7017982 147.558849,22.6417557 147.436679,22.5976067 C147.573657,22.5305003 147.679168,22.4422025 147.753211,22.3327131 C147.827253,22.2232237 147.869828,22.0819472 147.869828,21.9106493 C147.869828,21.5804152 147.723594,21.3543727 147.436679,21.2325216 C147.288594,21.1654152 147.096083,21.133628 146.866551,21.133628 L145.463445,21.133628 L145.463445,24.0068408 L145.874381,24.0068408 Z M145.874381,21.4691599 L146.877657,21.4691599 C147.018338,21.4691599 147.131253,21.4903514 147.214551,21.5292025 C147.368189,21.6033727 147.451487,21.7428833 147.451487,21.9477344 C147.451487,22.1366918 147.392253,22.2726706 147.277487,22.3415429 C147.166423,22.4157131 147.014636,22.4527982 146.823977,22.4527982 L145.874381,22.4527982 L145.874381,21.4691599 Z" id="Fill-14" fill="#FEFEFE" mask="url(#mask-2)"></path>
                        <path d="M66.8445064,57.255228 C69.4285915,56.3757812 70.2393574,55.015994 70.3004426,54.265462 C70.3004426,54.1524408 70.3245064,54.0729727 70.0986766,54.0729727 C69.7432723,54.0729727 69.0602298,54.3149089 68.6141234,54.6098237 C67.7904,55.1696323 66.979634,56.2221429 66.8445064,57.255228 M73.591634,56.1002918 C73.1677404,57.5077599 69.6174,59.9712706 66.2595702,59.9712706 C65.7042511,59.9712706 65.2877617,59.6957812 65.2988681,58.8198663 C65.3025702,58.5585046 65.3414426,58.2953769 65.4025277,58.0269514 C63.8883574,58.8181003 61.5115915,59.8352918 60.9285064,59.8352918 C60.8100383,59.8352918 60.5916128,59.7311003 60.6008681,59.331994 C60.6156766,58.4949301 61.1691447,57.1210152 62.1039319,55.5245897 C62.3593787,55.1131216 62.4093574,55.0053982 62.4130596,54.9082706 C62.4130596,54.8111429 62.3538255,54.6645684 62.1594638,54.6645684 C61.322783,54.6645684 58.538783,57.0380152 56.7376979,59.951845 C56.7210383,59.9677386 56.713634,59.9748025 56.6858681,59.9836323 L56.4952085,60.0207174 C56.365634,60.0454408 56.247166,59.9147599 56.2582723,59.5827599 C56.2582723,58.915228 56.7432511,57.6048876 57.3911234,56.3333982 C56.0102298,57.1969514 51.2252298,60.0948876 50.5236766,60.0948876 C50.3089532,60.0948876 50.2312085,59.911228 50.2497191,59.579228 C50.360783,58.5249514 51.3474,56.7113131 52.3895489,55.0848663 C51.7509319,55.222611 51.1548894,55.3674195 50.7309957,55.5086961 C50.6125277,55.5475472 50.6310383,55.4786748 50.6625064,55.4398237 C50.7587617,55.3003131 51.0401234,54.9506535 51.1326766,54.8623557 C51.1993149,54.7952493 51.2381872,54.7705259 51.290017,54.7581642 C51.6842936,54.6380791 52.2322085,54.5285897 52.8208468,54.4279301 C53.7741447,53.020462 54.6904213,51.8743557 54.973634,51.692462 C55.2142723,51.5370578 55.5178468,51.4787812 56.4119106,51.4487599 C56.4748468,51.4487599 56.4655915,51.4911429 56.4415277,51.5123344 C56.2064426,51.7613344 55.3568043,52.9003769 54.4738468,54.1877599 C55.2846128,54.0818025 55.9787617,54.0146961 56.2434638,54.0058663 C56.4156128,53.9988025 56.4859532,54.0500152 56.4396766,54.1100578 L56.2323574,54.3625897 C56.1990383,54.4032067 56.1546128,54.4261642 56.0602085,54.4385259 C55.7658894,54.473845 54.9921447,54.5939301 54.0851234,54.7563982 C53.2780596,55.9572493 52.506166,57.1898876 52.2081447,57.878611 C52.1137404,58.1011216 52.1415064,58.1770578 52.421017,58.083462 C53.666783,57.6613982 56.5636979,56.4146323 57.583634,55.967845 C59.3865702,52.7008237 61.8632936,49.7799301 62.6944213,49.2254195 C63.1645915,48.9093131 63.6366128,48.8545684 64.2567191,48.8263131 C64.3122511,48.8245472 64.3011447,48.873994 64.282634,48.8916535 C62.7999319,50.4562918 60.249166,53.7374408 58.8145915,56.5311855 C61.4282936,54.2442706 63.2330809,53.5166961 64.3474213,53.5396535 C64.5343787,53.5484833 64.6454426,53.6632706 64.5177191,53.8681216 C63.8846553,54.9506535 62.8850809,56.7483982 62.3538255,58.2017812 C62.2964426,58.3571855 62.2742298,58.4366535 62.5019106,58.3978025 C63.323783,58.2441642 64.5714,57.8821429 65.5413574,57.5678025 C65.8745489,56.6141855 66.5557404,55.6588025 67.4535064,54.9259301 C68.516017,54.0447174 70.5355277,53.3224408 71.7276128,53.4160365 C71.8238681,53.4266323 71.8701447,53.479611 71.9016128,53.560845 C71.9534426,53.6897599 71.9534426,53.8275046 71.9016128,54.0252918 C71.4610596,55.3956748 69.5637191,56.6706961 66.8482085,57.8432918 C66.9000383,58.5920578 67.0684851,58.8004408 67.5553149,58.8004408 C69.5785277,58.8004408 72.9215489,57.0698025 73.4287404,55.9908025 C73.4787191,55.8671855 73.6527191,55.9095684 73.591634,56.1002918 M39.9041234,49.7410791 C36.4500383,49.7410791 30.9819957,50.1631429 30.3896553,50.2125897 C30.3082085,50.2196535 30.2101021,50.2390791 30.1249532,50.3114833 C29.8528468,50.533994 29.0032085,51.4063769 28.8847404,51.5741429 C28.8384638,51.6447812 28.7718255,51.7436748 28.9976553,51.7118876 C29.0032085,51.7118876 31.1504426,51.3233769 31.3059319,51.3021855 C28.6552085,53.7091855 26.6875277,56.5364833 24.3977617,61.1350365 C24.3274213,61.3010365 24.3625915,61.3416535 24.5014213,61.3186961 C25.0252723,61.2198025 25.9804213,61.0361429 26.5449957,60.8595472 C27.3316979,59.2136748 28.3923574,57.3258663 29.5566766,55.5616748 C31.0578894,55.1890578 32.7738255,54.8270365 34.2009957,54.7193131 C34.2528255,54.7157812 34.3102085,54.680462 34.354634,54.6363131 C34.4360809,54.5515472 34.7378043,54.2460365 34.7692723,54.1983557 C34.8803362,54.0676748 34.8211021,54.0429514 34.3490809,54.0482493 C33.3865277,54.0623769 31.8279319,54.1877599 30.3637404,54.3890791 C31.3040809,53.0769727 32.2962511,51.8884833 33.2662085,50.9966748 C35.5744851,50.7565046 37.5902936,50.533994 39.5875915,50.3768237 C39.6560809,50.367994 39.7560383,50.367994 39.8097191,50.3114833 L40.1854851,49.9318025 C40.3243149,49.785228 40.2595277,49.7410791 39.9041234,49.7410791 M96.4504213,54.473845 C95.4656553,54.0906323 93.3832085,54.3272706 92.0004638,55.7011855 C90.8528043,56.9073344 90.8398468,57.9563131 91.3007617,58.1311429 C91.4173787,58.1752918 91.511783,58.1505684 91.5876766,58.0975897 C92.6612936,57.3629514 95.2305702,55.4133344 96.4504213,54.473845 M84.1686128,57.255228 C86.7545489,56.3757812 87.5634638,55.015994 87.6264,54.265462 C87.6282511,54.1524408 87.6486128,54.0729727 87.4209319,54.0729727 C87.0710809,54.0729727 86.3824851,54.3149089 85.9400809,54.6098237 C85.1126553,55.1696323 84.3092936,56.2221429 84.1686128,57.255228 M100.881868,57.7691216 C100.774506,58.0322493 100.872613,58.1470365 101.020698,58.0905259 C102.238698,57.6437386 104.709868,56.5982918 105.250379,56.3563557 C105.437336,56.2786535 105.437336,56.4322918 105.268889,56.5417812 C104.132336,57.2923131 100.065549,59.9341855 99.227017,59.9341855 C98.9974851,59.9341855 98.8845702,59.8035046 98.8845702,59.5633344 C98.8864213,59.0882918 99.1714851,57.9775046 99.778634,56.758994 C98.3884851,57.6967174 94.7992723,59.8900365 94.3105915,59.8900365 C93.9292723,59.8900365 93.9292723,59.6392706 93.9255702,59.4008663 C93.9403787,58.5796961 94.4179532,57.461845 95.4489957,55.803611 C93.7793362,57.1969514 90.4881447,59.9076961 89.5903787,59.9076961 C89.2645915,59.9076961 89.0628255,59.6428025 89.0591234,59.2119089 C89.0591234,58.7845472 89.2127617,58.2724195 89.481166,57.7443982 C87.9762511,58.8110365 85.6494638,59.9712706 83.5892298,59.9712706 C83.0283574,59.9712706 82.6118681,59.6957812 82.6229745,58.8198663 C82.6451872,57.5077599 83.4855702,55.9855046 84.7813149,54.9259301 C85.8438255,54.0447174 87.8614851,53.3224408 89.0535702,53.4160365 C89.1516766,53.4266323 89.1924,53.479611 89.2275702,53.560845 C89.2756979,53.6897599 89.2756979,53.8275046 89.2275702,54.0252918 C88.7888681,55.3956748 86.8915277,56.6706961 84.176017,57.8432918 C84.2222936,58.5920578 84.3944426,58.8004408 84.8794213,58.8004408 C86.1788681,58.8004408 88.642634,57.670228 90.032783,56.8596535 C90.2178894,56.6159514 90.4141021,56.3757812 90.6362298,56.1550365 C92.5742936,54.1806961 95.3675489,53.2111855 98.3699745,53.5078663 C98.4366128,53.5166961 98.4366128,53.5696748 98.4069957,53.6138237 C97.6961872,54.6080578 96.4541234,56.5046961 95.9469319,57.8733131 C95.8858468,58.0322493 95.8895489,58.1028876 96.0616979,58.042845 C97.0427617,57.6596323 99.1955489,56.7625259 99.9563362,56.426994 C99.9692936,56.4040365 99.9785489,56.3757812 99.9915064,56.3545897 C101.159528,54.2407386 102.769953,51.6430152 105.013443,49.4602918 C105.439187,49.0417599 105.975996,48.9305046 106.87006,48.8439727 C106.945953,48.8369089 106.968166,48.8686961 106.931145,48.9057812 C105.859379,50.1295897 102.533017,53.9105046 100.881868,57.7691216 M140.961102,57.255228 C143.547038,56.3757812 144.359655,55.015994 144.417038,54.265462 C144.418889,54.1524408 144.441102,54.0729727 144.215272,54.0729727 C143.861719,54.0729727 143.176826,54.3149089 142.730719,54.6098237 C141.906996,55.1696323 141.103634,56.2221429 140.961102,57.255228 M123.66106,54.473845 C122.679996,54.0906323 120.595698,54.3272706 119.216655,55.7011855 C118.065294,56.9073344 118.052336,57.9563131 118.513251,58.1311429 C118.637272,58.1752918 118.727974,58.1505684 118.800166,58.0975897 C119.875634,57.3629514 122.44306,55.4133344 123.66106,54.473845 M114.581591,54.4385259 C114.479783,54.3890791 114.229889,54.3113769 113.850421,54.3060791 C112.649081,54.2919514 111.27374,54.8393982 110.440762,55.6287812 C109.839166,56.1938876 109.424528,57.0380152 109.409719,57.6896535 C109.406017,57.9086323 109.48006,58.1646961 109.702187,58.1646961 C110.172357,58.1646961 113.528336,55.3762493 114.581591,54.4385259 M111.48106,59.5492067 C110.40374,60.2626535 109.056166,61.2533557 108.946953,62.8674408 C108.922889,63.2506535 109.04506,63.4007599 109.287549,63.4007599 C109.474506,63.4007599 109.618889,63.3053982 109.839166,62.9380791 C110.127932,62.4524408 111.199698,60.2909089 111.48106,59.5492067 M147.710081,56.1002918 C147.289889,57.5077599 143.735847,59.9712706 140.38357,59.9712706 C139.820847,59.9712706 139.402506,59.6957812 139.417315,58.8198663 C139.42657,58.5532067 139.458038,58.2759514 139.53023,58.003994 C138.036421,58.8004408 135.641145,59.8458876 135.056209,59.8458876 C134.848889,59.8458876 134.65823,59.7381642 134.65823,59.3408237 C134.65823,58.2618237 136.083549,55.7965472 136.353804,55.3003131 C136.509294,55.0283557 136.533357,54.9418237 136.533357,54.8817812 C136.533357,54.7475684 136.451911,54.680462 136.305677,54.680462 C136.118719,54.680462 135.731847,54.849994 135.446783,55.0053982 C133.764166,56.0579089 132.285166,57.6331429 130.907974,59.7311003 C130.876506,59.7734833 130.800613,59.8070365 130.685847,59.8335259 L130.611804,59.8476535 C130.417443,59.870611 130.295272,59.6357386 130.295272,59.3743769 C130.295272,58.584994 131.083826,56.6936535 132.026017,55.2579301 C132.194464,55.0018663 132.227783,54.9488876 132.227783,54.8641216 C132.227783,54.7758237 132.159294,54.680462 131.998251,54.680462 C131.6484,54.680462 130.737677,55.2579301 129.9954,55.8230365 C129.499315,56.2080152 127.862974,57.587228 126.572783,59.6887174 C126.522804,59.7646535 126.476528,59.8035046 126.343251,59.8352918 L126.282166,59.8476535 C126.1674,59.868845 125.987847,59.7787812 125.987847,59.411462 C125.987847,58.7951429 126.339549,57.837994 126.820826,56.8755472 C125.319613,57.8733131 121.993251,59.8900365 121.524932,59.8900365 C121.145464,59.8900365 121.141762,59.6392706 121.13806,59.4008663 C121.15657,58.5796961 121.630443,57.461845 122.661485,55.803611 C120.993677,57.1969514 117.698783,59.9076961 116.801017,59.9076961 C116.471528,59.9076961 116.273464,59.6428025 116.273464,59.2119089 C116.273464,58.4031003 116.821379,57.2834833 117.656209,56.3563557 C116.752889,56.8243344 114.883315,57.8132706 113.295102,58.6980152 C112.104868,60.8206961 111.136762,62.3447174 109.713294,63.603845 C108.9414,64.2872706 108.215783,64.723462 107.801145,64.723462 C107.5494,64.723462 107.240272,64.5256748 107.256932,63.9535046 C107.32357,61.7743131 110.633272,59.4220578 111.893847,58.6220791 C112.338102,57.7867812 112.878613,56.7872493 113.278443,56.0985259 C112.49174,56.714845 109.217209,59.2578237 109.217209,59.2578237 C108.621166,59.702845 108.184315,59.911228 107.838166,59.911228 C107.393911,59.911228 107.32357,59.5191855 107.32357,59.2684195 C107.32357,58.1611642 108.356464,56.5559089 109.783634,55.4433557 C112.206677,53.5555472 115.597826,53.5166961 116.578889,53.5502493 C116.647379,53.5555472 116.634421,53.5820365 116.61406,53.6102918 C115.259081,55.2155472 113.802294,57.7726535 113.77823,57.8168025 C115.059166,57.129845 117.497017,56.133845 118.148591,55.8671855 C120.071847,54.0853344 122.728123,53.2270791 125.586166,53.5078663 C125.650953,53.5166961 125.650953,53.5696748 125.617634,53.6138237 C124.904974,54.6080578 123.668464,56.5046961 123.15757,57.8733131 C123.100187,58.0322493 123.102038,58.1028876 123.270485,58.042845 C124.194166,57.6843557 126.154443,56.8684833 127.015187,56.4941003 C127.566804,55.4769089 128.227634,54.517994 128.744081,54.058845 C129.134655,53.7374408 129.986145,53.7462706 130.23974,53.7656961 C130.30823,53.770994 130.30823,53.8169089 130.278613,53.8628237 C129.582613,54.8235046 129.092081,55.4592493 128.497889,56.6565684 C130.759889,54.7193131 132.596145,53.435462 134.145485,53.6420791 C134.391677,53.6738663 134.391677,53.811611 134.300974,53.9528876 C133.940017,54.5674408 133.108889,55.9749089 132.731272,56.7448663 C134.565677,55.054845 136.877655,53.4884408 138.430698,53.560845 C138.604698,53.5696748 138.756485,53.6579727 138.634315,53.8645897 C138.014209,54.9012067 136.942443,56.9285259 136.477826,58.2000152 C136.420443,58.3554195 136.400081,58.4366535 136.627762,58.3925046 C137.420017,58.2353344 138.756485,57.8450578 139.659804,57.5536748 C140.0004,56.6071216 140.677889,55.6552706 141.573804,54.9259301 C142.634464,54.0447174 144.652123,53.3224408 145.84606,53.4160365 C145.946017,53.4266323 145.988591,53.479611 146.016357,53.560845 C146.071889,53.6897599 146.071889,53.8275046 146.016357,54.0252918 C145.577655,55.3956748 143.684017,56.6706961 140.968506,57.8432918 C141.014783,58.5920578 141.186932,58.8004408 141.673762,58.8004408 C143.695123,58.8004408 147.041847,57.0698025 147.545336,55.9908025 C147.597166,55.8671855 147.765613,55.9095684 147.710081,56.1002918 M39.4691234,54.8623557 C39.4691234,54.4879727 39.1840596,54.265462 38.7009319,54.265462 C38.4103149,54.265462 38.0419532,54.3572918 37.6458255,54.5374195 C36.2797404,55.1608025 35.2505489,56.4305259 35.2505489,57.4936323 C35.2505489,57.9916323 35.4356553,58.3218663 35.5263574,58.4331216 C35.6799957,58.6132493 35.7725489,58.5567386 35.9872723,58.5072918 C36.5333362,58.3801429 37.3533574,57.8450578 38.0326979,57.172228 C38.9045489,56.2927812 39.4691234,55.388611 39.4691234,54.8623557 M38.1363574,57.9792706 C36.9720383,59.1960152 35.5393149,59.9571429 34.8099957,59.9430152 C33.9899745,59.9341855 33.8085702,59.1395046 33.8215277,58.5920578 C33.8529957,56.921462 35.485634,54.9012067 37.6550809,53.9246323 C38.4362298,53.5732067 39.0378255,53.4478237 39.7245702,53.477845 C39.8485915,53.4849089 39.9411447,53.5696748 39.9985277,53.6208876 C40.5260809,54.0853344 40.9314638,55.0689727 38.1363574,57.9792706 M79.9629957,53.8310365 C79.9907617,53.7886535 79.9759532,53.770994 79.9315277,53.770994 C78.8208894,53.770994 78.4914,53.9246323 77.8490809,54.7405046 C76.8013787,56.1108876 75.561166,58.8145684 75.5389532,59.6887174 C75.5334,60.0207174 75.650017,60.1513982 75.7795915,60.1284408 L76.0294851,60.078994 C76.0535489,60.0683982 76.0646553,60.0595684 76.0794638,60.0454408 C78.0415915,56.8296323 80.2684213,54.9983344 83.0079957,54.6698663 C83.0339106,54.6663344 83.0505702,54.6645684 83.0672298,54.6433769 C83.2986128,54.3325684 83.6447617,53.9422918 83.9242723,53.6721003 C83.9501872,53.643845 83.9501872,53.6138237 83.9002085,53.6067599 C83.8224638,53.5996961 83.683634,53.5891003 83.5577617,53.5785046 C82.9265489,53.5325897 82.2435064,53.7780578 81.7196553,54.0394195 C80.7996766,54.5427174 79.420634,55.4627812 78.3507191,56.423462 C78.5709957,55.9855046 78.8727191,55.3956748 79.2614426,54.8111429 C79.5002298,54.4455897 79.855634,53.977611 79.9629957,53.8310365 M43.8542936,54.8111429 C43.4674213,55.3956748 43.1638468,55.9855046 42.9491234,56.423462 C44.0171872,55.4627812 45.3925277,54.5427174 46.3143574,54.0394195 C46.8400596,53.7780578 47.5231021,53.5325897 48.1543149,53.5785046 C48.2801872,53.5891003 48.419017,53.5996961 48.4967617,53.6067599 C48.5467404,53.6138237 48.5467404,53.643845 48.5189745,53.6721003 C48.2394638,53.9422918 47.8914638,54.3325684 47.6582298,54.6433769 C47.6434213,54.6645684 47.6230596,54.6663344 47.5989957,54.6698663 C44.8686766,54.9983344 42.6362936,56.8296323 40.6686128,60.0454408 C40.6630596,60.0595684 40.6519532,60.0683982 40.6241872,60.078994 L40.3742936,60.1284408 C40.2447191,60.1513982 40.1281021,60.0207174 40.1336553,59.6887174 C40.1558681,58.8145684 41.3923787,56.1108876 42.443783,54.7405046 C43.0842511,53.9246323 43.4137404,53.770994 44.5262298,53.770994 C44.5706553,53.770994 44.5873149,53.7886535 44.5576979,53.8310365 C44.4484851,53.977611 44.096783,54.4455897 43.8542936,54.8111429" id="Fill-15" fill="#FEFEFE" mask="url(#mask-2)"></path>
                    </g>
                </g>
            </g>
            <g id="Group-Copy" transform="translate(-9.000000, 0.000000)">
                <g id="Page-1">
                    <polygon id="Fill-1" fill="#FEFEFE" points="0.872090426 81.0003571 183.87209 81.0003571 183.87209 0.000357065217 0.872090426 0.000357065217"></polygon>
                    <polygon id="Fill-2" fill="#231F20" points="60.9956436 23.7684033 68.9646862 16.9431016 64.0415479 16.9431016 59.3521436 21.0386397 54.4271649 16.9431016 49.5040266 16.9431016 57.4712287 23.7684033"></polygon>
                    <g id="Group-11" transform="translate(42.460737, 26.052011)">
                        <path d="M98.2619571,31.1269847 L98.2619571,24.8087157 C99.1306379,24.8087157 100.671074,24.7015961 101.214,23.983895 C101.963053,22.9966097 101.751404,20.638194 100.582734,16.9711342 C100.450223,16.6497755 100.315872,16.3337728 100.181521,16.0213407 C98.832489,12.8559575 97.1577017,8.91931352 99.6754039,4.75771842 C101.322585,2.03331081 104.311436,0.471150481 107.872659,0.471150481 L107.872659,6.7894195 C106.628532,6.7894195 105.761691,7.18219124 105.292383,7.95523744 C104.489957,9.28352005 104.904053,10.5600282 106.201553,13.6075798 C106.359829,13.980713 106.521787,14.3574168 106.678223,14.7412619 L106.764723,14.971569 C107.668372,17.7888135 109.554808,23.6500391 106.462893,27.7277239 C104.751297,29.984376 101.9925,31.1269847 98.2619571,31.1269847" id="Fill-3" fill="#AE1E2F"></path>
                        <path d="M32.1766932,22.0089673 C29.4362996,27.8112771 23.90214,31.3908559 17.3060549,31.3908559 C8.19410812,31.3908559 0.591310245,24.8833423 0.591310245,15.8263831 C0.591310245,7.04257874 8.30637408,0.370815155 17.1385762,0.370815155 C23.6242358,0.370815155 29.8853634,4.05929885 32.231906,10.0240733 L27.5921932,10.0240733 C25.4683422,6.49983961 21.3881188,4.22176352 17.193789,4.22176352 C10.4302251,4.22176352 4.72858684,9.10284505 4.72858684,15.7728233 C4.72858684,22.3338967 10.0382145,27.5399075 16.8588315,27.5399075 C21.6108102,27.5399075 24.9088528,25.6421059 27.5921932,22.0089673 L32.1766932,22.0089673 Z" id="Fill-5" fill="#231F20"></path>
                        <path d="M59.7852847,13.6577475 C58.7233592,8.39639151 53.748689,4.22229912 48.1022634,4.22229912 C42.3435719,4.22229912 37.2566358,8.18036706 36.249923,13.6577475 L59.7852847,13.6577475 Z M36.249923,17.2908861 C36.4744549,22.9307312 42.1208805,27.5404431 47.767306,27.5404431 C52.2947528,27.5404431 56.8792528,25.0999024 58.7233592,21.0329296 L63.0281145,21.0329296 C60.9042634,26.997704 54.6431358,31.3913915 48.1574762,31.3913915 C39.2130081,31.3913915 32.1126464,24.5571633 32.1126464,15.8804785 C32.1126464,7.2591388 39.1577954,0.371350753 48.0452102,0.371350753 C52.8524017,0.371350753 57.269423,2.48517684 60.3447741,6.11831543 C63.1955932,9.53542956 63.8102954,13.0061035 63.9225613,17.2908861 L36.249923,17.2908861 Z" id="Fill-7" fill="#AE1E2F"></path>
                        <path d="M92.8054634,15.9345739 C92.8054634,9.48062005 87.4387826,4.22104939 80.7874847,4.22104939 C74.0791336,4.22104939 68.5449741,9.04857113 68.5449741,15.6096445 C68.5449741,18.8625086 69.3823677,21.574419 71.7859634,23.9060548 C74.0791336,26.239476 77.2096975,27.5409787 80.50774,27.5409787 C87.3283571,27.5409787 92.8054634,22.6045521 92.8054634,15.9345739 Z M68.6001868,1.02174505 L68.6001868,6.11885102 C71.0037826,2.26968798 76.3723039,0.371886351 80.7874847,0.371886351 C85.2597188,0.371886351 89.3969954,2.0518782 93.30974,6.11885102 C95.1538464,7.74528309 96.94274,11.6497912 96.94274,15.989919 C96.94274,24.8290684 89.2847294,31.3901418 80.3954741,31.3901418 C75.8680273,31.3901418 70.8381443,29.2745304 68.8247188,25.1539978 L68.8247188,41.0969597 L64.6874422,41.0969597 L64.6874422,1.02174505 L68.6001868,1.02174505 Z" id="Fill-9" fill="#231F20"></path>
                    </g>
                </g>
            </g>
            <g id="Page-1-Copy-2" transform="translate(2.000000, 1.000000)">
                <polygon id="Fill-1" fill="#FEFEFE" points="0 79 170 79 170 0 0 0"></polygon>
                <g id="Group-54" transform="translate(18.969957, 28.266055)">
                    <path d="M24.1639236,11.5340016 C24.1639236,17.8536225 18.8340061,22.9748148 12.2608641,22.9748148 C5.68772209,22.9748148 0.357804615,17.8536225 0.357804615,11.5340016 C0.357804615,5.21612257 5.68772209,0.0931883903 12.2608641,0.0931883903 C18.8340061,0.0931883903 24.1639236,5.21612257 24.1639236,11.5340016" id="Fill-2" fill="#231F20"></path>
                    <path d="M58.9667805,11.5340016 C58.9667805,17.8536225 53.6386753,22.9748148 47.063721,22.9748148 C40.490579,22.9748148 35.1606615,17.8536225 35.1606615,11.5340016 C35.1606615,5.21612257 40.490579,0.0931883903 47.063721,0.0931883903 C53.6386753,0.0931883903 58.9667805,5.21612257 58.9667805,11.5340016" id="Fill-4" fill="#231F20"></path>
                    <path d="M41.7700492,11.5340016 C41.7700492,17.8536225 36.441944,22.9748148 29.8669897,22.9748148 C23.2938477,22.9748148 17.9639302,17.8536225 17.9639302,11.5340016 C17.9639302,5.21612257 23.2938477,0.0931883903 29.8669897,0.0931883903 C36.441944,0.0931883903 41.7700492,5.21612257 41.7700492,11.5340016" id="Fill-6" fill="#F37421"></path>
                    <path d="M25.4640538,2.49858105 C27.0081169,1.79485258 28.6210467,1.45343977 30.4442011,1.45343977 C35.1235098,1.45343977 39.1721448,4.04887395 41.116722,7.82531777" id="Stroke-8" stroke="#7A7E7D" stroke-width="0.106" stroke-linecap="round" stroke-linejoin="round"></path>
                    <path d="M25.4018925,2.53411585 C26.7121715,1.36181571 27.9427101,0.748666163 29.6680013,0.410737149 C30.0956995,0.327125847 30.5161486,0.234805034 30.9402223,0.187773676" id="Stroke-10" stroke="#7A7E7D" stroke-width="0.106" stroke-linecap="round" stroke-linejoin="round"></path>
                    <path d="M25.447562,2.49614238 C23.8563796,3.09361482 22.3304393,4.02901626 21.0817779,5.30234672 C17.8686042,8.57538083 17.0548902,13.1879377 18.5790182,17.1385717" id="Stroke-12" stroke="#7A7E7D" stroke-width="0.106" stroke-linecap="round" stroke-linejoin="round"></path>
                    <path d="M25.447562,2.51199369 C23.9161848,3.58500541 22.6149673,5.01510706 21.6145884,6.71868735 C19.0429621,11.0978293 19.345613,16.2556015 21.9498603,20.0686253" id="Stroke-14" stroke="#7A7E7D" stroke-width="0.106" stroke-linecap="round" stroke-linejoin="round"></path>
                    <path d="M25.4948625,2.48830382 C27.4394397,2.35243546 29.4927537,2.53707708 31.4681397,3.25822457 C36.2398747,4.9983848 39.6741466,7.51020768 40.8865623,12.5791429 C41.252643,14.108533 41.0985992,14.8801956 41.0333571,15.4881194" id="Stroke-16" stroke="#7A7E7D" stroke-width="0.106" stroke-linecap="round"></path>
                    <path d="M37.192047,20.5490419 C37.3605891,20.1780168 37.8299698,19.4359664 37.8789013,18.1765712 C38.063754,13.3410509 34.952068,10.1446605 30.9650505,6.39260327 C29.250633,4.77960189 27.2607488,3.50975524 25.4013489,2.53429004 C25.4013489,2.53429004 25.5680787,3.59685034 26.0882032,4.96075971 C26.6083278,6.32466908 28.4840383,10.9459354 29.0621558,12.3324895 C29.6384611,13.7190436 31.3528786,17.6139368 31.9273716,18.7618503 C32.5399225,19.9916332 33.4333768,21.3607683 34.1582891,22.2073327" id="Stroke-18" stroke="#7A7E7D" stroke-width="0.106" stroke-linecap="round" stroke-linejoin="round"></path>
                    <path d="M30.8425404,0.1339489 C31.4297193,0.442265578 31.8121105,0.907353448 31.9045368,1.51701919 C32.1781912,3.3146622 29.8331,5.67319769 26.6652334,6.78278935 C23.4973668,7.892381 20.7064545,7.33497232 20.4309879,5.53732932 C20.3748072,5.16804607 20.4291756,4.77437618 20.5795949,4.37199679" id="Stroke-20" stroke="#7A7E7D" stroke-width="0.106"></path>
                    <path d="M36.8237915,2.29721716 C37.0648249,2.63514617 37.2297424,3.01488084 37.3131073,3.43816306 C37.9057231,6.46384706 33.9640126,10.4737058 28.51086,12.3897981 C25.3321197,13.5080993 22.3418566,13.6700962 20.2831058,13.0116572" id="Stroke-22" stroke="#7A7E7D" stroke-width="0.106"></path>
                    <path d="M40.9724645,7.51038187 C41.6031381,10.5029697 37.2844733,14.8629508 31.3275067,17.2493567 C26.4017278,19.2229318 21.8982103,19.2281575 20.1312366,17.4792878" id="Stroke-24" stroke="#7A7E7D" stroke-width="0.106"></path>
                    <path d="M41.1219776,15.2500014 C39.6377197,17.4186846 36.8739917,19.623948 33.3092356,21.0087697 C31.0674444,21.8779849 28.7495374,22.2855929 26.9445059,22.2804167" id="Stroke-26" stroke="#7A7E7D" stroke-width="0.106"></path>
                    <path d="M25.4640538,2.49858105 C23.4669205,5.86045217 23.3146889,7.71731984 23.3545591,10.8370666 C23.3908047,13.8052678 24.0812836,18.9125249 27.3452011,21.5009914 C28.5503678,22.4555538 29.5906169,22.9763825 29.5906169,22.9763825" id="Stroke-28" stroke="#7A7E7D" stroke-width="0.106" stroke-linecap="round"></path>
                    <path d="M20.7050047,4.22480606 C20.7050047,4.22480606 22.3632415,2.48812963 25.4640538,2.49858105" id="Stroke-30" stroke="#7A7E7D" stroke-width="0.106" stroke-linecap="round"></path>
                    <path d="M25.4948625,2.48830382 C25.4948625,2.48830382 25.6561555,1.87689618 25.9116871,1.36129314 C26.1726555,0.830012993 26.5423608,0.546082945 26.5423608,0.546082945" id="Stroke-32" stroke="#7A7E7D" stroke-width="0.106" stroke-linecap="round" stroke-linejoin="round"></path>
                    <path d="M23.2418352,2.02548043 C23.2418352,2.02548043 23.6695334,2.06554418 24.1570369,2.14741358 C24.6862229,2.23450868 25.4020738,2.53411585 25.4020738,2.53411585" id="Stroke-34" stroke="#7A7E7D" stroke-width="0.106" stroke-linecap="round" stroke-linejoin="round"></path>
                    <path d="M42.213333,14.3647668 L46.7023523,14.3647668 C47.2569102,14.3647668 47.5178786,14.112191 47.5178786,13.7481334 C47.5178786,12.4591258 42.3601278,12.936407 42.3601278,8.42488049 C42.3601278,5.84686533 44.6907207,4.55785775 46.9053277,4.55785775 L51.4541522,4.55785775 L51.4541522,8.20191701 L47.8096558,8.20191701 C47.2569102,8.20191701 46.8473347,8.48062136 46.8473347,8.8446789 C46.8473347,9.93859344 52.298675,10.2190397 52.298675,13.8874856 C52.298675,16.6623357 50.4918312,18.1760486 47.4308891,18.1760486 L42.213333,18.1760486 L42.213333,14.3647668 Z" id="Fill-36" fill="#FEFEFE"></path>
                    <path d="M25.3480678,2.44719493 C25.3480678,2.44719493 25.2248327,1.75740169 25.181338,1.07283415" id="Stroke-38" stroke="#7A7E7D" stroke-width="0.106" stroke-linecap="round"></path>
                    <path d="M22.2806015,20.3501167 L22.2806015,11.1459058 C22.2806015,6.77547336 26.1878787,4.53364531 30.3253155,4.53364531 C34.8433312,4.53364531 38.109061,7.61507018 38.109061,11.7050564 C38.109061,16.3838055 34.2615891,18.8224685 30.5590997,18.8224685 C29.4517962,18.8224685 28.7232593,18.653504 28.2846874,18.4862814 L28.2846874,14.3388124 C28.6362699,14.5356474 29.218012,14.7324823 30.238326,14.7324823 C32.0451698,14.7324823 33.4442505,13.4713452 33.4442505,11.677186 C33.4442505,9.88476867 32.0451698,8.62363152 30.238326,8.62363152 C28.023719,8.62363152 26.945412,10.1373445 26.945412,12.2380784 L26.945412,22.6267828 C25.2056225,22.2052425 23.619877,21.4161608 22.2806015,20.3501167" id="Fill-40" fill="#231F20"></path>
                    <path d="M21.9574719,20.0825605 L21.9574719,10.8348021 C21.9574719,6.46436964 25.8629367,4.22254159 30.0021858,4.22254159 C34.5202016,4.22254159 37.7859313,7.30396646 37.7859313,11.3956946 C37.7859313,16.0744437 33.9384595,18.5113648 30.23597,18.5113648 C29.1286665,18.5113648 28.3983174,18.3424003 27.9615578,18.1751777 L27.9615578,14.0277087 C28.3131402,14.2245436 28.8948823,14.4213786 29.9151963,14.4213786 C31.7220402,14.4213786 33.1211209,13.1602414 33.1211209,11.3660822 C33.1211209,9.57366494 31.7220402,8.3125278 29.9151963,8.3125278 C27.7005894,8.3125278 26.6204701,9.82624075 26.6204701,11.9269747 L26.6204701,22.5438682 C24.8679947,22.066587 23.2804368,21.2147969 21.9574719,20.0825605" id="Fill-42" fill="#FEFEFE"></path>
                    <path d="M41.7631625,11.5359177 C41.7631625,17.8537967 36.4350573,22.9767309 29.860103,22.9767309 C23.286961,22.9767309 17.9570435,17.8537967 17.9570435,11.5359177 C17.9570435,5.21803866 23.286961,0.0951044827 29.860103,0.0951044827 C36.4350573,0.0951044827 41.7631625,5.21803866 41.7631625,11.5359177 Z" id="Stroke-44" stroke="#7A7E7D" stroke-width="0.178" stroke-linecap="round" stroke-linejoin="round"></path>
                    <path d="M15.4626204,18.1751777 L15.4626204,11.8991043 C15.4626204,9.49005364 14.2973239,8.3125278 12.1678941,8.3125278 C10.4788485,8.3125278 8.96196959,9.57366494 8.96196959,11.2824709 C8.96196959,13.3570764 10.5368415,14.4213786 12.0519082,14.4213786 C12.9852327,14.4213786 13.7717625,14.2245436 14.2973239,14.0277087 L14.2973239,17.7275088 C13.4219923,18.3162718 12.4306748,18.5113648 11.1203959,18.5113648 C8.14644329,18.5113648 4.29897141,16.0744437 4.29897141,11.3956946 C4.29897141,7.30396646 7.56288891,4.22254159 12.0809046,4.22254159 C16.4829344,4.22254159 20.1274309,6.5201105 20.1274309,10.8348021 L20.1274309,18.1751777 L15.4626204,18.1751777 Z" id="Fill-46" fill="#FEFEFE"></path>
                    <path d="M41.0166841,15.2026217 C39.5324262,17.3712966 36.7686982,19.5765515 33.2039421,20.961368 C30.9621509,21.8305799 28.6442439,22.2381863 26.8392124,22.2347246" id="Stroke-48" stroke="#7A7E7D" stroke-width="0.106"></path>
                    <path d="M131.224223,3.36012584 L95.573038,18.112295 C91.7364398,19.7009098 85.706982,21.5333908 83.1534785,17.6646262 C81.7344627,15.5168608 82.6007329,12.1567316 84.6504223,9.07356484 C85.9570767,7.10695733 87.6388732,5.30234672 89.3279188,3.49947801 C88.3837205,4.96790151 85.7812855,9.89922645 89.2717381,12.3135028 C90.6327608,13.25413 93.0122854,13.3377413 95.9626783,12.5678205 L131.224223,3.36012584 Z" id="Fill-50" fill="#F37421"></path>
                    <path d="M69.6083115,0.0588729183 L69.6083115,23.1164315" id="Stroke-52" stroke="#7A7E7D" stroke-width="0.192"></path>
                </g>
            </g>
        </g>
    </g>
</svg>