<?xml version="1.0" encoding="UTF-8"?>
<svg width="173px" height="81px" viewBox="0 0 173 81" version="1.1" xmlns="http://www.w3.org/2000/svg" xmlns:xlink="http://www.w3.org/1999/xlink">
    <!-- Generator: Sketch 48.2 (47327) - http://www.bohemiancoding.com/sketch -->
    <title>Artboard 3</title>
    <desc>Created with Sketch.</desc>
    <defs>
        <polygon id="path-1" points="0 80.8997993 173.742702 80.8997993 173.742702 0.143042553 0 0.143042553"></polygon>
    </defs>
    <g id="Page-1" stroke="none" stroke-width="1" fill="none" fill-rule="evenodd">
        <g id="Artboard-3">
            <g id="Group-14-Copy" transform="translate(0.000000, -2.000000)">
                <g id="Page-1">
                    <polygon id="Fill-1" fill="#0062AF" points="0 82.7142681 173.742702 82.7142681 173.742702 1.76631064 0 1.76631064"></polygon>
                    <g id="Group-16" transform="translate(0.000000, 0.358604)">
                        <path d="M48.074534,43.5791237 L48.074534,30.8748259 C48.074534,29.5750812 48.6779809,28.0298684 50.9973638,28.0298684 C53.3111936,28.0298684 53.9127894,29.9812514 53.9127894,30.8748259 L53.9127894,43.5791237 L60.1860447,43.5791237 L60.1860447,31.033762 C60.1860447,28.5172727 58.4608532,23.484294 51.6822574,23.484294 C46.5325979,23.484294 44.6463638,26.9755918 44.6463638,26.9755918 C44.6463638,26.9755918 42.7545766,23.484294 37.6086191,23.484294 C30.8300234,23.484294 29.108534,28.5172727 29.108534,31.033762 L29.108534,43.5791237 L35.3780872,43.5791237 L35.3780872,30.8748259 C35.3780872,29.9812514 35.979683,28.0298684 38.2972149,28.0298684 C40.6110447,28.0298684 41.2144915,29.5750812 41.2144915,30.8748259 L41.2144915,43.5791237 L48.074534,43.5791237 Z" id="Fill-2" fill="#FEFEFE"></path>
                        <path d="M63.986834,40.4549684 C66.0304085,42.9290748 69.2142383,44.5202025 72.7886426,44.5202025 C76.3686,44.5202025 79.5542809,42.9290748 81.5960043,40.4549684 L63.986834,40.4549684 Z" id="Fill-4" fill="#FEFEFE"></path>
                        <path d="M74.2837468,38.4541386 C72.8269596,38.4541386 71.3923851,37.2003089 74.609534,35.9411812 C75.8182787,35.4661386 78.3283213,33.8856067 78.929917,31.8936067 C79.5278106,36.4020961 77.1158745,38.4541386 74.2837468,38.4541386 Z M82.4654489,39.2364578 C83.4150447,37.6859472 83.9574064,35.8793727 83.9574064,33.958011 C83.9574064,28.6159897 79.7684489,24.202862 74.3244702,23.4947131 C75.6035553,24.1852025 78.1154489,26.2337131 78.1154489,29.7567982 C78.1154489,35.0846918 71.1610021,34.6891174 71.1610021,37.5535003 C71.1610021,38.8179259 72.3401298,39.2523514 72.7899383,39.2523514 L82.4654489,39.2364578 Z M70.6390021,39.2523514 C68.6454064,38.5830535 66.8498745,36.7005429 66.8498745,33.8979684 C66.8498745,28.6000961 74.2504277,28.0508833 74.2504277,25.1865003 C74.2504277,24.1339897 73.041683,23.5618195 72.0087894,23.4205429 C66.2075553,23.8019897 61.6280234,28.3740535 61.6280234,33.958011 C61.6280234,35.8793727 62.1722362,37.6859472 63.1181298,39.2364578 L70.6390021,39.2523514 Z" id="Fill-6" fill="#FEFEFE"></path>
                        <mask id="mask-2" fill="white">
                            <use xlink:href="#path-1"></use>
                        </mask>
                        <g id="Clip-9"></g>
                        <polygon id="Fill-8" fill="#FEFEFE" mask="url(#mask-2)" points="85.2562979 43.5805365 91.5628723 43.5805365 91.5628723 19.0407918 85.2562979 19.0407918"></polygon>
                        <path d="M104.047557,29.0822025 L104.047557,24.2752663 L99.8641532,24.2752663 L99.8641532,19.101011 L93.8148766,19.101011 L93.8148766,37.4916918 C93.8148766,38.8920961 94.6497064,41.4509684 96.3915574,42.4858195 C98.1278553,43.5206706 99.6050043,43.8244152 104.047557,43.8244152 L104.047557,38.646628 C102.568557,38.9539046 99.8641532,39.0139472 99.8641532,36.3314578 L99.8641532,29.0822025 L104.047557,29.0822025 Z" id="Fill-10" fill="#FEFEFE" mask="url(#mask-2)"></path>
                        <path d="M110.403926,31.3392727 C110.990713,28.5720174 112.651117,27.2616769 115.375883,27.2616769 C118.846628,27.2616769 120.073883,30.0006769 120.073883,31.3392727 L110.403926,31.3392727 Z M126.249032,31.8884855 C125.797372,27.4418046 121.360372,22.9333152 115.375883,22.9333152 C109.387691,22.9333152 104.175096,27.3799961 104.175096,34.0818046 C104.175096,36.638911 105.979883,44.1866131 114.98716,44.1866131 C123.998138,44.1866131 125.995436,38.586762 125.995436,37.3046769 L119.881372,37.3046769 C119.749947,37.673762 119.04284,39.9288897 115.116734,39.9288897 C112.110606,39.9288897 110.511287,38.7015493 110.211415,35.2367408 L126.317521,35.2367408 C126.317521,34.2001237 126.378606,33.2871237 126.249032,31.8884855 Z" id="Fill-11" fill="#FEFEFE" mask="url(#mask-2)"></path>
                        <path d="M136.966321,27.6881557 C139.541151,27.6881557 140.020577,30.0598365 140.020577,30.6690918 L140.020577,43.5782408 L146.201279,43.5782408 L146.201279,31.4019642 C146.201279,29.3923046 145.26464,22.9977727 136.966321,22.9977727 C128.660598,22.9977727 127.731364,29.3923046 127.731364,31.4019642 L127.731364,43.5782408 L133.906513,43.5782408 L133.906513,30.6690918 C133.906513,30.0598365 134.38964,27.6881557 136.966321,27.6881557" id="Fill-12" fill="#FEFEFE" mask="url(#mask-2)"></path>
                        <path d="M144.313934,22.5790642 C144.313934,21.9962982 144.554572,21.4488514 144.993274,21.0373833 C145.426423,20.6241493 146.002104,20.3945748 146.62036,20.3945748 C147.236764,20.3945748 147.817998,20.6241493 148.252998,21.0373833 C148.686147,21.4488514 148.928636,21.9962982 148.928636,22.5790642 C148.928636,23.7816812 147.893891,24.7617876 146.62036,24.7617876 C146.002104,24.7617876 145.426423,24.535745 144.993274,24.1260429 C144.554572,23.7110429 144.313934,23.165362 144.313934,22.5790642 M146.62036,25.1926812 C147.357083,25.1926812 148.051232,24.9189578 148.573232,24.4262557 C149.095232,23.9335535 149.380296,23.2766174 149.380296,22.5790642 C149.380296,21.881511 149.095232,21.2245748 148.573232,20.7336386 C148.051232,20.2409365 147.357083,19.9689791 146.62036,19.9689791 C145.100636,19.9689791 143.858572,21.1398089 143.858572,22.5790642 C143.858572,23.2766174 144.145487,23.9335535 144.665636,24.4262557 C145.191338,24.9189578 145.885487,25.1926812 146.62036,25.1926812" id="Fill-13" fill="#FEFEFE" mask="url(#mask-2)"></path>
                        <path d="M145.874381,24.0068408 L145.874381,22.7759684 L146.809168,22.7759684 C146.979466,22.7759684 147.099785,22.793628 147.179381,22.8271812 C147.318211,22.8925216 147.392253,23.0196706 147.395955,23.206862 L147.423721,23.6836706 C147.427423,23.7984578 147.436679,23.872628 147.444083,23.913245 C147.453338,23.9485642 147.462594,23.9838833 147.477402,24.0068408 L147.982743,24.0068408 L147.982743,23.9450323 C147.919806,23.9167769 147.875381,23.8585003 147.851317,23.7666706 C147.836509,23.7154578 147.823551,23.6306918 147.823551,23.5229684 L147.80504,23.1397557 C147.801338,22.9702237 147.766168,22.8519046 147.706934,22.7759684 C147.6477,22.7017982 147.558849,22.6417557 147.436679,22.5976067 C147.573657,22.5305003 147.679168,22.4422025 147.753211,22.3327131 C147.827253,22.2232237 147.869828,22.0819472 147.869828,21.9106493 C147.869828,21.5804152 147.723594,21.3543727 147.436679,21.2325216 C147.288594,21.1654152 147.096083,21.133628 146.866551,21.133628 L145.463445,21.133628 L145.463445,24.0068408 L145.874381,24.0068408 Z M145.874381,21.4691599 L146.877657,21.4691599 C147.018338,21.4691599 147.131253,21.4903514 147.214551,21.5292025 C147.368189,21.6033727 147.451487,21.7428833 147.451487,21.9477344 C147.451487,22.1366918 147.392253,22.2726706 147.277487,22.3415429 C147.166423,22.4157131 147.014636,22.4527982 146.823977,22.4527982 L145.874381,22.4527982 L145.874381,21.4691599 Z" id="Fill-14" fill="#FEFEFE" mask="url(#mask-2)"></path>
                        <path d="M66.8445064,57.255228 C69.4285915,56.3757812 70.2393574,55.015994 70.3004426,54.265462 C70.3004426,54.1524408 70.3245064,54.0729727 70.0986766,54.0729727 C69.7432723,54.0729727 69.0602298,54.3149089 68.6141234,54.6098237 C67.7904,55.1696323 66.979634,56.2221429 66.8445064,57.255228 M73.591634,56.1002918 C73.1677404,57.5077599 69.6174,59.9712706 66.2595702,59.9712706 C65.7042511,59.9712706 65.2877617,59.6957812 65.2988681,58.8198663 C65.3025702,58.5585046 65.3414426,58.2953769 65.4025277,58.0269514 C63.8883574,58.8181003 61.5115915,59.8352918 60.9285064,59.8352918 C60.8100383,59.8352918 60.5916128,59.7311003 60.6008681,59.331994 C60.6156766,58.4949301 61.1691447,57.1210152 62.1039319,55.5245897 C62.3593787,55.1131216 62.4093574,55.0053982 62.4130596,54.9082706 C62.4130596,54.8111429 62.3538255,54.6645684 62.1594638,54.6645684 C61.322783,54.6645684 58.538783,57.0380152 56.7376979,59.951845 C56.7210383,59.9677386 56.713634,59.9748025 56.6858681,59.9836323 L56.4952085,60.0207174 C56.365634,60.0454408 56.247166,59.9147599 56.2582723,59.5827599 C56.2582723,58.915228 56.7432511,57.6048876 57.3911234,56.3333982 C56.0102298,57.1969514 51.2252298,60.0948876 50.5236766,60.0948876 C50.3089532,60.0948876 50.2312085,59.911228 50.2497191,59.579228 C50.360783,58.5249514 51.3474,56.7113131 52.3895489,55.0848663 C51.7509319,55.222611 51.1548894,55.3674195 50.7309957,55.5086961 C50.6125277,55.5475472 50.6310383,55.4786748 50.6625064,55.4398237 C50.7587617,55.3003131 51.0401234,54.9506535 51.1326766,54.8623557 C51.1993149,54.7952493 51.2381872,54.7705259 51.290017,54.7581642 C51.6842936,54.6380791 52.2322085,54.5285897 52.8208468,54.4279301 C53.7741447,53.020462 54.6904213,51.8743557 54.973634,51.692462 C55.2142723,51.5370578 55.5178468,51.4787812 56.4119106,51.4487599 C56.4748468,51.4487599 56.4655915,51.4911429 56.4415277,51.5123344 C56.2064426,51.7613344 55.3568043,52.9003769 54.4738468,54.1877599 C55.2846128,54.0818025 55.9787617,54.0146961 56.2434638,54.0058663 C56.4156128,53.9988025 56.4859532,54.0500152 56.4396766,54.1100578 L56.2323574,54.3625897 C56.1990383,54.4032067 56.1546128,54.4261642 56.0602085,54.4385259 C55.7658894,54.473845 54.9921447,54.5939301 54.0851234,54.7563982 C53.2780596,55.9572493 52.506166,57.1898876 52.2081447,57.878611 C52.1137404,58.1011216 52.1415064,58.1770578 52.421017,58.083462 C53.666783,57.6613982 56.5636979,56.4146323 57.583634,55.967845 C59.3865702,52.7008237 61.8632936,49.7799301 62.6944213,49.2254195 C63.1645915,48.9093131 63.6366128,48.8545684 64.2567191,48.8263131 C64.3122511,48.8245472 64.3011447,48.873994 64.282634,48.8916535 C62.7999319,50.4562918 60.249166,53.7374408 58.8145915,56.5311855 C61.4282936,54.2442706 63.2330809,53.5166961 64.3474213,53.5396535 C64.5343787,53.5484833 64.6454426,53.6632706 64.5177191,53.8681216 C63.8846553,54.9506535 62.8850809,56.7483982 62.3538255,58.2017812 C62.2964426,58.3571855 62.2742298,58.4366535 62.5019106,58.3978025 C63.323783,58.2441642 64.5714,57.8821429 65.5413574,57.5678025 C65.8745489,56.6141855 66.5557404,55.6588025 67.4535064,54.9259301 C68.516017,54.0447174 70.5355277,53.3224408 71.7276128,53.4160365 C71.8238681,53.4266323 71.8701447,53.479611 71.9016128,53.560845 C71.9534426,53.6897599 71.9534426,53.8275046 71.9016128,54.0252918 C71.4610596,55.3956748 69.5637191,56.6706961 66.8482085,57.8432918 C66.9000383,58.5920578 67.0684851,58.8004408 67.5553149,58.8004408 C69.5785277,58.8004408 72.9215489,57.0698025 73.4287404,55.9908025 C73.4787191,55.8671855 73.6527191,55.9095684 73.591634,56.1002918 M39.9041234,49.7410791 C36.4500383,49.7410791 30.9819957,50.1631429 30.3896553,50.2125897 C30.3082085,50.2196535 30.2101021,50.2390791 30.1249532,50.3114833 C29.8528468,50.533994 29.0032085,51.4063769 28.8847404,51.5741429 C28.8384638,51.6447812 28.7718255,51.7436748 28.9976553,51.7118876 C29.0032085,51.7118876 31.1504426,51.3233769 31.3059319,51.3021855 C28.6552085,53.7091855 26.6875277,56.5364833 24.3977617,61.1350365 C24.3274213,61.3010365 24.3625915,61.3416535 24.5014213,61.3186961 C25.0252723,61.2198025 25.9804213,61.0361429 26.5449957,60.8595472 C27.3316979,59.2136748 28.3923574,57.3258663 29.5566766,55.5616748 C31.0578894,55.1890578 32.7738255,54.8270365 34.2009957,54.7193131 C34.2528255,54.7157812 34.3102085,54.680462 34.354634,54.6363131 C34.4360809,54.5515472 34.7378043,54.2460365 34.7692723,54.1983557 C34.8803362,54.0676748 34.8211021,54.0429514 34.3490809,54.0482493 C33.3865277,54.0623769 31.8279319,54.1877599 30.3637404,54.3890791 C31.3040809,53.0769727 32.2962511,51.8884833 33.2662085,50.9966748 C35.5744851,50.7565046 37.5902936,50.533994 39.5875915,50.3768237 C39.6560809,50.367994 39.7560383,50.367994 39.8097191,50.3114833 L40.1854851,49.9318025 C40.3243149,49.785228 40.2595277,49.7410791 39.9041234,49.7410791 M96.4504213,54.473845 C95.4656553,54.0906323 93.3832085,54.3272706 92.0004638,55.7011855 C90.8528043,56.9073344 90.8398468,57.9563131 91.3007617,58.1311429 C91.4173787,58.1752918 91.511783,58.1505684 91.5876766,58.0975897 C92.6612936,57.3629514 95.2305702,55.4133344 96.4504213,54.473845 M84.1686128,57.255228 C86.7545489,56.3757812 87.5634638,55.015994 87.6264,54.265462 C87.6282511,54.1524408 87.6486128,54.0729727 87.4209319,54.0729727 C87.0710809,54.0729727 86.3824851,54.3149089 85.9400809,54.6098237 C85.1126553,55.1696323 84.3092936,56.2221429 84.1686128,57.255228 M100.881868,57.7691216 C100.774506,58.0322493 100.872613,58.1470365 101.020698,58.0905259 C102.238698,57.6437386 104.709868,56.5982918 105.250379,56.3563557 C105.437336,56.2786535 105.437336,56.4322918 105.268889,56.5417812 C104.132336,57.2923131 100.065549,59.9341855 99.227017,59.9341855 C98.9974851,59.9341855 98.8845702,59.8035046 98.8845702,59.5633344 C98.8864213,59.0882918 99.1714851,57.9775046 99.778634,56.758994 C98.3884851,57.6967174 94.7992723,59.8900365 94.3105915,59.8900365 C93.9292723,59.8900365 93.9292723,59.6392706 93.9255702,59.4008663 C93.9403787,58.5796961 94.4179532,57.461845 95.4489957,55.803611 C93.7793362,57.1969514 90.4881447,59.9076961 89.5903787,59.9076961 C89.2645915,59.9076961 89.0628255,59.6428025 89.0591234,59.2119089 C89.0591234,58.7845472 89.2127617,58.2724195 89.481166,57.7443982 C87.9762511,58.8110365 85.6494638,59.9712706 83.5892298,59.9712706 C83.0283574,59.9712706 82.6118681,59.6957812 82.6229745,58.8198663 C82.6451872,57.5077599 83.4855702,55.9855046 84.7813149,54.9259301 C85.8438255,54.0447174 87.8614851,53.3224408 89.0535702,53.4160365 C89.1516766,53.4266323 89.1924,53.479611 89.2275702,53.560845 C89.2756979,53.6897599 89.2756979,53.8275046 89.2275702,54.0252918 C88.7888681,55.3956748 86.8915277,56.6706961 84.176017,57.8432918 C84.2222936,58.5920578 84.3944426,58.8004408 84.8794213,58.8004408 C86.1788681,58.8004408 88.642634,57.670228 90.032783,56.8596535 C90.2178894,56.6159514 90.4141021,56.3757812 90.6362298,56.1550365 C92.5742936,54.1806961 95.3675489,53.2111855 98.3699745,53.5078663 C98.4366128,53.5166961 98.4366128,53.5696748 98.4069957,53.6138237 C97.6961872,54.6080578 96.4541234,56.5046961 95.9469319,57.8733131 C95.8858468,58.0322493 95.8895489,58.1028876 96.0616979,58.042845 C97.0427617,57.6596323 99.1955489,56.7625259 99.9563362,56.426994 C99.9692936,56.4040365 99.9785489,56.3757812 99.9915064,56.3545897 C101.159528,54.2407386 102.769953,51.6430152 105.013443,49.4602918 C105.439187,49.0417599 105.975996,48.9305046 106.87006,48.8439727 C106.945953,48.8369089 106.968166,48.8686961 106.931145,48.9057812 C105.859379,50.1295897 102.533017,53.9105046 100.881868,57.7691216 M140.961102,57.255228 C143.547038,56.3757812 144.359655,55.015994 144.417038,54.265462 C144.418889,54.1524408 144.441102,54.0729727 144.215272,54.0729727 C143.861719,54.0729727 143.176826,54.3149089 142.730719,54.6098237 C141.906996,55.1696323 141.103634,56.2221429 140.961102,57.255228 M123.66106,54.473845 C122.679996,54.0906323 120.595698,54.3272706 119.216655,55.7011855 C118.065294,56.9073344 118.052336,57.9563131 118.513251,58.1311429 C118.637272,58.1752918 118.727974,58.1505684 118.800166,58.0975897 C119.875634,57.3629514 122.44306,55.4133344 123.66106,54.473845 M114.581591,54.4385259 C114.479783,54.3890791 114.229889,54.3113769 113.850421,54.3060791 C112.649081,54.2919514 111.27374,54.8393982 110.440762,55.6287812 C109.839166,56.1938876 109.424528,57.0380152 109.409719,57.6896535 C109.406017,57.9086323 109.48006,58.1646961 109.702187,58.1646961 C110.172357,58.1646961 113.528336,55.3762493 114.581591,54.4385259 M111.48106,59.5492067 C110.40374,60.2626535 109.056166,61.2533557 108.946953,62.8674408 C108.922889,63.2506535 109.04506,63.4007599 109.287549,63.4007599 C109.474506,63.4007599 109.618889,63.3053982 109.839166,62.9380791 C110.127932,62.4524408 111.199698,60.2909089 111.48106,59.5492067 M147.710081,56.1002918 C147.289889,57.5077599 143.735847,59.9712706 140.38357,59.9712706 C139.820847,59.9712706 139.402506,59.6957812 139.417315,58.8198663 C139.42657,58.5532067 139.458038,58.2759514 139.53023,58.003994 C138.036421,58.8004408 135.641145,59.8458876 135.056209,59.8458876 C134.848889,59.8458876 134.65823,59.7381642 134.65823,59.3408237 C134.65823,58.2618237 136.083549,55.7965472 136.353804,55.3003131 C136.509294,55.0283557 136.533357,54.9418237 136.533357,54.8817812 C136.533357,54.7475684 136.451911,54.680462 136.305677,54.680462 C136.118719,54.680462 135.731847,54.849994 135.446783,55.0053982 C133.764166,56.0579089 132.285166,57.6331429 130.907974,59.7311003 C130.876506,59.7734833 130.800613,59.8070365 130.685847,59.8335259 L130.611804,59.8476535 C130.417443,59.870611 130.295272,59.6357386 130.295272,59.3743769 C130.295272,58.584994 131.083826,56.6936535 132.026017,55.2579301 C132.194464,55.0018663 132.227783,54.9488876 132.227783,54.8641216 C132.227783,54.7758237 132.159294,54.680462 131.998251,54.680462 C131.6484,54.680462 130.737677,55.2579301 129.9954,55.8230365 C129.499315,56.2080152 127.862974,57.587228 126.572783,59.6887174 C126.522804,59.7646535 126.476528,59.8035046 126.343251,59.8352918 L126.282166,59.8476535 C126.1674,59.868845 125.987847,59.7787812 125.987847,59.411462 C125.987847,58.7951429 126.339549,57.837994 126.820826,56.8755472 C125.319613,57.8733131 121.993251,59.8900365 121.524932,59.8900365 C121.145464,59.8900365 121.141762,59.6392706 121.13806,59.4008663 C121.15657,58.5796961 121.630443,57.461845 122.661485,55.803611 C120.993677,57.1969514 117.698783,59.9076961 116.801017,59.9076961 C116.471528,59.9076961 116.273464,59.6428025 116.273464,59.2119089 C116.273464,58.4031003 116.821379,57.2834833 117.656209,56.3563557 C116.752889,56.8243344 114.883315,57.8132706 113.295102,58.6980152 C112.104868,60.8206961 111.136762,62.3447174 109.713294,63.603845 C108.9414,64.2872706 108.215783,64.723462 107.801145,64.723462 C107.5494,64.723462 107.240272,64.5256748 107.256932,63.9535046 C107.32357,61.7743131 110.633272,59.4220578 111.893847,58.6220791 C112.338102,57.7867812 112.878613,56.7872493 113.278443,56.0985259 C112.49174,56.714845 109.217209,59.2578237 109.217209,59.2578237 C108.621166,59.702845 108.184315,59.911228 107.838166,59.911228 C107.393911,59.911228 107.32357,59.5191855 107.32357,59.2684195 C107.32357,58.1611642 108.356464,56.5559089 109.783634,55.4433557 C112.206677,53.5555472 115.597826,53.5166961 116.578889,53.5502493 C116.647379,53.5555472 116.634421,53.5820365 116.61406,53.6102918 C115.259081,55.2155472 113.802294,57.7726535 113.77823,57.8168025 C115.059166,57.129845 117.497017,56.133845 118.148591,55.8671855 C120.071847,54.0853344 122.728123,53.2270791 125.586166,53.5078663 C125.650953,53.5166961 125.650953,53.5696748 125.617634,53.6138237 C124.904974,54.6080578 123.668464,56.5046961 123.15757,57.8733131 C123.100187,58.0322493 123.102038,58.1028876 123.270485,58.042845 C124.194166,57.6843557 126.154443,56.8684833 127.015187,56.4941003 C127.566804,55.4769089 128.227634,54.517994 128.744081,54.058845 C129.134655,53.7374408 129.986145,53.7462706 130.23974,53.7656961 C130.30823,53.770994 130.30823,53.8169089 130.278613,53.8628237 C129.582613,54.8235046 129.092081,55.4592493 128.497889,56.6565684 C130.759889,54.7193131 132.596145,53.435462 134.145485,53.6420791 C134.391677,53.6738663 134.391677,53.811611 134.300974,53.9528876 C133.940017,54.5674408 133.108889,55.9749089 132.731272,56.7448663 C134.565677,55.054845 136.877655,53.4884408 138.430698,53.560845 C138.604698,53.5696748 138.756485,53.6579727 138.634315,53.8645897 C138.014209,54.9012067 136.942443,56.9285259 136.477826,58.2000152 C136.420443,58.3554195 136.400081,58.4366535 136.627762,58.3925046 C137.420017,58.2353344 138.756485,57.8450578 139.659804,57.5536748 C140.0004,56.6071216 140.677889,55.6552706 141.573804,54.9259301 C142.634464,54.0447174 144.652123,53.3224408 145.84606,53.4160365 C145.946017,53.4266323 145.988591,53.479611 146.016357,53.560845 C146.071889,53.6897599 146.071889,53.8275046 146.016357,54.0252918 C145.577655,55.3956748 143.684017,56.6706961 140.968506,57.8432918 C141.014783,58.5920578 141.186932,58.8004408 141.673762,58.8004408 C143.695123,58.8004408 147.041847,57.0698025 147.545336,55.9908025 C147.597166,55.8671855 147.765613,55.9095684 147.710081,56.1002918 M39.4691234,54.8623557 C39.4691234,54.4879727 39.1840596,54.265462 38.7009319,54.265462 C38.4103149,54.265462 38.0419532,54.3572918 37.6458255,54.5374195 C36.2797404,55.1608025 35.2505489,56.4305259 35.2505489,57.4936323 C35.2505489,57.9916323 35.4356553,58.3218663 35.5263574,58.4331216 C35.6799957,58.6132493 35.7725489,58.5567386 35.9872723,58.5072918 C36.5333362,58.3801429 37.3533574,57.8450578 38.0326979,57.172228 C38.9045489,56.2927812 39.4691234,55.388611 39.4691234,54.8623557 M38.1363574,57.9792706 C36.9720383,59.1960152 35.5393149,59.9571429 34.8099957,59.9430152 C33.9899745,59.9341855 33.8085702,59.1395046 33.8215277,58.5920578 C33.8529957,56.921462 35.485634,54.9012067 37.6550809,53.9246323 C38.4362298,53.5732067 39.0378255,53.4478237 39.7245702,53.477845 C39.8485915,53.4849089 39.9411447,53.5696748 39.9985277,53.6208876 C40.5260809,54.0853344 40.9314638,55.0689727 38.1363574,57.9792706 M79.9629957,53.8310365 C79.9907617,53.7886535 79.9759532,53.770994 79.9315277,53.770994 C78.8208894,53.770994 78.4914,53.9246323 77.8490809,54.7405046 C76.8013787,56.1108876 75.561166,58.8145684 75.5389532,59.6887174 C75.5334,60.0207174 75.650017,60.1513982 75.7795915,60.1284408 L76.0294851,60.078994 C76.0535489,60.0683982 76.0646553,60.0595684 76.0794638,60.0454408 C78.0415915,56.8296323 80.2684213,54.9983344 83.0079957,54.6698663 C83.0339106,54.6663344 83.0505702,54.6645684 83.0672298,54.6433769 C83.2986128,54.3325684 83.6447617,53.9422918 83.9242723,53.6721003 C83.9501872,53.643845 83.9501872,53.6138237 83.9002085,53.6067599 C83.8224638,53.5996961 83.683634,53.5891003 83.5577617,53.5785046 C82.9265489,53.5325897 82.2435064,53.7780578 81.7196553,54.0394195 C80.7996766,54.5427174 79.420634,55.4627812 78.3507191,56.423462 C78.5709957,55.9855046 78.8727191,55.3956748 79.2614426,54.8111429 C79.5002298,54.4455897 79.855634,53.977611 79.9629957,53.8310365 M43.8542936,54.8111429 C43.4674213,55.3956748 43.1638468,55.9855046 42.9491234,56.423462 C44.0171872,55.4627812 45.3925277,54.5427174 46.3143574,54.0394195 C46.8400596,53.7780578 47.5231021,53.5325897 48.1543149,53.5785046 C48.2801872,53.5891003 48.419017,53.5996961 48.4967617,53.6067599 C48.5467404,53.6138237 48.5467404,53.643845 48.5189745,53.6721003 C48.2394638,53.9422918 47.8914638,54.3325684 47.6582298,54.6433769 C47.6434213,54.6645684 47.6230596,54.6663344 47.5989957,54.6698663 C44.8686766,54.9983344 42.6362936,56.8296323 40.6686128,60.0454408 C40.6630596,60.0595684 40.6519532,60.0683982 40.6241872,60.078994 L40.3742936,60.1284408 C40.2447191,60.1513982 40.1281021,60.0207174 40.1336553,59.6887174 C40.1558681,58.8145684 41.3923787,56.1108876 42.443783,54.7405046 C43.0842511,53.9246323 43.4137404,53.770994 44.5262298,53.770994 C44.5706553,53.770994 44.5873149,53.7886535 44.5576979,53.8310365 C44.4484851,53.977611 44.096783,54.4455897 43.8542936,54.8111429" id="Fill-15" fill="#FEFEFE" mask="url(#mask-2)"></path>
                    </g>
                </g>
            </g>
            <g id="Group-Copy" transform="translate(-9.000000, 0.000000)">
                <g id="Page-1">
                    <polygon id="Fill-1" fill="#FEFEFE" points="0.872090426 81.0003571 183.87209 81.0003571 183.87209 0.000357065217 0.872090426 0.000357065217"></polygon>
                    <polygon id="Fill-2" fill="#231F20" points="60.9956436 23.7684033 68.9646862 16.9431016 64.0415479 16.9431016 59.3521436 21.0386397 54.4271649 16.9431016 49.5040266 16.9431016 57.4712287 23.7684033"></polygon>
                    <g id="Group-11" transform="translate(42.460737, 26.052011)">
                        <path d="M98.2619571,31.1269847 L98.2619571,24.8087157 C99.1306379,24.8087157 100.671074,24.7015961 101.214,23.983895 C101.963053,22.9966097 101.751404,20.638194 100.582734,16.9711342 C100.450223,16.6497755 100.315872,16.3337728 100.181521,16.0213407 C98.832489,12.8559575 97.1577017,8.91931352 99.6754039,4.75771842 C101.322585,2.03331081 104.311436,0.471150481 107.872659,0.471150481 L107.872659,6.7894195 C106.628532,6.7894195 105.761691,7.18219124 105.292383,7.95523744 C104.489957,9.28352005 104.904053,10.5600282 106.201553,13.6075798 C106.359829,13.980713 106.521787,14.3574168 106.678223,14.7412619 L106.764723,14.971569 C107.668372,17.7888135 109.554808,23.6500391 106.462893,27.7277239 C104.751297,29.984376 101.9925,31.1269847 98.2619571,31.1269847" id="Fill-3" fill="#AE1E2F"></path>
                        <path d="M32.1766932,22.0089673 C29.4362996,27.8112771 23.90214,31.3908559 17.3060549,31.3908559 C8.19410812,31.3908559 0.591310245,24.8833423 0.591310245,15.8263831 C0.591310245,7.04257874 8.30637408,0.370815155 17.1385762,0.370815155 C23.6242358,0.370815155 29.8853634,4.05929885 32.231906,10.0240733 L27.5921932,10.0240733 C25.4683422,6.49983961 21.3881188,4.22176352 17.193789,4.22176352 C10.4302251,4.22176352 4.72858684,9.10284505 4.72858684,15.7728233 C4.72858684,22.3338967 10.0382145,27.5399075 16.8588315,27.5399075 C21.6108102,27.5399075 24.9088528,25.6421059 27.5921932,22.0089673 L32.1766932,22.0089673 Z" id="Fill-5" fill="#231F20"></path>
                        <path d="M59.7852847,13.6577475 C58.7233592,8.39639151 53.748689,4.22229912 48.1022634,4.22229912 C42.3435719,4.22229912 37.2566358,8.18036706 36.249923,13.6577475 L59.7852847,13.6577475 Z M36.249923,17.2908861 C36.4744549,22.9307312 42.1208805,27.5404431 47.767306,27.5404431 C52.2947528,27.5404431 56.8792528,25.0999024 58.7233592,21.0329296 L63.0281145,21.0329296 C60.9042634,26.997704 54.6431358,31.3913915 48.1574762,31.3913915 C39.2130081,31.3913915 32.1126464,24.5571633 32.1126464,15.8804785 C32.1126464,7.2591388 39.1577954,0.371350753 48.0452102,0.371350753 C52.8524017,0.371350753 57.269423,2.48517684 60.3447741,6.11831543 C63.1955932,9.53542956 63.8102954,13.0061035 63.9225613,17.2908861 L36.249923,17.2908861 Z" id="Fill-7" fill="#AE1E2F"></path>
                        <path d="M92.8054634,15.9345739 C92.8054634,9.48062005 87.4387826,4.22104939 80.7874847,4.22104939 C74.0791336,4.22104939 68.5449741,9.04857113 68.5449741,15.6096445 C68.5449741,18.8625086 69.3823677,21.574419 71.7859634,23.9060548 C74.0791336,26.239476 77.2096975,27.5409787 80.50774,27.5409787 C87.3283571,27.5409787 92.8054634,22.6045521 92.8054634,15.9345739 Z M68.6001868,1.02174505 L68.6001868,6.11885102 C71.0037826,2.26968798 76.3723039,0.371886351 80.7874847,0.371886351 C85.2597188,0.371886351 89.3969954,2.0518782 93.30974,6.11885102 C95.1538464,7.74528309 96.94274,11.6497912 96.94274,15.989919 C96.94274,24.8290684 89.2847294,31.3901418 80.3954741,31.3901418 C75.8680273,31.3901418 70.8381443,29.2745304 68.8247188,25.1539978 L68.8247188,41.0969597 L64.6874422,41.0969597 L64.6874422,1.02174505 L68.6001868,1.02174505 Z" id="Fill-9" fill="#231F20"></path>
                    </g>
                </g>
            </g>
            <g id="Page-1-Copy-2" transform="translate(2.000000, 1.000000)">
                <polygon id="Fill-1" fill="#FEFEFE" points="0 79 170 79 170 0 0 0"></polygon>
                <g id="Group-54" transform="translate(18.969957, 28.266055)">
                    <path d="M24.1639236,11.5340016 C24.1639236,17.8536225 18.8340061,22.9748148 12.2608641,22.9748148 C5.68772209,22.9748148 0.357804615,17.8536225 0.357804615,11.5340016 C0.357804615,5.21612257 5.68772209,0.0931883903 12.2608641,0.0931883903 C18.8340061,0.0931883903 24.1639236,5.21612257 24.1639236,11.5340016" id="Fill-2" fill="#231F20"></path>
                    <path d="M58.9667805,11.5340016 C58.9667805,17.8536225 53.6386753,22.9748148 47.063721,22.9748148 C40.490579,22.9748148 35.1606615,17.8536225 35.1606615,11.5340016 C35.1606615,5.21612257 40.490579,0.0931883903 47.063721,0.0931883903 C53.6386753,0.0931883903 58.9667805,5.21612257 58.9667805,11.5340016" id="Fill-4" fill="#231F20"></path>
                    <path d="M41.7700492,11.5340016 C41.7700492,17.8536225 36.441944,22.9748148 29.8669897,22.9748148 C23.2938477,22.9748148 17.9639302,17.8536225 17.9639302,11.5340016 C17.9639302,5.21612257 23.2938477,0.0931883903 29.8669897,0.0931883903 C36.441944,0.0931883903 41.7700492,5.21612257 41.7700492,11.5340016" id="Fill-6" fill="#F37421"></path>
                    <path d="M25.4640538,2.49858105 C27.0081169,1.79485258 28.6210467,1.45343977 30.4442011,1.45343977 C35.1235098,1.45343977 39.1721448,4.04887395 41.116722,7.82531777" id="Stroke-8" stroke="#7A7E7D" stroke-width="0.106" stroke-linecap="round" stroke-linejoin="round"></path>
                    <path d="M25.4018925,2.53411585 C26.7121715,1.36181571 27.9427101,0.748666163 29.6680013,0.410737149 C30.0956995,0.327125847 30.5161486,0.234805034 30.9402223,0.187773676" id="Stroke-10" stroke="#7A7E7D" stroke-width="0.106" stroke-linecap="round" stroke-linejoin="round"></path>
                    <path d="M25.447562,2.49614238 C23.8563796,3.09361482 22.3304393,4.02901626 21.0817779,5.30234672 C17.8686042,8.57538083 17.0548902,13.1879377 18.5790182,17.1385717" id="Stroke-12" stroke="#7A7E7D" stroke-width="0.106" stroke-linecap="round" stroke-linejoin="round"></path>
                    <path d="M25.447562,2.51199369 C23.9161848,3.58500541 22.6149673,5.01510706 21.6145884,6.71868735 C19.0429621,11.0978293 19.345613,16.2556015 21.9498603,20.0686253" id="Stroke-14" stroke="#7A7E7D" stroke-width="0.106" stroke-linecap="round" stroke-linejoin="round"></path>
                    <path d="M25.4948625,2.48830382 C27.4394397,2.35243546 29.4927537,2.53707708 31.4681397,3.25822457 C36.2398747,4.9983848 39.6741466,7.51020768 40.8865623,12.5791429 C41.252643,14.108533 41.0985992,14.8801956 41.0333571,15.4881194" id="Stroke-16" stroke="#7A7E7D" stroke-width="0.106" stroke-linecap="round"></path>
                    <path d="M37.192047,20.5490419 C37.3605891,20.1780168 37.8299698,19.4359664 37.8789013,18.1765712 C38.063754,13.3410509 34.952068,10.1446605 30.9650505,6.39260327 C29.250633,4.77960189 27.2607488,3.50975524 25.4013489,2.53429004 C25.4013489,2.53429004 25.5680787,3.59685034 26.0882032,4.96075971 C26.6083278,6.32466908 28.4840383,10.9459354 29.0621558,12.3324895 C29.6384611,13.7190436 31.3528786,17.6139368 31.9273716,18.7618503 C32.5399225,19.9916332 33.4333768,21.3607683 34.1582891,22.2073327" id="Stroke-18" stroke="#7A7E7D" stroke-width="0.106" stroke-linecap="round" stroke-linejoin="round"></path>
                    <path d="M30.8425404,0.1339489 C31.4297193,0.442265578 31.8121105,0.907353448 31.9045368,1.51701919 C32.1781912,3.3146622 29.8331,5.67319769 26.6652334,6.78278935 C23.4973668,7.892381 20.7064545,7.33497232 20.4309879,5.53732932 C20.3748072,5.16804607 20.4291756,4.77437618 20.5795949,4.37199679" id="Stroke-20" stroke="#7A7E7D" stroke-width="0.106"></path>
                    <path d="M36.8237915,2.29721716 C37.0648249,2.63514617 37.2297424,3.01488084 37.3131073,3.43816306 C37.9057231,6.46384706 33.9640126,10.4737058 28.51086,12.3897981 C25.3321197,13.5080993 22.3418566,13.6700962 20.2831058,13.0116572" id="Stroke-22" stroke="#7A7E7D" stroke-width="0.106"></path>
                    <path d="M40.9724645,7.51038187 C41.6031381,10.5029697 37.2844733,14.8629508 31.3275067,17.2493567 C26.4017278,19.2229318 21.8982103,19.2281575 20.1312366,17.4792878" id="Stroke-24" stroke="#7A7E7D" stroke-width="0.106"></path>
                    <path d="M41.1219776,15.2500014 C39.6377197,17.4186846 36.8739917,19.623948 33.3092356,21.0087697 C31.0674444,21.8779849 28.7495374,22.2855929 26.9445059,22.2804167" id="Stroke-26" stroke="#7A7E7D" stroke-width="0.106"></path>
                    <path d="M25.4640538,2.49858105 C23.4669205,5.86045217 23.3146889,7.71731984 23.3545591,10.8370666 C23.3908047,13.8052678 24.0812836,18.9125249 27.3452011,21.5009914 C28.5503678,22.4555538 29.5906169,22.9763825 29.5906169,22.9763825" id="Stroke-28" stroke="#7A7E7D" stroke-width="0.106" stroke-linecap="round"></path>
                    <path d="M20.7050047,4.22480606 C20.7050047,4.22480606 22.3632415,2.48812963 25.4640538,2.49858105" id="Stroke-30" stroke="#7A7E7D" stroke-width="0.106" stroke-linecap="round"></path>
                    <path d="M25.4948625,2.48830382 C25.4948625,2.48830382 25.6561555,1.87689618 25.9116871,1.36129314 C26.1726555,0.830012993 26.5423608,0.546082945 26.5423608,0.546082945" id="Stroke-32" stroke="#7A7E7D" stroke-width="0.106" stroke-linecap="round" stroke-linejoin="round"></path>
                    <path d="M23.2418352,2.02548043 C23.2418352,2.02548043 23.6695334,2.06554418 24.1570369,2.14741358 C24.6862229,2.23450868 25.4020738,2.53411585 25.4020738,2.53411585" id="Stroke-34" stroke="#7A7E7D" stroke-width="0.106" stroke-linecap="round" stroke-linejoin="round"></path>
                    <path d="M42.213333,14.3647668 L46.7023523,14.3647668 C47.2569102,14.3647668 47.5178786,14.112191 47.5178786,13.7481334 C47.5178786,12.4591258 42.3601278,12.936407 42.3601278,8.42488049 C42.3601278,5.84686533 44.6907207,4.55785775 46.9053277,4.55785775 L51.4541522,4.55785775 L51.4541522,8.20191701 L47.8096558,8.20191701 C47.2569102,8.20191701 46.8473347,8.48062136 46.8473347,8.8446789 C46.8473347,9.93859344 52.298675,10.2190397 52.298675,13.8874856 C52.298675,16.6623357 50.4918312,18.1760486 47.4308891,18.1760486 L42.213333,18.1760486 L42.213333,14.3647668 Z" id="Fill-36" fill="#FEFEFE"></path>
                    <path d="M25.3480678,2.44719493 C25.3480678,2.44719493 25.2248327,1.75740169 25.181338,1.07283415" id="Stroke-38" stroke="#7A7E7D" stroke-width="0.106" stroke-linecap="round"></path>
                    <path d="M22.2806015,20.3501167 L22.2806015,11.1459058 C22.2806015,6.77547336 26.1878787,4.53364531 30.3253155,4.53364531 C34.8433312,4.53364531 38.109061,7.61507018 38.109061,11.7050564 C38.109061,16.3838055 34.2615891,18.8224685 30.5590997,18.8224685 C29.4517962,18.8224685 28.7232593,18.653504 28.2846874,18.4862814 L28.2846874,14.3388124 C28.6362699,14.5356474 29.218012,14.7324823 30.238326,14.7324823 C32.0451698,14.7324823 33.4442505,13.4713452 33.4442505,11.677186 C33.4442505,9.88476867 32.0451698,8.62363152 30.238326,8.62363152 C28.023719,8.62363152 26.945412,10.1373445 26.945412,12.2380784 L26.945412,22.6267828 C25.2056225,22.2052425 23.619877,21.4161608 22.2806015,20.3501167" id="Fill-40" fill="#231F20"></path>
                    <path d="M21.9574719,20.0825605 L21.9574719,10.8348021 C21.9574719,6.46436964 25.8629367,4.22254159 30.0021858,4.22254159 C34.5202016,4.22254159 37.7859313,7.30396646 37.7859313,11.3956946 C37.7859313,16.0744437 33.9384595,18.5113648 30.23597,18.5113648 C29.1286665,18.5113648 28.3983174,18.3424003 27.9615578,18.1751777 L27.9615578,14.0277087 C28.3131402,14.2245436 28.8948823,14.4213786 29.9151963,14.4213786 C31.7220402,14.4213786 33.1211209,13.1602414 33.1211209,11.3660822 C33.1211209,9.57366494 31.7220402,8.3125278 29.9151963,8.3125278 C27.7005894,8.3125278 26.6204701,9.82624075 26.6204701,11.9269747 L26.6204701,22.5438682 C24.8679947,22.066587 23.2804368,21.2147969 21.9574719,20.0825605" id="Fill-42" fill="#FEFEFE"></path>
                    <path d="M41.7631625,11.5359177 C41.7631625,17.8537967 36.4350573,22.9767309 29.860103,22.9767309 C23.286961,22.9767309 17.9570435,17.8537967 17.9570435,11.5359177 C17.9570435,5.21803866 23.286961,0.0951044827 29.860103,0.0951044827 C36.4350573,0.0951044827 41.7631625,5.21803866 41.7631625,11.5359177 Z" id="Stroke-44" stroke="#7A7E7D" stroke-width="0.178" stroke-linecap="round" stroke-linejoin="round"></path>
                    <path d="M15.4626204,18.1751777 L15.4626204,11.8991043 C15.4626204,9.49005364 14.2973239,8.3125278 12.1678941,8.3125278 C10.4788485,8.3125278 8.96196959,9.57366494 8.96196959,11.2824709 C8.96196959,13.3570764 10.5368415,14.4213786 12.0519082,14.4213786 C12.9852327,14.4213786 13.7717625,14.2245436 14.2973239,14.0277087 L14.2973239,17.7275088 C13.4219923,18.3162718 12.4306748,18.5113648 11.1203959,18.5113648 C8.14644329,18.5113648 4.29897141,16.0744437 4.29897141,11.3956946 C4.29897141,7.30396646 7.56288891,4.22254159 12.0809046,4.22254159 C16.4829344,4.22254159 20.1274309,6.5201105 20.1274309,10.8348021 L20.1274309,18.1751777 L15.4626204,18.1751777 Z" id="Fill-46" fill="#FEFEFE"></path>
                    <path d="M41.0166841,15.2026217 C39.5324262,17.3712966 36.7686982,19.5765515 33.2039421,20.961368 C30.9621509,21.8305799 28.6442439,22.2381863 26.8392124,22.2347246" id="Stroke-48" stroke="#7A7E7D" stroke-width="0.106"></path>
                    <path d="M131.224223,3.36012584 L95.573038,18.112295 C91.7364398,19.7009098 85.706982,21.5333908 83.1534785,17.6646262 C81.7344627,15.5168608 82.6007329,12.1567316 84.6504223,9.07356484 C85.9570767,7.10695733 87.6388732,5.30234672 89.3279188,3.49947801 C88.3837205,4.96790151 85.7812855,9.89922645 89.2717381,12.3135028 C90.6327608,13.25413 93.0122854,13.3377413 95.9626783,12.5678205 L131.224223,3.36012584 Z" id="Fill-50" fill="#F37421"></path>
                    <path d="M69.6083115,0.0588729183 L69.6083115,23.1164315" id="Stroke-52" stroke="#7A7E7D" stroke-width="0.192"></path>
                </g>
            </g>
            <g id="Group-17" transform="translate(2.000000, 1.000000)">
                <g id="Page-1">
                    <polygon id="Fill-1" fill="#FEFEFE" points="0 79 161.237305 79 161.237305 0 0 0"></polygon>
                    <g id="Group-8" transform="translate(29.474838, 23.100472)" fill="#EE3D3D">
                        <path d="M6.50110737,0.362169332 L0.0246442105,0.362169332 L0.0246442105,3.59636528 L13.0913811,3.59636528 C12.1486863,1.3861149 9.65988632,0.362169332 6.50110737,0.362169332 Z M12.6490232,8.6598086 L0.0246442105,8.6598086 L0.0246442105,5.43860139 L13.4907916,5.43860139 C13.4993811,5.56632399 13.5036758,5.69404658 13.5015284,5.82176918 C13.4907916,7.02106273 13.2051916,7.94542797 12.6490232,8.6598086 Z M0.0246442105,10.5042095 L0.0246442105,13.7210871 L11.7900758,13.7210871 L9.82308632,10.5042095 L0.0246442105,10.5042095 Z M0.0246442105,15.5633232 L12.9195916,15.5633232 L14.9059074,18.8040136 L0.0246442105,18.8040136 L0.0246442105,15.5633232 Z" id="Fill-2"></path>
                        <path d="M24.4170316,24.1928248 L22.8236842,24.1928248 L21.9647368,23.1061003 L23.2188,23.1061003 L23.6353895,23.7360541 L24.0283579,23.1061003 L25.3017474,23.1061003 L24.4170316,24.1928248 Z M56.2947158,28.8536172 C56.2947158,29.5723274 56.0520632,30.3624757 55.2081474,30.3624757 C54.3835579,30.3624757 54.1237263,29.6004697 54.1237263,28.9012426 C54.1237263,28.1846971 54.4007368,27.4768109 55.2274737,27.4768109 C56.0348842,27.4768109 56.2947158,28.165214 56.2947158,28.8536172 Z M57.6948,28.9099017 C57.6948,27.4659869 56.7671368,26.3770977 55.2940421,26.3770977 C53.7329053,26.3770977 52.7236421,27.3923841 52.7236421,28.9575271 C52.7236421,30.4382433 53.6598947,31.4795072 55.1609053,31.4795072 C56.6554737,31.4795072 57.6948,30.3992771 57.6948,28.9099017 Z M52.4981684,27.6911251 L52.4981684,26.4420414 C52.4165684,26.4333822 52.3414105,26.4225583 52.2576632,26.4225583 C51.6091579,26.4225583 51.2484,26.7039809 51.0164842,27.3079573 L51.0164842,26.517809 L49.6808211,26.517809 L49.6808211,31.3409607 L51.0830526,31.3409607 L51.0830526,29.7671585 C51.0830526,29.5268668 51.0830526,29.2735864 51.0894947,29.03113 C51.1088211,28.2496408 51.2226316,27.6629828 52.1760632,27.6629828 C52.2855789,27.6629828 52.3908,27.671642 52.4981684,27.6911251 Z M42.0726947,31.3409607 L40.0906737,28.340562 L41.946,26.517809 L40.1722737,26.517809 L38.6884421,28.165214 L38.6884421,24.7664941 L37.3248632,24.7664941 L37.3248632,31.3409607 L38.6884421,31.3409607 L38.6884421,29.741181 L39.1350947,29.2909047 L40.3419158,31.3409607 L42.0726947,31.3409607 Z M36.6183789,29.8602444 C36.6183789,28.650127 35.4330316,28.433648 34.5053684,28.2409817 C34.2541263,28.1846971 33.6893684,28.1197535 33.6893684,27.7733871 C33.6893684,27.4291855 34.0973684,27.3837249 34.3572,27.3837249 C34.6170316,27.3837249 34.9133684,27.4768109 35.0808632,27.6911251 C35.1538737,27.784211 35.1796421,27.970383 35.2011158,28.082952 L36.4809474,28.0158435 C36.4251158,26.8338683 35.4330316,26.3770977 34.3765263,26.3770977 C33.4037684,26.3770977 32.3708842,26.7667598 32.3708842,27.9032745 C32.3708842,29.8321022 35.2290316,29.1350399 35.2290316,29.998791 C35.2290316,30.3819588 34.8382105,30.4469025 34.5418737,30.4469025 C33.9320211,30.4469025 33.6056211,30.2693897 33.5218737,29.6459303 L32.2248632,29.6913908 C32.2248632,29.8515853 32.2334526,29.9814727 32.2721053,30.1395023 C32.5126105,31.1353056 33.5304632,31.4795072 34.4495368,31.4795072 C35.4974526,31.4795072 36.6183789,31.1071634 36.6183789,29.8602444 Z M30.3867158,28.2864423 L28.4691158,28.2864423 C28.6151368,27.7365857 28.9136211,27.4573278 29.4955579,27.4573278 C29.9873053,27.4573278 30.3416211,27.8015294 30.3867158,28.2864423 Z M31.8254526,29.3298709 L31.8254526,29.0960736 C31.8254526,27.6066983 31.0652842,26.3770977 29.4612,26.3770977 C27.9859579,26.3770977 27.0303789,27.48547 27.0303789,28.9293848 C27.0303789,30.4101011 27.9387158,31.4795072 29.4612,31.4795072 C30.5177053,31.4795072 31.4238947,30.977276 31.7696211,29.9446712 L30.3974526,29.8515853 C30.1913053,30.21527 29.9207368,30.3624757 29.4955579,30.3624757 C28.8663789,30.3624757 28.5399789,29.9251881 28.4583789,29.3298709 L31.8254526,29.3298709 Z M26.7318947,29.1415342 L25.2008211,29.0397891 C25.1900842,29.7844768 24.4964842,30.2520714 23.8007368,30.2520714 C23.4292421,30.2520714 23.0749263,30.1286784 22.7893263,29.8970459 C22.2353053,29.4316161 22.1214947,28.6955875 22.1214947,28.0158435 C22.1214947,26.9269543 22.5595579,25.8467242 23.8007368,25.8467242 C24.3096632,25.8467242 24.7649053,26.0415553 25.0247368,26.5069851 C25.0827158,26.6195541 25.1364,26.7299584 25.1664632,26.8533514 L26.6395579,26.7516063 C26.6202316,26.5914119 26.5751368,26.4528653 26.5278947,26.3034948 C26.1370737,25.1388379 24.9796421,24.6084644 23.8179158,24.6084644 C21.7693263,24.6084644 20.5345895,26.013413 20.5345895,28.0245027 C20.5345895,29.4034738 21.1852421,30.7543026 22.5123158,31.276017 C22.9203158,31.4340466 23.3626737,31.4903312 23.8007368,31.4903312 C24.8679789,31.4903312 25.8622105,31.0985042 26.4076421,30.1395023 C26.5837263,29.8321022 26.6953895,29.4879006 26.7318947,29.1415342 Z M73.4178316,29.7758176 C73.1859158,30.1763038 72.75,30.3992771 72.2947579,30.3992771 C71.9812421,30.3992771 71.6548421,30.2499066 71.6548421,29.8862219 C71.6548421,29.2627625 72.6490737,29.2541033 73.0849895,29.1415342 C73.1966526,29.113392 73.3061684,29.0765905 73.4178316,29.03113 L73.4178316,29.7758176 Z M74.7728211,28.6566213 C74.7728211,28.2669592 74.7921474,27.7062786 74.6439789,27.3425939 C74.2918105,26.5048203 73.3920632,26.3727681 72.5910947,26.3727681 C71.5088211,26.3727681 70.6069263,26.8403627 70.5425053,28.041821 L71.8030105,28.041821 C71.7836842,27.5677321 72.2689895,27.4356799 72.6490737,27.4356799 C72.9368211,27.4356799 73.3813263,27.5114475 73.3813263,27.8837914 C73.3813263,28.2301577 72.8809895,28.2474761 72.6404842,28.2842775 C71.5990105,28.433648 70.2740842,28.5548762 70.2740842,29.9251881 C70.2740842,30.9015083 71.0170737,31.4795072 71.9425895,31.4795072 C72.6297474,31.4795072 72.9282316,31.276017 73.4543368,30.9015083 L73.4650737,31.3387959 L74.7728211,31.3387959 L74.7728211,28.6566213 Z M79.8492,29.864574 C79.8492,28.6544565 78.6617053,28.4401423 77.7340421,28.2453113 C77.4828,28.1890267 76.9180421,28.124083 76.9180421,27.7798815 C76.9180421,27.4356799 77.3238947,27.3880545 77.5837263,27.3880545 C77.8435579,27.3880545 78.1441895,27.4811405 78.3073895,27.6954547 C78.3846947,27.7885406 78.4104632,27.9747125 78.4297895,28.0872816 L79.7096211,28.0223379 C79.6537895,26.8381979 78.6617053,26.3814273 77.6030526,26.3814273 C76.6281474,26.3814273 75.5995579,26.7732542 75.5995579,27.9097688 C75.5995579,29.8364318 78.4577053,29.1393694 78.4577053,30.0052854 C78.4577053,30.3862884 78.0690316,30.4512321 77.7684,30.4512321 C77.1585474,30.4512321 76.8321474,30.2758841 76.7505474,29.6502598 L75.4492421,29.6978852 C75.4492421,29.8559149 75.4599789,29.9858023 75.4986316,30.1438319 C75.7391368,31.1418 76.7612842,31.4860016 77.6782105,31.4860016 C78.7261263,31.4860016 79.8492,31.1136577 79.8492,29.864574 Z M68.1997263,31.3452902 L69.5611579,31.3452902 L69.5611579,24.7708236 L68.1997263,24.7708236 L68.1997263,31.3452902 Z M65.8870105,31.3452902 L65.8870105,28.6457974 C65.8870105,28.3383972 65.9063368,27.9638886 65.6593895,27.74308 C65.5262526,27.619687 65.3501684,27.5742264 65.1719368,27.5742264 C64.9679368,27.5742264 64.8025895,27.630511 64.6458316,27.7603983 C64.3194316,28.0309971 64.3409053,28.4877677 64.3409053,28.8687707 L64.3409053,31.3452902 L62.9859158,31.3452902 L62.9859158,24.7708236 L64.3409053,24.7708236 L64.3409053,27.0157107 C64.5513474,26.6325429 65.2385053,26.4095695 65.6486526,26.4095695 C65.9621684,26.4095695 66.3422526,26.4939963 66.6020842,26.6801682 C67.1582526,27.0806544 67.2527368,27.619687 67.2527368,28.2647944 L67.2527368,31.3452902 L65.8870105,31.3452902 Z M58.0319368,31.3452902 L58.0319368,30.3213447 L60.4069263,27.6586532 L58.2982105,27.6586532 L58.2982105,26.5221386 L62.1033474,26.5221386 L62.1033474,27.630511 L59.8013684,30.2109404 L62.2622526,30.2109404 L62.2622526,31.3452902 L58.0319368,31.3452902 Z M45.9830526,24.4850714 L44.3489053,24.4850714 L43.6832211,25.8770312 L44.7418737,25.8770312 L45.9830526,24.4850714 Z M46.5585474,26.517809 L45.1112211,26.517809 L44.3124,29.7671585 L43.4405684,26.517809 L41.9567368,26.517809 L43.3460842,30.4295842 C43.4212421,30.6417336 43.5436421,30.88419 43.5436421,31.1179873 C43.5436421,31.276017 43.4684842,31.5076495 43.3374947,31.6093946 C43.2086526,31.7154693 42.9209053,31.7327876 42.7641474,31.7327876 C42.6417474,31.7327876 42.5236421,31.7219637 42.4012421,31.7219637 L42.4012421,32.8043586 C42.5236421,32.8043586 42.6417474,32.8216769 42.7641474,32.8216769 C43.3568211,32.8216769 44.1084,32.8606431 44.5142526,32.3475879 C44.7139579,32.0964723 44.8707158,31.6093946 44.9694947,31.3041592 L46.5585474,26.517809 Z" id="Fill-4"></path>
                        <path d="M28.4119958,9.47831562 C28.4119958,10.2619695 28.0426484,10.9287248 27.3211326,11.2621024 C26.8508589,11.4764166 26.1314905,11.4764166 25.6225642,11.4764166 C25.0771326,11.4764166 24.5102274,11.4569335 23.9626484,11.4569335 L23.9626484,7.49969775 L25.4679537,7.49969775 C26.3634063,7.49969775 27.3791116,7.46073153 28.0039958,8.24438544 C28.2767116,8.59724617 28.4119958,9.02803934 28.4119958,9.47831562 Z M30.6581432,12.3185198 C31.28088,11.5153828 31.5149432,10.4589654 31.5149432,9.45883251 C31.5149432,8.77259414 31.3775116,7.96945713 31.0876168,7.34383288 C30.0933853,5.26779947 28.2380589,4.97338806 26.1508168,4.97338806 L20.8425221,4.97338806 L20.8425221,18.80423 L23.9626484,18.80423 L23.9626484,14.0243742 L25.9339326,14.0243742 L26.0413011,14.0243742 L28.91448,18.80423 L32.3695958,18.80423 L29.2043747,13.5329669 C29.7326274,13.2796865 30.2179326,12.9008483 30.6581432,12.3185198 Z M118.655154,4.54259489 L115.440543,4.54259489 L114.132796,7.27239482 L116.217891,7.27239482 L118.655154,4.54259489 Z M116.711785,13.9551009 C116.473427,14.0525164 116.241512,14.1326137 116.009596,14.1888982 C115.092669,14.4248603 113.007575,14.4443434 113.007575,15.7540412 C113.007575,16.5160472 113.690438,16.8299417 114.351827,16.8299417 C115.305259,16.8299417 116.222185,16.3601824 116.711785,15.5180791 L116.711785,13.9551009 Z M119.552754,18.80423 L116.808417,18.80423 L116.786943,17.8863592 C115.678901,18.6678483 115.054017,19.0964767 113.61528,19.0964767 C111.665469,19.0964767 110.108627,17.8863592 110.108627,15.8319736 C110.108627,12.9592976 112.891617,12.7038524 115.073343,12.3921227 C115.580122,12.3120255 116.630185,12.275224 116.630185,11.5500194 C116.630185,10.7685303 115.69608,10.6105007 115.092669,10.6105007 C114.293848,10.6105007 113.280291,10.885429 113.318943,11.8833971 L110.671238,11.8833971 C110.806522,9.35925218 112.698354,8.38076719 114.976712,8.38076719 C116.649512,8.38076719 118.539196,8.6556955 119.282185,10.4156696 C119.591406,11.1776756 119.552754,12.3509917 119.552754,13.1736118 L119.552754,18.80423 Z M80.2945642,18.8085596 L80.2945642,16.4229613 L75.1322905,16.4229613 L79.9660168,11.0044924 L79.9660168,8.67734339 L71.9756589,8.67734339 L71.9756589,11.0629417 L76.3992379,11.0629417 L71.4130484,16.6567586 L71.4130484,18.8085596 L80.2945642,18.8085596 Z M79.1070695,4.55991321 L76.9060168,4.55991321 L75.9139326,6.03846464 L74.9562063,4.55991321 L72.7938063,4.55991321 L74.6319537,7.28971314 L77.1121642,7.28971314 L79.1070695,4.55991321 Z M121.590606,18.8085596 L124.457343,18.8085596 L124.457343,4.99503596 L121.590606,4.99503596 L121.590606,18.8085596 Z M105.805301,18.8085596 L105.805301,12.8423989 C105.805301,11.8617492 105.433806,10.9049121 104.302143,10.9049121 C103.874817,10.9049121 103.462522,11.0802601 103.153301,11.3746715 C102.470438,12.0392619 102.567069,13.03723 102.567069,13.9161347 L102.567069,18.8085596 L99.6831537,18.8085596 L99.6831537,8.67301381 L102.489764,8.67301381 L102.489764,9.84632988 C103.189806,8.94577733 104.10888,8.43921652 105.277048,8.43921652 C106.037217,8.43921652 106.797385,8.6340476 107.400796,9.10380698 C108.551785,9.98487643 108.747196,11.2166418 108.747196,12.5869538 L108.747196,18.8085596 L105.805301,18.8085596 Z M97.9674063,11.0802601 C95.9617642,11.0802601 95.7277011,12.3120255 95.6869011,13.9551009 C95.6675747,14.4659913 95.6675747,14.9942 95.6675747,15.5029256 L95.6675747,18.8085596 L92.7235326,18.8085596 L92.7235326,8.67301381 L95.5322905,8.67301381 L95.5322905,10.3355724 C96.0197432,9.06267598 96.7799116,8.47601794 98.1434905,8.47601794 C98.3174274,8.47601794 98.4741853,8.49550105 98.6502695,8.51714895 L98.6502695,11.1387094 C98.4140589,11.0997432 98.2014695,11.0802601 97.9674063,11.0802601 Z M88.0057642,18.8085596 L88.0057642,17.6936929 C87.4410063,18.6137285 86.1740589,19.0640048 85.1411747,19.0640048 C84.5399116,19.0640048 83.8957011,18.9665893 83.3502695,18.6526947 C81.8492589,17.8105915 81.7719537,16.1285498 81.7719537,14.5828899 L81.7719537,8.67301381 L84.6365432,8.67301381 L84.6365432,14.4854744 C84.6365432,15.6003411 84.85128,16.6762417 86.2148589,16.6762417 C87.6578905,16.6762417 87.91128,15.5224087 87.91128,14.3469279 C87.91128,13.8988164 87.9499326,13.4658584 87.9499326,13.0177469 L87.9499326,8.67301381 L90.7372168,8.67301381 L90.7372168,18.8085596 L88.0057642,18.8085596 Z M65.4175958,10.6884331 C63.6825221,10.6884331 63.0962905,12.1756437 63.0962905,13.6823374 C63.0962905,15.1500649 63.6438695,16.7541741 65.3789432,16.7541741 C67.1505221,16.7541741 67.6594484,15.0916155 67.6594484,13.5827571 C67.6594484,12.1366775 67.1118695,10.6884331 65.4175958,10.6884331 Z M65.2823116,19.102971 C62.1213853,19.102971 60.1543958,16.9122038 60.1543958,13.799236 C60.1543958,10.5109203 62.2802905,8.3786024 65.5550274,8.3786024 C68.65368,8.3786024 70.6034905,10.66895 70.6034905,13.7018205 C70.6034905,16.8321065 68.4196168,19.102971 65.2823116,19.102971 Z M55.8467747,18.8085596 L58.6941853,18.8085596 L58.6941853,8.67084902 L55.8467747,8.67084902 L55.8467747,18.8085596 Z M55.8467747,7.59711329 L58.6941853,7.59711329 L58.6941853,4.99287117 L55.8467747,4.99287117 L55.8467747,7.59711329 Z M39.4752379,15.5202439 C38.9899326,16.3623471 38.0751537,16.8321065 37.1195747,16.8321065 C36.4538905,16.8321065 35.7710274,16.5203768 35.7710274,15.756206 C35.7710274,14.4443434 37.8604168,14.4248603 38.7773432,14.1888982 C39.0092589,14.1326137 39.2433221,14.0525164 39.4752379,13.9551009 L39.4752379,15.5202439 Z M42.3226484,13.171447 C42.3226484,12.3488269 42.3634484,11.1755108 42.05208,10.4135048 C41.3090905,8.64920113 39.4194063,8.37643761 37.7423116,8.37643761 C35.4596589,8.37643761 33.5699747,9.3549226 33.4303958,11.8812323 L36.0866905,11.8812323 C36.0480379,10.8810994 37.0615958,10.6083359 37.8604168,10.6083359 C38.46168,10.6083359 39.40008,10.7642008 39.40008,11.5478547 C39.40008,12.2708944 38.3457221,12.3098607 37.8410905,12.3877931 C35.6550695,12.7016876 32.8677853,12.9571328 32.8677853,15.8341384 C32.8677853,17.8885239 34.4267747,19.102971 36.3765853,19.102971 C37.8217642,19.102971 38.4445011,18.6721779 39.5546905,17.8885239 L39.5761642,18.8085596 L42.3247958,18.8085596 L42.3226484,13.171447 Z M50.8970905,13.799236 C50.8970905,15.1305818 50.5470695,16.6762417 48.9279537,16.6762417 C47.2723326,16.6762417 46.8643326,15.0916155 46.8643326,13.7018205 C46.8643326,12.4310889 47.3517853,10.7880134 48.8914484,10.7880134 C50.5663958,10.7880134 50.8970905,12.4310889 50.8970905,13.799236 Z M53.7037011,18.8085596 L53.7037011,4.99503596 L50.7983116,4.99503596 L50.7983116,9.33760428 C50.1004168,8.75094625 49.2994484,8.41973341 48.3846695,8.41973341 C45.3246695,8.41973341 43.9396168,11.0802601 43.9396168,13.840367 C43.9396168,16.4207965 45.3805011,19.0640048 48.2493853,19.0640048 C49.2801221,19.0640048 50.3323326,18.7522751 50.9185642,17.8322394 L50.9185642,18.8085596 L53.7037011,18.8085596 Z" id="Fill-6"></path>
                    </g>
                </g>
            </g>
            <g id="Group-9" transform="translate(-2.000000, -4.000000)">
                <g id="Page-1">
                    <polygon id="Fill-1" fill="#204164" points="0.00396083916 0.0291990847 0.00396083916 88.1402975 101.818124 88.1402975 126.127378 0.0291990847"></polygon>
                    <polygon id="Fill-2" fill="#E30F2E" points="121.116283 0.0291990847 96.239044 88.1402975 176.676558 88.1402975 176.676558 0.0291990847"></polygon>
                    <polygon id="Fill-3" fill="#FEFEFE" points="25.5337873 41.2086613 25.5337873 54.303627 22.3944262 54.303627 22.3944262 41.2086613 18.1571204 41.2086613 18.1571204 38.5007666 29.7734695 38.5007666 29.7734695 41.2086613"></polygon>
                    <polygon id="Fill-4" fill="#FEFEFE" points="43.5030055 38.5007666 37.8992103 54.303627 34.4461507 54.303627 28.839979 38.5007666 32.0244937 38.5007666 36.1714923 50.4424142 36.2166458 50.4424142 40.3184909 38.5007666"></polygon>
                    <polygon id="Fill-5" fill="#FEFEFE" points="53.0377752 49.6747368 56.1795128 49.6747368 56.1795128 52.9040275 53.579618 54.4153547 47.2319772 54.4153547 44.6320823 52.9040275 44.6320823 39.9003661 47.2319772 38.3866362 53.579618 38.3866362 56.1795128 39.9003661 56.1795128 43.1296568 53.0377752 43.1296568 53.0377752 41.0969336 47.769067 41.0969336 47.769067 51.70746 53.0377752 51.70746"></polygon>
                    <path d="M61.9605952,51.7086613 L67.9042305,51.7086613 L67.9042305,41.098135 L61.9605952,41.098135 L61.9605952,51.7086613 Z M71.0412151,52.9028261 L68.4389438,54.4165561 L61.4235055,54.4165561 L58.8188576,52.9028261 L58.8188576,39.8991648 L61.4235055,38.3878375 L68.4389438,38.3878375 L71.0412151,39.8991648 L71.0412151,52.9028261 Z" id="Fill-6" fill="#FEFEFE"></path>
                    <polygon id="Fill-7" fill="#FEFEFE" points="87.83145 54.3041076 87.83145 43.8737872 87.7839199 43.8737872 84.2429297 54.3041076 81.2604178 54.3041076 77.6956625 43.7392334 77.650509 43.7392334 77.650509 54.3041076 74.62522 54.3041076 74.62522 38.5012471 78.7959837 38.5012471 82.7409795 50.128135 82.786133 50.128135 86.7097403 38.5012471 90.8567389 38.5012471 90.8567389 54.3041076"></polygon>
                    <polygon id="Fill-8" fill="#FEFEFE" points="124.906568 54.3041076 122.306673 52.7903776 122.306673 37.8236728 125.377116 37.8236728 125.377116 51.6634897 127.620535 51.6634897 127.620535 54.3041076"></polygon>
                    <path d="M130.09495,54.303627 L133.165393,54.303627 L133.165393,43.0155263 L130.09495,43.0155263 L130.09495,54.303627 Z M129.985631,40.9155263 L133.279465,40.9155263 L133.279465,37.8231922 L129.985631,37.8231922 L129.985631,40.9155263 Z" id="Fill-9" fill="#FEFEFE"></path>
                    <polygon id="Fill-10" fill="#FEFEFE" points="138.026769 43.0150458 140.607651 50.4203089 140.652805 50.4203089 143.250323 43.0150458 146.323142 43.0150458 142.176144 54.3031465 139.103325 54.3031465 134.956326 43.0150458"></polygon>
                    <path d="M150.49961,47.4870366 L153.660359,47.4870366 L153.660359,45.5432151 L150.49961,45.5432151 L150.49961,47.4870366 Z M156.730802,51.6630092 L156.730802,54.303627 L150.029062,54.303627 L147.429167,52.7922998 L147.429167,44.4139245 L150.029062,42.9025973 L154.130907,42.9025973 L156.730802,44.4139245 L156.730802,49.810492 L150.49961,49.810492 L150.49961,51.6630092 L156.730802,51.6630092 Z" id="Fill-11" fill="#FEFEFE"></path>
                </g>
            </g>
            <g id="Group-21" transform="translate(-9.000000, -7.000000)">
                <g id="Page-1">
                    <polygon id="Fill-1" fill="#FEFEFE" points="0.686658603 93.972909 188.686659 93.972909 188.686659 0.395766669 0.686658603 0.395766669"></polygon>
                    <g id="Group-22" transform="translate(40.154656, 32.476784)">
                        <path d="M15.6338651,23.4543703 C15.7694263,23.6769649 15.6922317,26.6781541 15.6922317,26.9352892 L24.5413613,26.9352892 L24.5413613,22.7328568 C24.1158499,22.7328568 22.8317848,22.8268838 22.5493657,22.6848838 L22.538069,0.223937838 L12.8040265,0.208586486 L12.8096748,4.47050541 L15.1819947,4.47818108 L15.1782291,10.5342892 C15.1386904,10.7146676 15.1801119,10.6263973 15.0840894,10.7357757 C14.5305481,9.0951 12.6571686,8.06655946 11.0078414,7.72882973 C8.99513516,7.32201892 6.69247868,7.52734324 5.01302686,8.37166757 C1.91583152,9.93174865 0.481142854,13.5431541 0.654359858,18.2080459 C0.818162895,22.6676135 2.41288901,26.0641 5.91676775,27.1271811 C7.83909994,27.7086135 10.1925918,27.6702351 12.0490263,27.0216405 C12.999837,26.6896676 13.6983534,26.2022622 14.2443635,25.6476946 C14.8299123,25.0585865 15.1443388,24.5347216 15.4625309,23.7556405 L15.5547878,23.556073 C15.5604362,23.5483973 15.5736157,23.5292081 15.5754985,23.5215324 L15.6338651,23.4543703 Z" id="Fill-2" fill="#0086C8"></path>
                        <path d="M84.2065232,4.47990811 L86.351025,4.47990811 L86.3547906,22.7038811 L84.1745157,22.7038811 L84.1782813,26.9792324 L95.2095685,26.9792324 L95.2265136,22.9053676 L93.7334584,22.9053676 L93.7033337,21.2762054 C93.7504035,21.0843135 96.5068132,19.0157189 96.6950926,18.8813946 C96.9229106,19.1500432 99.1690833,22.7173135 99.2161531,22.9053676 L97.1431974,22.9053676 C97.1431974,23.8475568 97.101776,26.1924757 97.156377,26.9792324 L108.345819,26.9792324 L108.358998,22.7038811 L106.543986,22.7038811 L105.378536,20.8233405 C104.544459,19.5664486 103.827114,18.2865297 102.996803,17.0449892 L101.810643,15.1529351 C102.243685,14.9073135 102.836765,14.6425027 103.309346,14.4314216 L107.939136,12.2361784 L107.93537,8.09131351 L95.9043193,8.08555676 L95.8930226,12.1459892 L99.016577,12.1670973 C98.9638588,12.4990703 98.6437839,12.5719892 98.423497,12.7216649 L96.4051424,14.0936919 C95.9626859,14.3968811 93.9932839,15.7804216 93.7089821,15.9051514 L93.7033337,0.21607027 L84.1782813,0.206475676 C84.1613361,0.866583784 84.0766104,4.12107027 84.2065232,4.47990811" id="Fill-4" fill="#0086C8"></path>
                        <path d="M54.5384042,11.7917568 L54.5384042,8.08632432 L45.6930403,8.08632432 L45.6930403,12.3616757 L47.8864947,12.3655135 L47.8864947,22.6873784 L45.7062198,22.7046486 L45.6968059,26.9761622 L56.8711854,26.98 L56.8768338,22.7315135 L55.2463346,22.7008108 L55.2463346,16.259 C55.2463346,15.2189459 55.2388034,14.2805946 55.7584544,13.5514054 C56.7582178,12.141 59.1550139,12.0450541 60.1077075,13.4285946 C60.6179445,14.1788919 60.5991166,15.1537027 60.5991166,16.2014324 L60.5991166,22.7046486 L58.8029316,22.7065676 L58.799166,26.9646486 L69.8944682,26.98 L69.9019994,22.7295946 L67.9476597,22.7008108 L67.9476597,14.4302703 C67.9476597,11.9778919 67.7970362,10.0474595 65.6167613,8.54686486 C63.9128332,7.37248649 61.060401,7.29189189 58.8650637,7.91362162 C57.3418838,8.3472973 56.072881,9.19162162 55.2613969,10.4561892 L54.7455115,11.4655405 C54.6645514,11.6900541 54.6645514,11.7284324 54.5384042,11.7917568" id="Fill-6" fill="#0086C8"></path>
                        <path d="M44.2888529,21.4723189 L37.4919682,21.4723189 C37.2321427,21.9942649 37.1775417,22.7042649 36.3189879,23.151373 C35.652479,23.5006162 34.6376533,23.5620216 33.8732391,23.2972108 C32.4743235,22.8155622 32.0243359,21.1288324 32.0393982,19.3365622 L44.6710599,19.3327243 C44.5505612,13.4416432 43.6656482,8.65777838 36.983614,7.68488649 C30.7402707,6.7734 26.2648705,9.56734595 25.1521395,14.7656973 C24.5778875,17.4752108 24.9111419,20.8006973 26.0916535,22.938373 C27.1855565,24.9186973 28.8687739,26.4192919 31.5555203,27.127373 C34.8278154,27.9947243 40.6287022,27.6051838 42.7694385,24.7997243 C43.3813464,24.0014541 44.3340399,22.6025622 44.2888529,21.4723189" id="Fill-8" fill="#0086C8"></path>
                        <polygon id="Fill-10" fill="#0086C8" points="71.3005384 12.3785622 73.4732821 12.3651297 73.4732821 22.6927514 71.29489 22.7042649 71.2835933 26.9700216 82.7611026 26.9815351 82.7836961 22.7042649 80.8519499 22.7100216 80.7898178 8.11088649 71.3005384 8.11088649"></polygon>
                        <path d="M11.0014399,12.1137514 C9.74185107,12.3459405 9.03015512,13.1672378 8.64229966,14.2994 C8.23373346,15.5006432 8.14524217,17.0357784 8.19796038,18.3847784 C8.2506786,19.743373 8.49544176,21.0290486 9.17889581,21.9290216 C9.80586605,22.7484 11.0108539,23.293373 12.5189715,22.8923189 C14.7500818,22.3012919 15.4730746,19.4670486 15.3299822,16.6711838 C15.2603189,15.2243189 14.9421268,14.1669946 14.2511416,13.2363189 C13.6938347,12.476427 12.4398942,11.8451027 11.0014399,12.1137514" id="Fill-12" fill="#FEFEFE"></path>
                        <path d="M72.3353217,6.40822973 L75.8128414,6.4255 C76.1894001,6.40247297 76.5716071,5.91890541 76.9500486,5.61571622 L79.0230043,3.82728378 C80.4219199,2.60877027 81.7963592,1.4555 83.174564,0.221635135 C82.3932047,0.144878378 77.0536023,0.206283784 76.0707841,0.208202703 L72.3353217,6.40822973 Z" id="Fill-14" fill="#0086C8"></path>
                        <path d="M32.0346912,15.4432676 L37.5117376,15.4528622 C37.5004408,13.2691324 36.969493,11.6572405 34.7647418,11.6131054 C32.4526714,11.5651324 32.0516364,13.2537811 32.0346912,15.4432676" id="Fill-16" fill="#FEFEFE"></path>
                        <path d="M61.3005384,12.3785622 L61.3005384,8.11088649 L70.7898178,8.11088649 L70.8519499,22.7100216 L70.8519499,8.0916973 C70.4904536,7.99191351 62.0574214,7.99191351 61.2835933,8.06675135 C61.2252267,8.28358919 61.2007503,11.4344541 61.2346406,12.1329405 L61.3005384,12.3785622 Z" id="Fill-18" fill="#0086C8"></path>
                        <path d="M5.63386512,23.4543703 L5.63574791,26.9794243 L14.5696032,26.9947757 L14.5921967,22.7002351 L12.5493657,22.6848838 C12.8317848,22.8268838 14.1158499,22.7328568 14.5413613,22.7328568 L14.5413613,26.9352892 L5.69223172,26.9352892 C5.69223172,26.6781541 5.76942626,23.6769649 5.63386512,23.4543703" id="Fill-20" fill="#0086C8"></path>
                    </g>
                </g>
            </g>
        </g>
    </g>
</svg>