<?xml version="1.0" encoding="UTF-8"?>
<svg width="78px" height="111px" viewBox="0 0 78 111" version="1.1" xmlns="http://www.w3.org/2000/svg" xmlns:xlink="http://www.w3.org/1999/xlink">
    <!-- Generator: Sketch 48.2 (47327) - http://www.bohemiancoding.com/sketch -->
    <title>Artboard 8</title>
    <desc>Created with Sketch.</desc>
    <defs>
        <polygon id="path-1" points="0.5983 0.8188 56.204 0.8188 56.204 8.9078 0.5983 8.9078"></polygon>
        <polygon id="path-3" points="0.5977 0.7285 38.1027 0.7285 38.1027 10 0.5977 10"></polygon>
        <polygon id="path-5" points="6.59580265e-05 0.905 59.9850029 0.905 59.9850029 76.5849321 6.59580265e-05 76.5849321"></polygon>
    </defs>
    <g id="Page-1" stroke="none" stroke-width="1" fill="none" fill-rule="evenodd">
        <g id="Artboard-8">
            <g id="Page-1" transform="translate(3.000000, 6.000000)">
                <g id="Group-3" transform="translate(14.000000, 78.095300)">
                    <mask id="mask-2" fill="white">
                        <use xlink:href="#path-1"></use>
                    </mask>
                    <g id="Clip-2"></g>
                    <path d="M50.8483,8.7018 L50.8483,1.0238 L56.0093,1.0238 L56.0093,2.5978 L52.6373,2.5978 L52.6373,4.0398 L55.8253,4.0398 L55.8253,5.5238 L52.6373,5.5238 L52.6373,7.1188 L56.2043,7.1188 L56.2043,8.7018 L50.8483,8.7018 Z M47.6143,2.6078 L47.6143,8.7018 L45.7603,8.7018 L45.7603,2.6078 L43.5923,2.6078 L43.5923,1.0238 L49.7823,1.0238 L49.7823,2.6078 L47.6143,2.6078 Z M36.8553,8.7018 L36.8553,7.0968 L40.5093,2.5978 L36.9423,2.5978 L36.9423,1.0238 L42.8303,1.0238 L42.8303,2.5108 L39.0893,7.0968 L42.9053,7.0968 L42.9053,8.7018 L36.8553,8.7018 Z M33.7953,4.8308 C33.7953,4.4988 33.7413,4.1878 33.6323,3.8988 C33.5243,3.6078 33.3743,3.3618 33.1823,3.1558 C32.9913,2.9498 32.7603,2.7868 32.4883,2.6678 C32.2173,2.5488 31.9193,2.4888 31.5943,2.4888 C31.2693,2.4888 30.9723,2.5488 30.7053,2.6678 C30.4383,2.7868 30.2063,2.9498 30.0113,3.1558 C29.8163,3.3618 29.6663,3.6088 29.5613,3.8988 C29.4563,4.1878 29.4043,4.4988 29.4043,4.8308 C29.4043,5.1778 29.4583,5.4978 29.5663,5.7908 C29.6753,6.0828 29.8253,6.3338 30.0163,6.5438 C30.2083,6.7538 30.4383,6.9178 30.7053,7.0368 C30.9723,7.1568 31.2693,7.2158 31.5943,7.2158 C31.9193,7.2158 32.2163,7.1568 32.4833,7.0368 C32.7503,6.9178 32.9823,6.7538 33.1773,6.5438 C33.3723,6.3338 33.5243,6.0828 33.6323,5.7908 C33.7413,5.4978 33.7953,5.1778 33.7953,4.8308 Z M35.7793,4.8308 C35.7793,5.4378 35.6743,5.9928 35.4653,6.4948 C35.2553,6.9978 34.9643,7.4278 34.5923,7.7858 C34.2203,8.1428 33.7773,8.4198 33.2643,8.6148 C32.7503,8.8098 32.1943,8.9078 31.5943,8.9078 C30.9943,8.9078 30.4393,8.8098 29.9303,8.6148 C29.4203,8.4198 28.9793,8.1428 28.6073,7.7858 C28.2353,7.4278 27.9443,6.9978 27.7343,6.4948 C27.5253,5.9918 27.4203,5.4378 27.4203,4.8308 C27.4203,4.2168 27.5253,3.6618 27.7343,3.1668 C27.9443,2.6718 28.2353,2.2508 28.6073,1.9038 C28.9793,1.5558 29.4203,1.2888 29.9303,1.1008 C30.4393,0.9118 30.9943,0.8188 31.5943,0.8188 C32.1943,0.8188 32.7503,0.9128 33.2643,1.1008 C33.7773,1.2888 34.2203,1.5568 34.5923,1.9038 C34.9643,2.2508 35.2553,2.6718 35.4653,3.1668 C35.6743,3.6618 35.7793,4.2168 35.7793,4.8308 Z M24.1643,8.7018 L24.2073,3.2698 L24.1753,3.2698 L22.1803,8.7018 L20.8793,8.7018 L18.9383,3.2698 L18.9053,3.2698 L18.9493,8.7018 L17.2033,8.7018 L17.2033,1.0238 L19.8383,1.0238 L21.5833,5.9478 L21.6273,5.9478 L23.2973,1.0238 L25.9753,1.0238 L25.9753,8.7018 L24.1643,8.7018 Z M13.7743,4.8308 C13.7743,4.4988 13.7203,4.1878 13.6113,3.8988 C13.5033,3.6078 13.3533,3.3618 13.1613,3.1558 C12.9703,2.9498 12.7393,2.7868 12.4683,2.6678 C12.1973,2.5488 11.8983,2.4888 11.5733,2.4888 C11.2483,2.4888 10.9513,2.5488 10.6843,2.6678 C10.4173,2.7868 10.1853,2.9498 9.9903,3.1558 C9.7953,3.3618 9.6453,3.6088 9.5403,3.8988 C9.4353,4.1878 9.3833,4.4988 9.3833,4.8308 C9.3833,5.1778 9.4373,5.4978 9.5463,5.7908 C9.6543,6.0828 9.8043,6.3338 9.9953,6.5438 C10.1873,6.7538 10.4173,6.9178 10.6843,7.0368 C10.9513,7.1568 11.2483,7.2158 11.5733,7.2158 C11.8983,7.2158 12.1953,7.1568 12.4623,7.0368 C12.7303,6.9178 12.9613,6.7538 13.1563,6.5438 C13.3513,6.3338 13.5033,6.0828 13.6113,5.7908 C13.7203,5.4978 13.7743,5.1778 13.7743,4.8308 Z M15.7583,4.8308 C15.7583,5.4378 15.6533,5.9928 15.4443,6.4948 C15.2343,6.9978 14.9433,7.4278 14.5713,7.7858 C14.1993,8.1428 13.7563,8.4198 13.2433,8.6148 C12.7303,8.8098 12.1733,8.9078 11.5733,8.9078 C10.9733,8.9078 10.4183,8.8098 9.9093,8.6148 C9.3993,8.4198 8.9583,8.1428 8.5863,7.7858 C8.2143,7.4278 7.9233,6.9978 7.7133,6.4948 C7.5043,5.9918 7.3993,5.4378 7.3993,4.8308 C7.3993,4.2168 7.5043,3.6618 7.7133,3.1668 C7.9233,2.6718 8.2143,2.2508 8.5863,1.9038 C8.9583,1.5558 9.3993,1.2888 9.9093,1.1008 C10.4183,0.9118 10.9733,0.8188 11.5733,0.8188 C12.1733,0.8188 12.7303,0.9128 13.2433,1.1008 C13.7563,1.2888 14.1993,1.5568 14.5713,1.9038 C14.9433,2.2508 15.2343,2.6718 15.4443,3.1668 C15.6533,3.6618 15.7583,4.2168 15.7583,4.8308 Z M4.5663,3.3998 C4.5663,3.2188 4.5303,3.0708 4.4583,2.9548 C4.3853,2.8398 4.2883,2.7488 4.1653,2.6838 C4.0423,2.6188 3.9033,2.5758 3.7473,2.5538 C3.5923,2.5318 3.4313,2.5218 3.2653,2.5218 L2.4523,2.5218 L2.4523,4.3318 L3.2323,4.3318 C3.4063,4.3318 3.5723,4.3178 3.7313,4.2888 C3.8903,4.2598 4.0333,4.2088 4.1593,4.1368 C4.2863,4.0648 4.3853,3.9688 4.4583,3.8498 C4.5303,3.7308 4.5663,3.5808 4.5663,3.3998 Z M6.4203,3.3888 C6.4203,3.8368 6.3373,4.2148 6.1713,4.5218 C6.0043,4.8288 5.7803,5.0768 5.4983,5.2648 C5.2163,5.4518 4.8913,5.5898 4.5233,5.6768 C4.1543,5.7628 3.7713,5.8068 3.3733,5.8068 L2.4523,5.8068 L2.4523,8.7018 L0.5983,8.7018 L0.5983,1.0238 L3.4173,1.0238 C3.8363,1.0238 4.2283,1.0668 4.5933,1.1498 C4.9583,1.2318 5.2763,1.3668 5.5473,1.5508 C5.8183,1.7358 6.0313,1.9778 6.1873,2.2778 C6.3423,2.5768 6.4203,2.9478 6.4203,3.3888 Z" id="Fill-1" fill="#EC1D24" mask="url(#mask-2)"></path>
                </g>
                <g id="Group-6" transform="translate(14.000000, 87.095300)">
                    <mask id="mask-4" fill="white">
                        <use xlink:href="#path-3"></use>
                    </mask>
                    <g id="Clip-5"></g>
                    <path d="M5.8347,6.1395 C5.8347,5.7055 5.7647,5.3465 5.6237,5.0605 C5.4827,4.7765 5.2947,4.5475 5.0597,4.3785 C4.8247,4.2075 4.5567,4.0865 4.2567,4.0145 C3.9577,3.9425 3.6487,3.9065 3.3297,3.9065 L2.4087,3.9065 L2.4087,8.3945 L3.2867,8.3945 C3.6197,8.3945 3.9387,8.3575 4.2467,8.2815 C4.5537,8.2055 4.8247,8.0805 5.0597,7.9065 C5.2947,7.7335 5.4827,7.5015 5.6237,7.2125 C5.7647,6.9235 5.8347,6.5655 5.8347,6.1395 Z M19.2957,3.9065 L19.2957,10.0005 L17.4417,10.0005 L17.4417,3.9065 L15.2737,3.9065 L15.2737,2.3245 L21.4647,2.3245 L21.4647,3.9065 L19.2957,3.9065 Z M22.5307,10.0005 L22.5307,2.3245 L27.6907,2.3245 L27.6907,3.8955 L24.3187,3.8955 L24.3187,5.3375 L27.5067,5.3375 L27.5067,6.8225 L24.3187,6.8225 L24.3187,8.4165 L27.8867,8.4165 L27.8867,10.0005 L22.5307,10.0005 Z M36.2917,10.0005 L36.3357,4.5675 L36.3027,4.5675 L34.3077,10.0005 L33.0067,10.0005 L31.0657,4.5675 L31.0337,4.5675 L31.0767,10.0005 L29.3317,10.0005 L29.3317,2.3245 L31.9657,2.3245 L33.7117,7.2455 L33.7547,7.2455 L35.4247,2.3245 L38.1027,2.3245 L38.1027,10.0005 L36.2917,10.0005 Z M13.9807,0.7285 L12.3397,0.7285 L11.7807,1.9355 L11.2227,0.7285 L9.5817,0.7285 L10.3197,2.3245 L9.2097,2.3245 L9.2097,10.0005 L14.5657,10.0005 L14.5657,8.4165 L10.9987,8.4165 L10.9987,6.8225 L14.1867,6.8225 L14.1867,5.3375 L10.9987,5.3375 L10.9987,3.8955 L14.3707,3.8955 L14.3707,2.3245 L13.2427,2.3245 L13.9807,0.7285 Z M7.7647,6.1395 C7.7647,6.8115 7.6397,7.3915 7.3907,7.8795 C7.1417,8.3675 6.8127,8.7685 6.4037,9.0835 C5.9957,9.3975 5.5347,9.6285 5.0217,9.7785 C4.5087,9.9255 3.9877,10.0005 3.4607,10.0005 L0.5977,10.0005 L0.5977,2.3245 L3.3737,2.3245 C3.9157,2.3245 4.4507,2.3865 4.9777,2.5125 C5.5057,2.6395 5.9757,2.8495 6.3877,3.1415 C6.7997,3.4345 7.1327,3.8265 7.3847,4.3175 C7.6377,4.8095 7.7647,5.4165 7.7647,6.1405 L7.7647,6.1395 Z" id="Fill-4" fill="#EC1D24" mask="url(#mask-4)"></path>
                </g>
                <path d="M52.3881,37.3852 C52.0391,37.1282 51.6651,36.8752 51.2671,36.6272 C50.2011,39.5042 45.7991,41.9082 39.9181,43.1792 C38.7681,43.4272 37.5491,43.6352 36.2761,43.7962 C34.3381,44.0412 32.2961,44.1732 30.2031,44.1732 L30.2031,44.1752 L30.2001,44.1752 C22.6481,44.1752 15.6621,42.4192 11.8991,39.8102 C11.4901,39.5272 11.1181,39.2332 10.7861,38.9292 C10.8561,39.0992 10.9321,39.2832 11.0121,39.4752 C11.8061,41.3792 12.9341,44.0852 12.3031,45.6672 C12.1201,46.1262 11.8091,46.4872 11.3311,46.7072 C10.7511,46.9462 10.3951,46.9372 9.8201,46.9362 C8.9011,46.9342 7.7051,46.5952 6.1601,45.9792 C5.5501,45.7362 4.9901,45.4802 4.4761,45.2142 C5.3371,47.6722 7.9951,49.8952 11.7931,51.6122 C16.5751,53.7752 23.1281,55.1132 30.1991,55.1132 L30.1991,55.1112 L30.2001,55.1112 L30.2021,55.1112 L30.2021,55.1132 C37.2731,55.1122 43.8261,53.7752 48.6071,51.6122 C53.2781,49.5002 56.2251,46.6252 56.2251,43.4872 L56.2231,43.4872 C56.2231,41.6962 55.2891,39.9252 53.5311,38.3202 C53.1801,38.0002 52.7991,37.6882 52.3881,37.3852" id="Fill-7" fill="#231F20"></path>
                <path d="M10.3897,37.0827 C10.4937,37.2437 10.6107,37.4027 10.7407,37.5607 C11.1707,38.0807 11.7367,38.5817 12.4197,39.0557 C16.0407,41.5647 22.8257,43.2547 30.2007,43.2547 L30.2037,43.2547 L30.2037,43.2567 C32.2567,43.2567 34.2607,43.1267 36.1607,42.8867 C37.3867,42.7317 38.5797,42.5277 39.7247,42.2807 C45.3797,41.0587 49.5627,38.8267 50.4387,36.2217 C49.8977,30.8767 48.5267,25.2427 46.1077,20.5447 C42.9037,14.3217 37.8537,9.7557 30.4537,9.7547 L30.4537,9.7567 L30.4527,9.7567 L30.4507,9.7567 L30.4507,9.7547 C23.0507,9.7557 18.0007,14.3227 14.7967,20.5437 C12.2557,25.4797 10.8707,31.4487 10.3907,37.0287 L10.3897,37.0827 Z" id="Fill-9" fill="#231F20"></path>
                <path d="M4.2048,44.0171 C4.3468,44.1011 4.4938,44.1851 4.6458,44.2681 L4.6518,44.2701 C5.0858,44.5051 5.5588,44.7341 6.0738,44.9531 L6.0748,44.9521 L6.1008,44.9641 L6.1268,44.9751 L6.1718,44.9941 L6.1788,44.9961 L6.2058,45.0081 L6.2318,45.0181 L6.2798,45.0391 L6.2848,45.0401 L6.3108,45.0521 L6.3378,45.0621 L6.3638,45.0731 L6.3888,45.0841 L6.3908,45.0851 L6.4448,45.1061 L6.4718,45.1171 L6.4988,45.1271 C7.3128,45.4481 10.7888,46.9181 11.4518,45.3301 C11.9318,44.1261 10.9498,41.7121 10.2188,39.9571 C9.9088,39.1091 9.7928,39.0601 9.5428,38.0261 L9.5388,38.0071 L9.5378,38.0031 L9.5328,37.9811 L9.5308,37.9721 L9.5248,37.9471 L9.5218,37.9291 L9.5188,37.9161 L9.5168,37.9041 L9.5148,37.8941 L9.5148,37.8911 L9.5118,37.8761 L9.5108,37.8721 L9.5108,37.8701 L9.5098,37.8611 L9.5028,37.8201 L9.5028,37.8181 L9.5028,37.8161 L9.4998,37.7961 L9.4978,37.7861 L9.4978,37.7831 L9.4968,37.7761 L9.4948,37.7601 L9.4908,37.7241 L9.4898,37.7221 L9.4898,37.7151 L9.4888,37.7111 L9.4888,37.7071 L9.4868,37.6921 L9.4868,37.6901 L9.4858,37.6811 L9.4848,37.6691 L9.4848,37.6651 L9.4838,37.6571 L9.4828,37.6471 L9.4828,37.6461 L9.4828,37.6421 L9.4818,37.6311 L9.4818,37.6251 L9.4798,37.6001 L9.4788,37.5971 L9.4788,37.5931 L9.4788,37.5891 L9.4758,37.5291 C9.4738,37.4941 9.4728,37.4611 9.4718,37.4271 L9.4718,37.4221 L9.4718,37.4211 L9.4708,37.3581 L9.4708,37.3571 L9.4708,37.3361 C9.4698,37.2011 9.4738,37.0661 9.4758,36.9271 C9.4858,36.4661 9.5068,36.0521 9.5388,35.6601 L9.5388,35.6511 C9.5498,35.5171 9.5618,35.3881 9.5758,35.2601 L9.5758,35.2561 L9.5778,35.2381 C9.6148,34.8801 9.6628,34.5301 9.7188,34.1681 L9.7198,34.1641 L9.7348,34.0711 L9.7358,34.0631 L9.7648,33.8891 L9.7688,33.8631 L9.7858,33.7601 L9.7878,33.7491 C9.8108,33.6181 9.8338,33.4831 9.8588,33.3451 L9.8608,33.3361 L9.8638,33.3161 L9.8698,33.2811 L9.8768,33.2411 L9.8798,33.2261 L9.8898,33.1711 L9.8908,33.1671 L9.9008,33.1151 L9.9158,33.0291 L9.9188,33.0151 L9.9208,33.0011 L9.9238,32.9871 L9.9428,32.8861 L9.9478,32.8571 L9.9628,32.7781 L9.9638,32.7711 L9.9748,32.7101 L9.9778,32.6991 L9.9858,32.6511 L10.0068,32.5421 L10.0078,32.5341 L10.0088,32.5301 L10.0108,32.5211 L10.0318,32.4081 L10.0388,32.3671 L10.0438,32.3441 L10.0548,32.2811 L10.1488,31.7841 C6.8158,32.8221 4.2068,34.3191 2.6168,35.9901 C1.6968,36.9541 1.1258,37.9711 0.9648,38.9781 C0.8078,39.9601 1.0418,40.9491 1.7268,41.8921 L1.7438,41.9161 L1.7568,41.9341 L1.7618,41.9401 L1.7678,41.9471 L1.7798,41.9641 L1.7888,41.9761 L1.7898,41.9761 L1.7908,41.9791 L1.8208,42.0161 L1.8358,42.0361 L1.8368,42.0371 L1.8518,42.0571 L1.8628,42.0701 L1.8688,42.0781 L1.8858,42.1001 L1.8928,42.1081 L1.9128,42.1331 L1.9408,42.1681 L1.9488,42.1761 L1.9518,42.1801 L1.9538,42.1831 L1.9718,42.2051 L2.0118,42.2511 L2.0128,42.2521 L2.0238,42.2651 L2.0338,42.2771 L2.0498,42.2951 L2.0538,42.3001 L2.0598,42.3081 L2.0608,42.3091 C2.0828,42.3341 2.1058,42.3591 2.1288,42.3841 L2.1308,42.3871 L2.1338,42.3891 L2.1398,42.3951 L2.1608,42.4201 L2.1718,42.4301 L2.1838,42.4441 L2.1898,42.4491 L2.2098,42.4711 L2.2278,42.4911 L2.2318,42.4951 L2.2488,42.5121 L2.2508,42.5151 L2.2688,42.5331 L2.2738,42.5371 L2.2838,42.5481 L2.2888,42.5531 L2.2968,42.5611 L2.3198,42.5861 L2.3288,42.5951 L2.3548,42.6201 L2.3668,42.6331 L2.3698,42.6361 C2.3958,42.6601 2.4218,42.6871 2.4478,42.7121 L2.4528,42.7161 C2.4808,42.7441 2.5088,42.7701 2.5378,42.7971 L2.5388,42.7981 C2.5708,42.8261 2.6028,42.8571 2.6358,42.8861 L2.6368,42.8871 L2.6398,42.8891 L2.6408,42.8911 C2.6928,42.9361 2.7458,42.9841 2.8008,43.0301 L2.8108,43.0371 L2.8268,43.0521 C2.8628,43.0811 2.8998,43.1121 2.9368,43.1431 L2.9378,43.1441 L2.9548,43.1561 L2.9658,43.1671 L3.0148,43.2051 L3.0528,43.2351 L3.0538,43.2361 C3.0878,43.2621 3.1218,43.2891 3.1558,43.3151 L3.1568,43.3161 L3.2078,43.3551 L3.2118,43.3571 L3.2338,43.3741 L3.2348,43.3741 L3.2608,43.3931 C3.5478,43.6071 3.8618,43.8151 4.2048,44.0171" id="Fill-11" fill="#231F20"></path>
                <path d="M47.6253,53.0239 C42.8903,54.8949 36.7613,56.0299 30.2023,56.0299 L30.2023,56.0309 L30.2003,56.0309 L30.1993,56.0309 L30.1993,56.0299 C23.9443,56.0299 18.0793,54.9989 13.4423,53.2799 C14.2873,54.5839 15.2753,55.7509 16.3763,56.7729 C20.1253,60.2519 25.1923,62.0799 30.4513,62.0799 L30.4513,62.0779 L30.4523,62.0779 L30.4533,62.0779 L30.4533,62.0789 C35.7123,62.0789 40.7793,60.2529 44.5283,56.7729 C45.7003,55.6839 46.7443,54.4329 47.6253,53.0239" id="Fill-13" fill="#231F20"></path>
                <path d="M51.2922,35.5543 C51.6132,35.7533 52.0512,36.0383 52.4252,36.2903 C54.4852,35.0433 56.7892,32.7793 58.1052,30.1213 C59.2692,27.7713 59.2382,23.8663 58.7682,21.6483 C58.6632,21.1543 58.5392,20.7553 58.4052,20.4903 C58.3422,20.3663 58.3982,20.2893 58.3612,20.2913 C58.3362,20.2933 58.3792,20.3253 58.3332,20.4033 C56.9072,22.8533 55.4082,24.5143 53.5252,25.3693 C52.2952,25.9283 50.9182,26.1343 49.3082,25.9853 C50.2892,29.0983 50.9362,32.3703 51.2922,35.5543" id="Fill-15" fill="#231F20"></path>
                <path d="M26.5429,67.833 L26.5429,62.67 C25.6859,62.524 24.8419,62.33 24.0149,62.087 L24.0149,67.59 L24.0149,68.107 L23.4979,68.082 L23.4879,68.082 C23.2989,68.073 23.0629,68.07 22.7919,68.075 C22.5289,68.08 22.2139,68.096 21.8509,68.124 C20.0939,68.264 17.6259,68.731 16.0179,70.008 L15.9889,70.031 C16.0269,70.041 16.0679,70.051 16.1129,70.061 C16.7859,70.207 17.8739,70.188 18.4309,70.164 L19.7519,70.105 L18.7899,71.015 C16.9649,72.74 16.4219,73.422 16.5409,73.547 C16.7869,73.808 18.8399,73.094 20.1869,72.624 C20.4839,72.52 20.7509,72.427 20.9349,72.368 L22.5009,71.857 L21.4729,73.144 C21.2499,73.424 20.5659,74.456 20.2399,75.26 C20.1709,75.431 20.1209,75.584 20.0999,75.705 C21.3079,75.954 24.0859,74.161 25.9899,72.211 C26.5789,71.609 27.0759,70.993 27.4079,70.419 C27.7089,69.898 27.8689,69.431 27.8229,69.07 C27.7809,68.732 27.5049,68.462 26.9139,68.31 L26.5429,68.214 L26.5429,67.833 Z" id="Fill-17" fill="#231F20"></path>
                <g id="Group-21" transform="translate(0.000000, 0.095300)">
                    <mask id="mask-6" fill="white">
                        <use xlink:href="#path-5"></use>
                    </mask>
                    <g id="Clip-20"></g>
                    <path d="M33.3665,62.7218 L33.3665,67.3778 C32.5725,67.6778 32.1805,68.1958 32.0975,68.8508 C32.0235,69.4428 32.2315,70.1188 32.6365,70.8178 C33.0105,71.4638 33.5585,72.1448 34.2005,72.8028 C36.4125,75.0668 39.8495,77.0748 41.3185,76.4788 C41.3855,76.4518 41.4475,76.4158 41.5025,76.3718 C41.7445,76.1788 41.8235,75.8918 41.7855,75.5478 C41.7605,75.3238 41.6825,75.0648 41.5725,74.7938 C41.4285,74.4378 41.2205,74.0418 41.0075,73.6738 C42.5435,74.1958 44.4745,74.7638 45.0755,74.1268 C45.5175,73.6588 45.2475,72.7378 43.6535,71.0648 C44.1215,71.0518 44.6095,71.0148 44.9935,70.9308 C45.2845,70.8678 45.5355,70.7738 45.7145,70.6378 C46.0145,70.4088 46.1305,70.1118 45.9815,69.7318 C45.9075,69.5428 45.7505,69.3448 45.4935,69.1408 C43.6935,67.7118 41.0175,67.1948 39.1235,67.0448 C38.7755,67.0168 38.4355,67.0018 38.1245,66.9948 C38.0365,66.9938 37.9515,66.9928 37.8715,66.9918 L37.8715,61.6798 C40.5715,60.7498 43.0595,59.2978 45.1565,57.3518 C46.6825,55.9348 48.0005,54.2568 49.0415,52.3288 C54.0095,50.0688 57.1415,46.9138 57.1415,43.3928 L57.1435,43.3928 L57.1435,43.3918 C57.1435,41.3338 56.1045,39.3308 54.1495,37.5458 C53.8635,37.2848 53.5565,37.0278 53.2285,36.7748 C55.3315,35.4098 57.6035,33.1088 58.9285,30.4328 C60.1875,27.8888 60.1655,23.7188 59.6665,21.3628 C59.5455,20.7928 59.3945,20.3178 59.2245,19.9808 C58.9815,19.5028 58.6645,19.2468 58.2825,19.2808 C58.0035,19.3048 57.7505,19.4848 57.5395,19.8478 C56.2095,22.1328 54.8375,23.6698 53.1475,24.4368 C51.9685,24.9718 50.6165,25.1388 48.9935,24.9318 C48.4115,23.2258 47.7245,21.5768 46.9265,20.0268 C44.9695,16.2258 42.3445,13.0158 38.9435,11.0018 C39.2555,10.5918 39.4985,10.0908 39.6335,9.4928 C39.8145,8.6888 39.8005,7.7078 39.4945,6.5318 C39.4875,6.5018 39.4775,6.4718 39.4645,6.4418 C39.3605,6.2108 39.0885,6.1078 38.8575,6.2118 C38.0635,6.5708 37.4595,6.6048 37.0535,6.4218 C36.8335,6.3228 36.6675,6.1538 36.5605,5.9368 C36.4415,5.6958 36.3885,5.3928 36.4075,5.0528 C36.4565,4.1518 36.9965,3.0428 38.0945,2.1178 L38.0935,2.1178 C38.1545,2.0658 38.2025,1.9988 38.2305,1.9178 C38.3145,1.6788 38.1875,1.4178 37.9485,1.3348 C37.2985,1.1058 36.7085,0.9688 36.1695,0.9048 L34.8065,0.9048 C32.8945,1.1538 31.7805,2.4588 30.8715,3.5218 C30.2375,4.2638 29.7305,4.8578 29.2045,4.6638 C29.1215,4.6338 29.0535,4.5968 29.0005,4.5558 C28.8615,4.4468 28.7995,4.2788 28.7885,4.0848 C28.7755,3.8308 28.8435,3.5338 28.9505,3.2438 C29.1025,2.8298 29.3295,2.4428 29.5255,2.1908 L29.5245,2.1908 C29.6105,2.0788 29.6445,1.9288 29.6025,1.7828 C29.5325,1.5398 29.2775,1.3998 29.0345,1.4708 C26.9555,2.0798 25.4795,3.1958 24.5425,4.5138 C23.9175,5.3938 23.5325,6.3618 23.3675,7.3298 C23.2025,8.2988 23.2595,9.2688 23.5175,10.1498 L23.5275,10.1858 C19.3545,12.0748 16.2255,15.6608 13.9775,20.0268 C12.3085,23.2678 11.1275,26.9418 10.3665,30.6628 C6.6485,31.7528 3.7245,33.4008 1.9515,35.2618 C0.9045,36.3608 0.2505,37.5418 0.0595,38.7388 C-0.1365,39.9618 0.1475,41.1848 0.9825,42.3348 C1.5285,43.0878 2.3145,43.8088 3.3605,44.4768 C3.9335,47.5728 6.9325,50.3268 11.4155,52.3548 C11.6155,52.4448 11.8185,52.5328 12.0235,52.6208 C13.0385,54.4268 14.2995,56.0068 15.7485,57.3518 C17.8425,59.2968 20.3285,60.7478 23.0265,61.6778 L23.0265,66.9918 C22.9465,66.9928 22.8615,66.9938 22.7735,66.9948 C22.4625,67.0018 22.1225,67.0168 21.7745,67.0448 C19.8805,67.1948 17.2045,67.7118 15.4045,69.1408 C15.1465,69.3448 14.9905,69.5428 14.9165,69.7318 C14.7675,70.1118 14.8825,70.4088 15.1835,70.6378 C15.3625,70.7738 15.6135,70.8678 15.9045,70.9308 C16.2885,71.0148 16.7765,71.0518 17.2445,71.0648 C15.6505,72.7378 15.3795,73.6588 15.8225,74.1268 C16.4235,74.7638 18.3545,74.1958 19.8905,73.6738 C19.6775,74.0418 19.4695,74.4378 19.3255,74.7938 C19.2155,75.0648 19.1375,75.3238 19.1125,75.5478 C19.0745,75.8918 19.1535,76.1788 19.3955,76.3718 C19.4505,76.4158 19.5125,76.4518 19.5795,76.4788 C21.0485,77.0748 24.4855,75.0668 26.6975,72.8028 C27.3395,72.1448 27.8875,71.4638 28.2615,70.8178 C28.6665,70.1188 28.8745,69.4428 28.8005,68.8508 C28.7175,68.1958 28.3255,67.6778 27.5315,67.3778 L27.5315,62.7208 C28.4945,62.8428 29.4695,62.9038 30.4515,62.9038 L30.4515,62.9058 L30.4525,62.9058 L30.4535,62.9058 L30.4535,62.9038 C31.4325,62.9038 32.4065,62.8428 33.3665,62.7218" id="Fill-19" fill="#231F20" mask="url(#mask-6)"></path>
                </g>
                <path d="M34.3549,67.833 L34.3549,62.671 C35.2119,62.525 36.0559,62.332 36.8829,62.089 L36.8829,67.59 L36.8829,68.107 L37.3999,68.082 L37.4099,68.082 C37.5989,68.073 37.8349,68.07 38.1059,68.075 C38.3689,68.08 38.6839,68.096 39.0469,68.124 C40.8039,68.264 43.2719,68.731 44.8799,70.008 L44.9089,70.031 C44.8709,70.041 44.8299,70.051 44.7849,70.061 C44.1119,70.207 43.0239,70.188 42.4669,70.164 L41.1459,70.105 L42.1079,71.015 C43.9329,72.74 44.4759,73.422 44.3569,73.547 C44.1109,73.808 42.0579,73.094 40.7109,72.624 C40.4139,72.52 40.1469,72.427 39.9629,72.368 L38.3969,71.857 L39.4249,73.144 C39.6479,73.424 40.3319,74.456 40.6579,75.26 C40.7269,75.431 40.7769,75.584 40.7979,75.705 C39.5899,75.954 36.8119,74.161 34.9079,72.211 C34.3189,71.609 33.8219,70.993 33.4899,70.419 C33.1889,69.898 33.0289,69.431 33.0749,69.07 C33.1169,68.732 33.3929,68.462 33.9839,68.31 L34.3549,68.214 L34.3549,67.833 Z" id="Fill-22" fill="#231F20"></path>
                <path d="M30.4522,8.8329 L30.4532,8.8329 L30.4532,8.8349 C33.3462,8.8349 35.8952,9.4899 38.1292,10.6459 C38.4062,10.3169 38.6232,9.8999 38.7382,9.3869 C38.8652,8.8269 38.8732,8.1519 38.7172,7.3479 C37.8922,7.6209 37.2052,7.5929 36.6762,7.3549 C36.2532,7.1649 35.9382,6.8459 35.7372,6.4379 C35.5482,6.0549 35.4642,5.5969 35.4912,5.1009 C35.5422,4.1579 36.0002,3.0539 36.9102,2.0749 C34.0082,1.3589 32.6272,2.9749 31.5682,4.2139 C30.7042,5.2259 30.0122,6.0359 28.8882,5.6219 C28.7162,5.5589 28.5672,5.4759 28.4402,5.3769 C28.0612,5.0829 27.8962,4.6769 27.8722,4.2269 C27.8522,3.8359 27.9422,3.4169 28.0882,3.0229 C28.1072,2.9689 28.1282,2.9159 28.1502,2.8629 C26.8792,3.4309 25.9362,4.2329 25.2902,5.1409 C24.7482,5.9029 24.4152,6.7409 24.2732,7.5759 C24.1342,8.3859 24.1752,9.1929 24.3792,9.9249 C26.2092,9.2219 28.2282,8.8349 30.4512,8.8349 L30.4522,8.8329 Z" id="Fill-24" fill="#231F20"></path>
                <path d="M26.5429,67.833 L26.5429,62.67 C25.6859,62.524 24.8419,62.33 24.0149,62.087 L24.0149,67.59 L24.0149,68.107 L23.4979,68.082 L23.4879,68.082 C23.2989,68.073 23.0629,68.07 22.7919,68.075 C22.5289,68.08 22.2139,68.096 21.8509,68.124 C20.0939,68.264 17.6259,68.731 16.0179,70.008 L15.9889,70.031 C16.0269,70.041 16.0679,70.051 16.1129,70.061 C16.7859,70.207 17.8739,70.188 18.4309,70.164 L19.7519,70.105 L18.7899,71.015 C16.9649,72.74 16.4219,73.422 16.5409,73.547 C16.7869,73.808 18.8399,73.094 20.1869,72.624 C20.4839,72.52 20.7509,72.427 20.9349,72.368 L22.5009,71.857 L21.4729,73.144 C21.2499,73.424 20.5659,74.456 20.2399,75.26 C20.1709,75.431 20.1209,75.584 20.0999,75.705 C21.3079,75.954 24.0859,74.161 25.9899,72.211 C26.5789,71.609 27.0759,70.993 27.4079,70.419 C27.7089,69.898 27.8689,69.431 27.8229,69.07 C27.7809,68.732 27.5049,68.462 26.9139,68.31 L26.5429,68.214 L26.5429,67.833 Z" id="Fill-26" fill="#F26F21"></path>
                <path d="M36.8829,62.0891 L36.8829,67.5901 L36.8829,68.1071 L37.3999,68.0831 L37.4099,68.0811 C37.5989,68.0741 37.8349,68.0701 38.1059,68.0761 C38.3689,68.0811 38.6839,68.0961 39.0469,68.1251 C40.8039,68.2651 43.2719,68.7321 44.8799,70.0081 L44.9089,70.0321 C44.8709,70.0411 44.8299,70.0521 44.7849,70.0611 C44.1119,70.2071 43.0239,70.1891 42.4669,70.1641 L41.1459,70.1051 L42.1079,71.0151 C43.9329,72.7391 44.4759,73.4221 44.3579,73.5471 C44.1109,73.8081 42.0579,73.0941 40.7109,72.6241 C40.4139,72.5211 40.1469,72.4281 39.9629,72.3681 L38.3969,71.8561 L39.4249,73.1431 C39.6479,73.4231 40.3319,74.4571 40.6579,75.2601 C40.7269,75.4311 40.7769,75.5841 40.7979,75.7041 C39.5899,75.9541 36.8119,74.1611 34.9079,72.2121 C34.3189,71.6091 33.8219,70.9931 33.4899,70.4191 C33.1889,69.8981 33.0289,69.4311 33.0749,69.0701 C33.1169,68.7331 33.3929,68.4631 33.9839,68.3101 L34.3549,68.2141 L34.3549,67.8331 L34.3549,62.6721 C35.2119,62.5261 36.0559,62.3321 36.8829,62.0891" id="Fill-28" fill="#F26F21"></path>
                <path d="M17.2682,73.1371 C20.1632,72.2351 21.8142,71.2671 22.4012,70.2831 C21.3492,69.9221 19.0662,70.3741 17.2682,73.1371" id="Fill-30" fill="#F9A51A"></path>
                <path d="M20.5392,75.2702 C22.0982,74.7022 23.4512,73.4432 23.7412,72.3802 C23.1232,72.3692 21.5052,72.5792 20.5392,75.2702" id="Fill-32" fill="#F9A51A"></path>
                <path d="M16.6489,69.845 C18.8739,70.023 19.6169,69.513 20.2039,69.144 C19.9669,69.07 18.7439,68.49 16.6489,69.845" id="Fill-34" fill="#F9A51A"></path>
                <path d="M43.6293,73.1371 C40.7343,72.2351 39.0833,71.2671 38.4963,70.2831 C39.5483,69.9221 41.8313,70.3741 43.6293,73.1371" id="Fill-36" fill="#F9A51A"></path>
                <path d="M40.3587,75.2702 C38.7997,74.7022 37.4467,73.4432 37.1567,72.3802 C37.7747,72.3692 39.3927,72.5792 40.3587,75.2702" id="Fill-38" fill="#F9A51A"></path>
                <path d="M44.249,69.845 C42.024,70.023 41.28,69.513 40.694,69.144 C40.931,69.07 42.154,68.49 44.249,69.845" id="Fill-40" fill="#F9A51A"></path>
                <path d="M10.3897,37.0827 C10.4937,37.2437 10.6107,37.4027 10.7407,37.5607 C11.1707,38.0807 11.7367,38.5817 12.4197,39.0557 C16.0407,41.5647 22.8257,43.2547 30.2007,43.2547 L30.2037,43.2547 L30.2037,43.2567 C32.2567,43.2567 34.2607,43.1267 36.1607,42.8867 C37.3867,42.7317 38.5797,42.5277 39.7247,42.2807 C45.3797,41.0587 49.5627,38.8267 50.4387,36.2217 C49.8977,30.8767 48.5267,25.2427 46.1077,20.5447 C42.9037,14.3217 37.8537,9.7557 30.4537,9.7547 L30.4537,9.7567 L30.4527,9.7567 L30.4507,9.7567 L30.4507,9.7547 C23.0507,9.7557 18.0007,14.3227 14.7967,20.5437 C12.2557,25.4797 10.8707,31.4487 10.3907,37.0287 L10.3897,37.0827 Z" id="Fill-42" fill="#FFDA00"></path>
                <path d="M47.6253,53.0239 C42.8903,54.8949 36.7613,56.0299 30.2023,56.0299 L30.2023,56.0309 L30.2003,56.0309 L30.1993,56.0309 L30.1993,56.0299 C23.9443,56.0299 18.0793,54.9989 13.4423,53.2799 C14.2873,54.5839 15.2753,55.7509 16.3763,56.7729 C20.1253,60.2519 25.1923,62.0799 30.4513,62.0799 L30.4513,62.0779 L30.4523,62.0779 L30.4533,62.0779 L30.4533,62.0789 C35.7123,62.0789 40.7793,60.2529 44.5283,56.7729 C45.7003,55.6839 46.7443,54.4329 47.6253,53.0239" id="Fill-44" fill="#FFDA00"></path>
                <path d="M51.2922,35.5543 C51.6132,35.7533 52.0512,36.0383 52.4252,36.2903 C54.4852,35.0433 56.7892,32.7793 58.1052,30.1213 C59.2692,27.7713 59.2382,23.8663 58.7682,21.6483 C58.6632,21.1543 58.5392,20.7553 58.4052,20.4903 C58.3422,20.3663 58.3982,20.2893 58.3612,20.2913 C58.3362,20.2933 58.3792,20.3253 58.3332,20.4033 C56.9072,22.8533 55.4082,24.5143 53.5252,25.3693 C52.2952,25.9283 50.9182,26.1343 49.3082,25.9853 C50.2892,29.0983 50.9362,32.3703 51.2922,35.5543" id="Fill-46" fill="#FFDA00"></path>
                <path d="M50.6394,26.0262 C50.7284,27.5722 54.6604,33.8092 59.0174,26.3282 C58.9064,27.7102 58.6254,29.0712 58.1054,30.1222 C58.0834,30.1662 58.0614,30.2102 58.0394,30.2542 L58.0344,30.2632 L58.0174,30.2952 C57.9994,30.3302 57.9824,30.3642 57.9644,30.3982 L57.9424,30.4382 L57.8944,30.5302 L57.8664,30.5802 L57.8204,30.6642 L57.7744,30.7452 L57.7504,30.7882 L57.7044,30.8682 L57.6704,30.9262 L57.6304,30.9952 L57.5874,31.0672 L57.5554,31.1202 L57.5124,31.1892 L57.4644,31.2672 L57.4344,31.3132 L57.3864,31.3912 L57.3504,31.4462 L57.3034,31.5182 L57.2564,31.5902 L57.2234,31.6392 L57.1864,31.6942 L57.1274,31.7812 L57.0534,31.8892 L57.0484,31.8962 L57.0134,31.9462 L56.9564,32.0242 C56.9284,32.0662 56.8994,32.1062 56.8704,32.1462 L56.8694,32.1472 L56.8524,32.1682 C56.7494,32.3082 56.6454,32.4482 56.5384,32.5842 L56.4984,32.6352 L56.4234,32.7282 L56.4194,32.7342 L56.3434,32.8272 L56.3114,32.8672 L56.2584,32.9312 L56.2124,32.9862 L56.1674,33.0392 L56.1084,33.1082 L56.0544,33.1722 L56.0334,33.1952 L55.9504,33.2912 L55.9384,33.3042 L55.8544,33.3982 L55.8334,33.4222 L55.7634,33.5002 L55.7174,33.5492 C55.6644,33.6072 55.6114,33.6642 55.5584,33.7212 L55.5234,33.7562 C55.4904,33.7922 55.4564,33.8272 55.4234,33.8622 C55.3844,33.9022 55.3454,33.9422 55.3064,33.9812 C55.2244,34.0652 55.1414,34.1472 55.0584,34.2282 L55.0464,34.2392 L54.9814,34.3012 L54.9384,34.3432 L54.8644,34.4142 L54.8364,34.4402 L54.7434,34.5272 L54.7424,34.5272 L54.6444,34.6162 L54.6304,34.6302 L54.5604,34.6922 L54.5134,34.7332 L54.4324,34.8052 L54.4294,34.8082 C54.3304,34.8962 54.2304,34.9812 54.1294,35.0652 L54.0924,35.0962 C54.0334,35.1442 53.9744,35.1932 53.9164,35.2402 L53.8754,35.2722 L53.7604,35.3632 C53.7094,35.4032 53.6574,35.4432 53.6064,35.4822 C53.5004,35.5642 53.3934,35.6422 53.2874,35.7192 L53.2724,35.7302 C53.2044,35.7772 53.1374,35.8262 53.0704,35.8722 L53.0674,35.8742 L52.9644,35.9442 L52.9634,35.9442 L52.8844,35.9972 L52.8184,36.0422 L52.7804,36.0672 L52.7294,36.1002 L52.6684,36.1392 L52.6214,36.1682 L52.5524,36.2132 L52.5404,36.2202 L52.4524,36.2742 L52.4234,36.2922 C52.3434,36.2352 52.0154,36.0082 51.2924,35.5602 C51.1114,33.9362 50.8554,32.2922 50.5174,30.6562 L50.5074,30.6102 C50.4754,30.4582 50.4434,30.3062 50.4104,30.1542 L50.4084,30.1462 L50.3824,30.0232 L50.3734,29.9842 L50.3714,29.9722 C50.3244,29.7632 50.2764,29.5532 50.2274,29.3432 L50.2264,29.3372 C50.2024,29.2372 50.1784,29.1372 50.1544,29.0372 L50.1494,29.0152 L50.1464,29.0042 L50.1104,28.8542 L50.0834,28.7442 L50.0704,28.6932 L50.0634,28.6652 C50.0394,28.5682 50.0144,28.4732 49.9904,28.3772 L49.9884,28.3682 L49.9514,28.2262 L49.9464,28.2062 L49.9144,28.0832 L49.8994,28.0282 C49.8734,27.9312 49.8474,27.8332 49.8214,27.7352 L49.8184,27.7262 L49.7784,27.5792 L49.7744,27.5642 L49.7334,27.4182 L49.7274,27.3972 C49.6994,27.2952 49.6704,27.1942 49.6414,27.0932 L49.6104,26.9832 L49.5954,26.9342 L49.5854,26.8992 C49.5584,26.8042 49.5304,26.7112 49.5024,26.6172 L49.4624,26.4832 L49.4544,26.4592 L49.4114,26.3172 L49.4064,26.3002 L49.3944,26.2602 C49.3654,26.1692 49.3374,26.0772 49.3084,25.9862 L49.3734,25.9922 L49.3834,25.9932 L49.3954,25.9942 L49.4584,25.9992 L49.4594,25.9992 L49.4804,26.0012 L49.5024,26.0022 L49.5234,26.0042 L49.5334,26.0052 L49.5454,26.0062 L49.5664,26.0072 L49.5874,26.0082 L49.6074,26.0102 L49.6094,26.0102 L49.6304,26.0112 L49.6514,26.0122 L49.6724,26.0142 L49.6814,26.0142 L49.6944,26.0152 L49.7154,26.0162 L49.7364,26.0162 L49.7554,26.0182 L49.7574,26.0192 L49.7784,26.0202 L49.7994,26.0202 L49.8204,26.0212 L49.8414,26.0232 L49.8624,26.0232 L49.8834,26.0242 L49.8874,26.0242 L49.9664,26.0272 L49.9744,26.0272 L49.9874,26.0282 L49.9904,26.0282 C50.2114,26.0352 50.4274,26.0342 50.6394,26.0262" id="Fill-48" fill="#E7B809"></path>
                <path d="M30.4522,8.8329 L30.4532,8.8329 L30.4532,8.8349 C33.3462,8.8349 35.8952,9.4899 38.1292,10.6459 C38.4062,10.3169 38.6232,9.8999 38.7382,9.3869 C38.8652,8.8269 38.8732,8.1519 38.7172,7.3479 C37.8922,7.6209 37.2052,7.5929 36.6762,7.3549 C36.2532,7.1649 35.9382,6.8459 35.7372,6.4379 C35.5482,6.0549 35.4642,5.5969 35.4912,5.1009 C35.5422,4.1579 36.0002,3.0539 36.9102,2.0749 C34.0082,1.3589 32.6272,2.9749 31.5682,4.2139 C30.7042,5.2259 30.0122,6.0359 28.8882,5.6219 C28.7162,5.5589 28.5672,5.4759 28.4402,5.3769 C28.0612,5.0829 27.8962,4.6769 27.8722,4.2269 C27.8522,3.8359 27.9422,3.4169 28.0882,3.0229 C28.1072,2.9689 28.1282,2.9159 28.1502,2.8629 C26.8792,3.4309 25.9362,4.2329 25.2902,5.1409 C24.7482,5.9029 24.4152,6.7409 24.2732,7.5759 C24.1342,8.3859 24.1752,9.1929 24.3792,9.9249 C26.2092,9.2219 28.2282,8.8349 30.4512,8.8349 L30.4522,8.8329 Z" id="Fill-50" fill="#FFEEC5"></path>
                <path d="M26.0471,9.3874 C25.5801,7.0614 25.7971,4.5224 28.0401,2.9144 C28.0761,2.8964 28.1131,2.8794 28.1501,2.8624 C28.1281,2.9164 28.1081,2.9694 28.0881,3.0234 C27.9421,3.4174 27.8521,3.8364 27.8721,4.2274 C27.8961,4.6774 28.0621,5.0834 28.4401,5.3774 C28.5671,5.4754 28.7161,5.5594 28.8881,5.6214 L28.9031,5.6264 L28.9241,5.6344 C29.1231,5.7034 29.3091,5.7354 29.4841,5.7334 C33.0281,6.1054 33.0531,1.7884 36.8951,2.0914 C35.9951,3.0664 35.5421,4.1644 35.4911,5.1004 C35.4641,5.5964 35.5481,6.0554 35.7371,6.4384 C35.8441,6.6544 35.9831,6.8474 36.1531,7.0064 C36.6091,7.6074 37.4841,8.0184 38.8131,8.0284 C38.8581,8.5414 38.8271,8.9934 38.7381,9.3864 C38.6231,9.8994 38.4061,10.3164 38.1291,10.6464 C35.8951,9.4904 33.3461,8.8354 30.4531,8.8354 L30.4531,8.8334 L30.4521,8.8334 L30.4511,8.8334 L30.4511,8.8344 C28.8841,8.8344 27.4171,9.0284 26.0471,9.3874" id="Fill-52" fill="#FFDA00"></path>
                <path d="M23.3673,11.3861 C21.0263,13.1071 18.4433,16.9121 16.3833,22.1471 L16.4603,22.1321 C15.8043,23.1301 15.4673,24.3471 15.5773,25.6291 L15.5763,25.6281 L15.5763,25.6301 L15.5763,25.6311 L15.5773,25.6301 C15.7083,27.1461 16.4403,28.4641 17.5173,29.3701 C18.1853,29.9331 18.9883,30.3371 19.8623,30.5321 C19.2233,30.5991 18.5343,30.5631 17.8273,30.4081 C16.4243,30.0991 15.2073,29.3791 14.3633,28.4591 C13.5303,31.7421 12.9223,35.3581 12.6523,39.2121 C12.5743,39.1591 12.4963,39.1081 12.4203,39.0561 C11.8763,38.6791 11.4083,38.2851 11.0233,37.8791 C10.8763,37.7151 10.7703,37.5961 10.7413,37.5601 L10.7293,37.5441 L10.7233,37.5381 L10.7163,37.5311 L10.7103,37.5231 L10.7053,37.5161 L10.6993,37.5081 L10.6933,37.5001 L10.6913,37.4991 L10.6573,37.4561 L10.6533,37.4511 L10.6523,37.4491 L10.6503,37.4481 L10.6423,37.4371 C10.6143,37.4011 10.5863,37.3641 10.5593,37.3281 L10.5513,37.3151 L10.5503,37.3151 L10.5453,37.3081 L10.5123,37.2631 C10.4843,37.2231 10.4563,37.1831 10.4303,37.1441 L10.4293,37.1431 L10.4293,37.1421 L10.4283,37.1401 L10.3933,37.0881 L10.3893,37.0821 L10.3903,37.0291 C10.8703,31.4481 12.2553,25.4801 14.7973,20.5441 C16.8503,16.5551 19.6633,13.2471 23.3673,11.3861" id="Fill-54" fill="#FFEEC5"></path>
                <path d="M39.8391,16.6566 C40.0941,16.6506 40.3741,16.6696 40.6611,16.7146 C39.1621,14.0966 37.5571,12.0236 36.0821,10.7486 L36.0831,10.7496 C36.1451,10.7726 36.2071,10.7966 36.2691,10.8216 L36.3081,10.8366 C36.5051,10.9146 36.6991,10.9956 36.8911,11.0806 L36.9031,11.0866 C36.9681,11.1156 37.0341,11.1456 37.0991,11.1756 L37.1011,11.1766 C37.2991,11.2676 37.4931,11.3636 37.6861,11.4626 L37.6931,11.4666 C37.9501,11.5996 38.2041,11.7396 38.4521,11.8866 L38.4581,11.8896 C38.6401,11.9976 38.8211,12.1096 38.9991,12.2246 L39.0171,12.2366 C39.0751,12.2736 39.1311,12.3106 39.1881,12.3486 L39.2051,12.3606 C39.3781,12.4766 39.5491,12.5956 39.7181,12.7176 L39.7411,12.7346 C39.9031,12.8526 40.0631,12.9736 40.2201,13.0976 L40.2631,13.1316 C40.3111,13.1696 40.3591,13.2076 40.4061,13.2456 L40.4621,13.2916 C40.6091,13.4106 40.7541,13.5326 40.8971,13.6576 L40.9511,13.7046 C40.9931,13.7416 41.0351,13.7786 41.0781,13.8166 L41.1621,13.8926 C41.2171,13.9426 41.2721,13.9926 41.3261,14.0436 L41.4361,14.1466 L41.5341,14.2386 L41.6191,14.3216 C41.6661,14.3666 41.7131,14.4126 41.7601,14.4596 C41.8071,14.5056 41.8531,14.5516 41.9001,14.5986 C41.9251,14.6246 41.9501,14.6496 41.9751,14.6756 L42.0701,14.7736 L42.1741,14.8816 L42.2581,14.9716 C42.3191,15.0366 42.3801,15.1026 42.4411,15.1686 L42.5091,15.2426 C42.5481,15.2866 42.5871,15.3306 42.6261,15.3746 L42.6751,15.4306 C42.7121,15.4716 42.7481,15.5126 42.7841,15.5546 L42.8611,15.6436 C42.9171,15.7096 42.9731,15.7746 43.0281,15.8406 L43.1131,15.9436 C43.1451,15.9806 43.1761,16.0186 43.2071,16.0566 L43.2641,16.1266 C43.3351,16.2156 43.4061,16.3046 43.4761,16.3946 L43.5141,16.4426 C43.5421,16.4786 43.5701,16.5146 43.5981,16.5516 L43.6901,16.6716 L43.7641,16.7696 C43.8131,16.8356 43.8631,16.9016 43.9121,16.9686 L43.9211,16.9816 L43.9221,16.9826 L43.9361,17.0016 C43.9841,17.0666 44.0311,17.1326 44.0791,17.1996 L44.1441,17.2906 L44.2511,17.4436 L44.3061,17.5226 C44.3561,17.5946 44.4051,17.6676 44.4551,17.7406 L44.5161,17.8326 L44.6061,17.9676 L44.6741,18.0716 C44.7101,18.1256 44.7451,18.1806 44.7801,18.2346 L44.8321,18.3166 C44.8781,18.3896 44.9241,18.4626 44.9701,18.5366 L45.0201,18.6166 C45.0571,18.6776 45.0941,18.7376 45.1311,18.7976 L45.1701,18.8636 C45.2171,18.9396 45.2631,19.0176 45.3081,19.0946 L45.3561,19.1766 C45.3921,19.2376 45.4271,19.2986 45.4621,19.3596 L45.5101,19.4436 C45.5491,19.5106 45.5871,19.5786 45.6251,19.6466 L45.6491,19.6906 C45.6971,19.7746 45.7431,19.8606 45.7901,19.9456 L45.8251,20.0096 C45.8611,20.0776 45.8981,20.1456 45.9341,20.2146 L45.9721,20.2856 C46.0171,20.3716 46.0621,20.4576 46.1071,20.5446 C46.1451,20.6176 46.1821,20.6916 46.2201,20.7656 L46.2261,20.7776 L46.2581,20.8426 C46.2861,20.8966 46.3131,20.9516 46.3401,21.0056 L46.3751,21.0776 L46.4491,21.2296 L46.4931,21.3216 L46.5631,21.4666 L46.6091,21.5646 L46.6691,21.6936 L46.7181,21.7996 L46.7801,21.9326 L46.8331,22.0516 L46.8781,22.1516 L46.9381,22.2856 L46.9871,22.3976 L47.0431,22.5266 L47.0881,22.6296 L47.1441,22.7616 L47.1861,22.8616 L47.2521,23.0176 L47.2841,23.0956 L47.3401,23.2336 L47.3911,23.3566 L47.4431,23.4866 L47.4891,23.6046 L47.5321,23.7136 L47.5771,23.8296 C47.6271,23.9576 47.6761,24.0856 47.7251,24.2146 L47.7481,24.2776 C47.9441,24.8036 48.1301,25.3356 48.3051,25.8726 L48.3241,25.9306 L48.3811,26.1076 L48.4051,26.1816 C48.4521,26.3316 48.4991,26.4816 48.5451,26.6316 L48.5561,26.6696 L48.6121,26.8546 L48.6381,26.9396 L48.6871,27.1066 L48.7111,27.1896 L48.7631,27.3686 L48.7801,27.4266 L48.8321,27.6116 L48.8601,27.7116 L48.9011,27.8596 L48.9311,27.9726 L48.9681,28.1056 L49.0041,28.2426 L49.0401,28.3776 L49.0511,28.4226 C49.1791,28.9106 49.2981,29.4006 49.4101,29.8926 L49.4121,29.9006 L49.4621,30.1236 L49.4691,30.1556 L49.5161,30.3706 L49.5261,30.4146 C49.5601,30.5746 49.5941,30.7336 49.6261,30.8936 L49.6331,30.9236 L49.6741,31.1306 L49.6851,31.1826 L49.7251,31.3866 L49.7371,31.4486 L49.7741,31.6386 L49.7851,31.6976 L49.8241,31.9056 L49.8331,31.9536 L49.8681,32.1476 L49.8821,32.2286 L49.9161,32.4196 L49.9221,32.4516 C50.1411,33.7136 50.3121,34.9756 50.4381,36.2216 C49.9671,37.6216 48.5411,38.9136 46.4441,39.9996 C46.6471,36.1806 46.2021,32.3416 45.3481,28.7326 C44.6421,29.2776 43.7851,29.7026 42.8371,29.9396 C43.1261,29.7746 43.3991,29.5836 43.6531,29.3706 C44.7301,28.4636 45.4621,27.1456 45.5931,25.6306 L45.5941,25.6306 L45.5941,25.6296 L45.5931,25.6286 C45.7231,24.1136 45.2281,22.6886 44.3211,21.6116 C43.7681,20.9526 43.0591,20.4236 42.2461,20.0816 C41.4331,19.0406 40.6341,18.3406 40.0661,17.9146 C40.2611,18.0266 40.5131,17.9826 40.6561,17.8006 C40.8131,17.6016 40.7781,17.3126 40.5791,17.1566 L40.5751,17.1536 C40.4251,17.0356 40.2661,16.9226 40.0991,16.8146 C40.0141,16.7606 39.9271,16.7076 39.8391,16.6566" id="Fill-56" fill="#E7B809"></path>
                <path d="M39.4437,57.196 C36.7707,57.795 33.6037,58.142 30.2077,58.142 C22.9617,58.142 16.7537,56.564 14.1697,54.323 C13.9167,53.985 13.6737,53.637 13.4417,53.279 L13.5787,53.33 L13.6567,53.358 L13.6597,53.359 C13.7337,53.386 13.8067,53.413 13.8797,53.438 L13.8807,53.438 L13.9287,53.455 C14.0527,53.499 14.1777,53.544 14.3047,53.587 L14.3257,53.593 L14.3337,53.596 C14.4057,53.62 14.4777,53.646 14.5507,53.669 L14.6667,53.707 L14.8267,53.76 C14.9357,53.795 15.0447,53.83 15.1547,53.866 L15.2597,53.898 L15.4687,53.962 L15.4717,53.963 L15.6187,54.007 L15.7207,54.038 L15.7337,54.042 L15.9377,54.102 L16.0867,54.146 L16.2037,54.179 L16.2137,54.182 L16.4127,54.238 L16.4227,54.241 L16.5397,54.273 L16.6967,54.317 L16.7007,54.317 L16.8937,54.37 L16.9027,54.372 L17.0277,54.406 C17.1527,54.438 17.2767,54.47 17.4027,54.503 L17.5367,54.535 L17.6687,54.568 L17.7927,54.599 L17.8927,54.623 L18.0397,54.658 L18.1757,54.69 L18.2637,54.711 L18.4077,54.744 L18.5547,54.778 L18.6587,54.802 L18.8487,54.843 L18.8897,54.852 L19.0617,54.889 L19.1897,54.916 L19.2927,54.938 L19.4417,54.969 L19.5487,54.99 L19.7127,55.023 L19.8177,55.045 L19.9457,55.069 L20.0847,55.096 L20.2307,55.124 L20.3587,55.147 L20.4647,55.167 L20.6127,55.194 L20.7617,55.221 L20.8757,55.241 L20.9967,55.262 L21.1417,55.286 L21.2987,55.312 L21.4057,55.33 L21.5477,55.353 L21.6667,55.372 L21.8407,55.399 L21.9467,55.415 L22.0727,55.434 L22.2207,55.456 L22.3827,55.48 L22.4767,55.493 L22.6487,55.518 L22.7577,55.532 L22.9057,55.552 L23.0527,55.571 L23.1587,55.585 L23.3217,55.606 L23.4587,55.623 L23.6027,55.64 L23.7227,55.654 L23.8657,55.671 L24.0667,55.693 L24.1197,55.699 L24.3347,55.722 L24.4057,55.73 L24.6257,55.752 L24.6907,55.759 L24.8597,55.775 L25.0007,55.789 L25.0997,55.798 L25.2987,55.816 L25.3567,55.821 L25.5607,55.838 L25.7617,55.854 L25.8207,55.859 L26.0187,55.874 L26.1177,55.882 L26.3807,55.9 L26.3827,55.9 L26.5947,55.914 L26.6977,55.92 L26.9167,55.934 L26.9697,55.937 L27.1807,55.948 L27.2697,55.954 L27.4437,55.962 L27.5647,55.968 L27.7187,55.975 L27.8507,55.981 L28.0287,55.987 L28.1287,55.991 L28.1627,55.992 L28.2607,55.996 L28.4397,56.002 L28.4517,56.002 C28.5397,56.005 28.6287,56.007 28.7177,56.011 L28.7407,56.01 C28.8317,56.012 28.9217,56.015 29.0127,56.018 C29.2787,56.022 29.5467,56.026 29.8137,56.028 L29.9017,56.028 L29.9067,56.028 C30.0037,56.03 30.1017,56.03 30.1997,56.03 L30.1997,56.031 L30.2007,56.031 L30.2027,56.031 L30.2027,56.03 C30.3017,56.03 30.4017,56.03 30.5007,56.028 L30.5097,56.028 C30.6057,56.028 30.7017,56.028 30.7977,56.026 L30.8007,56.026 C30.8767,56.026 30.9527,56.024 31.0277,56.024 L31.1007,56.022 L31.2327,56.019 L31.4137,56.017 L31.5437,56.013 L31.7097,56.009 L31.8137,56.006 L32.0147,56 L32.1537,55.995 L32.3047,55.99 L32.4347,55.986 L32.6037,55.978 L32.7697,55.971 L32.8977,55.965 L33.0417,55.958 L33.1947,55.95 L33.3607,55.941 L33.4917,55.933 L33.6147,55.926 L33.7987,55.915 L33.9157,55.907 L34.1087,55.894 L34.1787,55.889 L34.3917,55.873 L34.4967,55.865 L34.6987,55.85 L34.7667,55.844 L34.9637,55.828 L35.1097,55.815 L35.2577,55.802 L35.3697,55.792 L35.5417,55.775 L35.6727,55.763 L35.8537,55.744 L35.9417,55.735 L36.1247,55.716 L36.2447,55.703 L36.4497,55.68 L36.5037,55.674 L36.7097,55.651 L36.8147,55.638 L37.0217,55.613 L37.0767,55.606 L37.2617,55.583 L37.3937,55.565 L37.5537,55.545 L37.6557,55.53 L37.8697,55.501 L37.9307,55.492 L38.1677,55.458 L38.2097,55.452 C38.2847,55.441 38.3597,55.431 38.4347,55.418 L38.4947,55.41 L38.6947,55.378 L38.7747,55.366 C38.8557,55.353 38.9357,55.34 39.0167,55.327 L39.0457,55.322 C39.1887,55.298 39.3307,55.274 39.4737,55.251 L39.6067,55.226 C39.6957,55.211 39.7847,55.196 39.8727,55.179 L39.8737,55.179 C39.9627,55.163 40.0517,55.147 40.1397,55.13 L40.1467,55.128 L40.2207,55.114 L40.4197,55.076 C40.5027,55.06 40.5857,55.045 40.6677,55.029 L40.6697,55.027 L40.8437,54.992 L40.9417,54.973 L41.1217,54.935 L41.1997,54.919 L41.3407,54.889 L41.3727,54.882 C41.5147,54.851 41.6557,54.821 41.7957,54.789 L41.7967,54.789 C42.1417,54.711 42.4837,54.631 42.8207,54.546 L42.8567,54.537 C43.1837,54.456 43.5067,54.372 43.8257,54.283 L43.8747,54.27 L44.0487,54.222 L44.1487,54.194 L44.2477,54.165 L44.2607,54.161 L44.3467,54.136 L44.4187,54.115 L44.4447,54.109 L44.5277,54.083 L44.5437,54.079 L44.6167,54.057 L44.7397,54.021 L44.7687,54.012 L44.8367,53.991 L44.8557,53.985 L44.8567,53.985 L45.0807,53.916 L45.0837,53.916 L45.2237,53.872 L45.2697,53.857 L45.3737,53.824 L45.4987,53.785 L45.5117,53.78 L45.5817,53.758 L45.6067,53.749 L45.7017,53.718 L45.7047,53.718 L45.7967,53.687 L45.8007,53.686 L45.8807,53.659 L45.8907,53.655 L45.9407,53.639 L45.9427,53.638 L46.0527,53.601 L46.2257,53.542 L46.2647,53.529 L46.2677,53.527 L46.2777,53.524 L46.2807,53.522 L46.4657,53.457 L46.5007,53.445 L46.6727,53.383 L46.7177,53.367 L46.7257,53.364 L46.7317,53.362 L46.7467,53.358 L46.9487,53.283 L46.9507,53.282 L46.9517,53.282 L46.9587,53.279 L46.9627,53.278 L46.9667,53.277 L46.9687,53.275 L46.9747,53.273 L46.9787,53.272 L46.9827,53.27 L46.9837,53.27 L46.9907,53.267 L46.9947,53.266 L46.9987,53.264 L46.9997,53.264 L47.0067,53.261 L47.0107,53.26 L47.0147,53.258 L47.0157,53.258 L47.0227,53.255 L47.0267,53.254 L47.0307,53.254 L47.0317,53.252 L47.0387,53.25 L47.0427,53.248 L47.0467,53.247 L47.0477,53.246 L47.0547,53.245 L47.0587,53.242 L47.0627,53.241 L47.0627,53.24 L47.0707,53.238 L47.0747,53.236 L47.0777,53.235 L47.0787,53.234 L47.1217,53.218 L47.1257,53.218 L47.1377,53.212 L47.1417,53.211 L47.1497,53.209 L47.1537,53.206 L47.1577,53.205 L47.1697,53.2 L47.1737,53.199 L47.1817,53.196 L47.1857,53.194 L47.1897,53.193 L47.1937,53.191 L47.1967,53.19 L47.2007,53.188 L47.2047,53.187 C47.3457,53.133 47.4867,53.08 47.6247,53.025 C45.4017,56.558 42.0497,59.222 38.1427,60.698 L38.1377,60.7 C36.7217,61.234 35.2387,61.617 33.7177,61.841 C35.9607,60.448 37.8567,58.887 39.4437,57.196" id="Fill-58" fill="#E7B809"></path>
                <path d="M9.475,37.5292 C9.474,37.4952 9.473,37.4612 9.472,37.4272 C9.473,37.4612 9.474,37.4952 9.475,37.5292 M55.861,41.5562 C55.971,41.8742 56.06,42.1892 56.129,42.4992 C56.192,42.8272 56.224,43.1572 56.224,43.4872 L56.225,43.4872 C56.225,46.6252 53.278,49.5002 48.608,51.6122 C43.826,53.7752 37.273,55.1122 30.202,55.1132 L30.202,55.1112 L30.2,55.1112 L30.199,55.1112 L30.199,55.1132 C23.128,55.1132 16.575,53.7752 11.793,51.6122 C7.995,49.8952 5.337,47.6722 4.476,45.2142 C4.99,45.4802 5.551,45.7362 6.16,45.9792 C7.705,46.5952 8.901,46.9342 9.82,46.9362 C10.395,46.9372 10.751,46.9462 11.331,46.7072 C11.809,46.4872 12.12,46.1262 12.303,45.6672 C12.934,44.0852 11.806,41.3792 11.012,39.4752 C10.932,39.2832 10.856,39.0992 10.786,38.9292 C11.119,39.2332 11.49,39.5272 11.899,39.8102 C15.662,42.4192 22.648,44.1752 30.2,44.1752 L30.203,44.1752 L30.203,44.1732 C32.296,44.1732 34.338,44.0412 36.276,43.7962 C37.549,43.6352 38.768,43.4272 39.918,43.1792 C45.799,41.9082 50.201,39.5042 51.267,36.6272 C51.665,36.8752 52.039,37.1282 52.388,37.3852 C52.799,37.6882 53.181,38.0002 53.531,38.3202 C54.653,39.3442 55.439,40.4352 55.861,41.5562" id="Fill-60" fill="#FEFEFE"></path>
                <path d="M46.6219,40.9206 C48.0879,41.6096 52.8569,44.4176 50.1739,50.8406 L50.1769,50.8386 C51.1059,50.3396 51.9459,49.8066 52.6829,49.2446 L52.7129,49.2226 C52.7549,49.1906 52.7959,49.1586 52.8359,49.1276 L52.8449,49.1206 C53.1579,48.8746 53.4529,48.6246 53.7259,48.3686 L53.7429,48.3526 C53.7789,48.3196 53.8139,48.2856 53.8489,48.2526 L53.8599,48.2426 C53.8949,48.2076 53.9309,48.1736 53.9659,48.1386 L53.9779,48.1276 C54.1909,47.9156 54.3909,47.7006 54.5759,47.4826 L54.6159,47.4356 C54.6379,47.4096 54.6579,47.3846 54.6789,47.3596 L54.7169,47.3136 C54.7369,47.2886 54.7569,47.2636 54.7769,47.2386 L54.8149,47.1906 C54.8359,47.1626 54.8569,47.1356 54.8779,47.1086 L54.9049,47.0726 C54.9259,47.0446 54.9469,47.0166 54.9679,46.9886 L54.9959,46.9496 C55.0469,46.8796 55.0959,46.8096 55.1439,46.7396 C55.1709,46.6996 55.1969,46.6596 55.2229,46.6196 L55.2239,46.6196 L55.2579,46.5656 C55.2759,46.5376 55.2929,46.5116 55.3099,46.4836 L55.3399,46.4336 L55.3839,46.3626 L55.4249,46.2926 L55.4589,46.2316 C55.4719,46.2086 55.4849,46.1856 55.4979,46.1626 L55.5299,46.1036 L55.5659,46.0366 C55.5769,46.0146 55.5889,45.9916 55.6009,45.9686 L55.6359,45.8996 L55.6539,45.8626 C55.6689,45.8316 55.6839,45.8006 55.6979,45.7696 L55.7059,45.7516 C55.7279,45.7036 55.7499,45.6556 55.7699,45.6086 C55.7849,45.5756 55.7989,45.5436 55.8119,45.5106 L55.8309,45.4636 C55.8419,45.4356 55.8529,45.4086 55.8629,45.3816 L55.8849,45.3226 C55.8949,45.2976 55.9039,45.2716 55.9129,45.2466 L55.9339,45.1856 L55.9599,45.1086 L55.9769,45.0566 C55.9869,45.0276 55.9959,44.9986 56.0039,44.9686 L56.0189,44.9186 C56.0279,44.8866 56.0369,44.8546 56.0459,44.8226 L56.0559,44.7866 C56.0639,44.7536 56.0719,44.7206 56.0799,44.6876 L56.0909,44.6446 C56.1119,44.5546 56.1299,44.4646 56.1459,44.3746 L56.1549,44.3246 C56.1599,44.2956 56.1649,44.2666 56.1689,44.2366 C56.1719,44.2176 56.1739,44.1996 56.1769,44.1806 C56.1799,44.1556 56.1839,44.1296 56.1869,44.1036 L56.1949,44.0396 C56.1969,44.0136 56.1999,43.9886 56.2019,43.9626 L56.2079,43.9006 C56.2099,43.8756 56.2119,43.8496 56.2139,43.8246 L56.2179,43.7646 C56.2189,43.7356 56.2199,43.7056 56.2209,43.6756 L56.2229,43.6246 C56.2249,43.5786 56.2259,43.5336 56.2259,43.4876 L56.2239,43.4876 C56.2239,41.6966 55.2889,39.9256 53.5309,38.3206 C53.1809,38.0006 52.7989,37.6886 52.3879,37.3856 C52.0389,37.1286 51.6659,36.8756 51.2679,36.6276 C50.6759,38.2226 49.0589,39.6726 46.7329,40.8636 L46.7049,40.8786 L46.6219,40.9206 Z" id="Fill-62" fill="#EC1D24"></path>
                <path d="M9.7777,46.936 C9.7377,48.153 10.0387,49.563 10.8787,51.178 L10.8517,51.164 C10.0097,50.743 9.2337,50.296 8.5317,49.825 L8.5257,49.821 C6.4817,48.451 5.0637,46.887 4.4777,45.215 C4.9907,45.481 5.5507,45.736 6.1607,45.979 C7.6807,46.586 8.8647,46.924 9.7777,46.936 M13.8887,40.967 C13.4597,41.197 12.7637,41.623 12.0657,42.259 C11.7667,41.285 11.3577,40.304 11.0117,39.475 C10.9317,39.283 10.8567,39.1 10.7867,38.93 C10.9837,39.11 11.1947,39.287 11.4197,39.46 L11.4237,39.463 L11.4367,39.474 L11.4547,39.487 L11.4557,39.488 L11.4727,39.501 C11.5027,39.524 11.5327,39.546 11.5627,39.569 L11.5817,39.582 L11.5887,39.588 L11.5997,39.596 L11.6017,39.597 L11.6357,39.623 L11.6547,39.636 L11.6567,39.638 L11.6727,39.65 L11.6907,39.663 L11.6917,39.663 L11.7097,39.677 L11.7247,39.687 L11.7287,39.69 L11.7477,39.704 L11.7587,39.712 L11.7667,39.717 L11.7847,39.73 L11.7937,39.737 L11.8037,39.744 L11.8227,39.757 L11.8287,39.761 L11.8417,39.77 L11.8607,39.784 L11.8637,39.786 L11.8797,39.797 L11.8987,39.81 C12.0157,39.891 12.1357,39.972 12.2587,40.051 L12.2607,40.052 L12.2667,40.056 C12.3247,40.093 12.3837,40.13 12.4427,40.167 L12.4427,40.168 L12.4487,40.171 L12.4537,40.175 C12.5157,40.213 12.5767,40.25 12.6397,40.288 L12.6437,40.29 C12.7027,40.326 12.7637,40.362 12.8247,40.398 L12.8547,40.415 C12.9117,40.448 12.9697,40.481 13.0277,40.514 L13.0397,40.521 L13.0497,40.526 C13.1117,40.561 13.1757,40.596 13.2387,40.631 L13.2457,40.634 L13.2527,40.638 C13.3177,40.673 13.3827,40.709 13.4497,40.743 L13.4557,40.747 L13.4567,40.747 C13.5257,40.784 13.5957,40.82 13.6667,40.856 L13.6707,40.858 L13.6837,40.865 C13.7517,40.899 13.8197,40.933 13.8887,40.967" id="Fill-64" fill="#EC1D24"></path>
                <path d="M21.2422,54.3741 C19.4822,51.5471 20.2642,44.5401 22.5282,43.5571 L22.5382,43.5591 L22.6652,43.5801 L22.7972,43.6011 L22.9382,43.6231 L23.0962,43.6481 L23.2102,43.6651 L23.3252,43.6821 L23.4402,43.6981 L23.6332,43.7261 L23.7372,43.7401 C23.8272,43.7521 23.9172,43.7651 24.0072,43.7761 L24.0182,43.7781 L24.0212,43.7781 L24.0382,43.7801 C24.1262,43.7921 24.2142,43.8031 24.3022,43.8141 L24.4042,43.8261 C24.7042,43.8631 25.0062,43.8971 25.3112,43.9281 L25.3532,43.9321 L25.3752,43.9341 C25.4732,43.9441 25.5702,43.9541 25.6682,43.9631 L25.6902,43.9651 L25.7202,43.9681 C25.8222,43.9771 25.9242,43.9861 26.0272,43.9961 L26.0292,43.9961 C26.5882,44.0441 27.1532,44.0831 27.7232,44.1121 L27.7702,44.1141 C27.8752,44.1191 27.9792,44.1241 28.0842,44.1291 L28.0922,44.1291 L28.0932,44.1291 L28.1122,44.1301 C28.2132,44.1341 28.3152,44.1381 28.4162,44.1421 L28.4422,44.1431 L28.4612,44.1441 C28.5672,44.1481 28.6742,44.1511 28.7812,44.1541 L28.7962,44.1551 C28.9102,44.1581 29.0232,44.1611 29.1362,44.1631 L29.1502,44.1631 C29.4992,44.1711 29.8492,44.1761 30.2002,44.1761 L30.2032,44.1751 L30.2032,44.1731 C32.2962,44.1731 34.3382,44.0411 36.2762,43.7971 L36.3272,43.7891 L36.3352,43.7881 L36.3532,43.7861 L36.3792,43.7831 L36.3952,43.7811 L36.4052,43.7791 L36.4312,43.7761 L36.4542,43.7731 L36.4572,43.7731 L36.4832,43.7691 L36.5092,43.7661 L36.5142,43.7651 L36.5342,43.7621 L36.6322,43.7491 L36.6382,43.7491 L36.6632,43.7451 L36.6892,43.7421 L36.6912,43.7411 L36.6932,43.7411 L36.7502,43.7331 L36.7662,43.7311 L36.7922,43.7281 L36.8092,43.7251 L36.8182,43.7241 L36.8432,43.7211 L36.8682,43.7171 L36.8692,43.7171 L36.8952,43.7131 L36.9202,43.7101 L36.9272,43.7091 L36.9462,43.7061 L36.9862,43.7001 L36.9972,43.6991 L37.0222,43.6951 L37.0262,43.6951 L37.1752,43.6731 L37.2012,43.6691 L37.2032,43.6691 L37.2522,43.6621 L37.2772,43.6581 L37.2782,43.6581 L37.3022,43.6541 L37.3282,43.6501 L37.3362,43.6491 L37.3532,43.6471 L37.3782,43.6431 L37.3952,43.6401 L37.4042,43.6391 L37.4292,43.6351 L37.4532,43.6311 L37.4542,43.6311 L37.5022,43.6241 L37.5052,43.6231 L37.5112,43.6231 L37.6812,43.5961 L37.6842,43.5951 L37.7062,43.5921 L37.7312,43.5881 L37.7422,43.5861 L37.7562,43.5841 L37.7812,43.5801 L37.7992,43.5771 L37.8062,43.5761 L37.8312,43.5721 L37.8562,43.5681 L37.8572,43.5681 L37.9032,43.5601 L37.9062,43.5591 C40.1662,44.5481 40.9462,51.5401 39.1922,54.3681 L39.1642,54.3731 L38.9722,54.4051 L38.9262,54.4131 L38.7932,54.4341 L38.7162,54.4471 L38.5872,54.4671 L38.3932,54.4981 L38.3922,54.4981 L38.2582,54.5181 L38.1332,54.5371 L38.1242,54.5381 L37.9892,54.5581 C37.9032,54.5711 37.8172,54.5831 37.7302,54.5951 L37.6952,54.6001 L37.4622,54.6321 L37.4472,54.6341 L37.3102,54.6521 L37.2972,54.6541 L37.2112,54.6651 L36.9712,54.6961 L36.9512,54.6981 L36.9002,54.7051 L36.7122,54.7281 L36.5452,54.7471 L36.4172,54.7621 L36.2542,54.7801 L36.0662,54.8011 L35.9712,54.8111 L35.7602,54.8331 L35.6572,54.8441 L35.6552,54.8441 L35.5162,54.8571 L35.4992,54.8591 L35.3292,54.8751 L35.1162,54.8951 L35.0242,54.9031 C34.9382,54.9101 34.8512,54.9181 34.7642,54.9251 L34.7382,54.9271 C34.6542,54.9341 34.5692,54.9411 34.4842,54.9471 L34.3972,54.9541 L34.1682,54.9711 L34.0242,54.9811 L33.8982,54.9901 L33.7432,55.0001 L33.5242,55.0131 L33.4162,55.0201 L33.1922,55.0321 L33.1202,55.0361 L33.1082,55.0371 L32.9642,55.0441 L32.9422,55.0461 L32.7312,55.0551 C32.5612,55.0631 32.3912,55.0701 32.2212,55.0761 L32.1342,55.0791 C32.0402,55.0821 31.9452,55.0851 31.8502,55.0881 L31.8482,55.0881 C31.7402,55.0921 31.6332,55.0941 31.5252,55.0971 L31.5222,55.0971 L31.5182,55.0971 C31.1922,55.1051 30.8642,55.1101 30.5362,55.1121 L30.5312,55.1121 C30.4222,55.1121 30.3122,55.1131 30.2022,55.1131 L30.2022,55.1111 L30.2002,55.1111 L30.1992,55.1111 L30.1992,55.1131 C29.7612,55.1131 29.3252,55.1071 28.8922,55.0971 L28.8882,55.0971 L28.8802,55.0971 L28.8592,55.0961 C28.6522,55.0911 28.4452,55.0861 28.2392,55.0781 L28.2132,55.0771 C28.0062,55.0701 27.8012,55.0631 27.5952,55.0521 L27.5912,55.0521 L27.5742,55.0511 L27.5432,55.0491 C27.3442,55.0401 27.1452,55.0291 26.9472,55.0181 L26.9132,55.0161 C26.8162,55.0101 26.7192,55.0041 26.6222,54.9981 L26.6052,54.9971 L26.5922,54.9961 L26.3082,54.9761 L26.2452,54.9721 L25.9922,54.9531 L25.9352,54.9491 C25.7322,54.9331 25.5302,54.9171 25.3292,54.8991 L25.3242,54.8981 C25.2322,54.8901 25.1412,54.8831 25.0492,54.8731 L24.9362,54.8621 L24.9052,54.8591 L24.7662,54.8461 L24.7432,54.8431 L24.6492,54.8341 L24.4252,54.8111 L24.3502,54.8031 L24.1302,54.7791 L24.0122,54.7651 L23.7952,54.7401 L23.7232,54.7321 C23.5312,54.7091 23.3392,54.6861 23.1492,54.6601 L23.1412,54.6591 L23.1172,54.6561 C23.0262,54.6441 22.9352,54.6331 22.8452,54.6201 L22.8342,54.6181 L22.5632,54.5801 L22.4882,54.5691 L22.2452,54.5341 L22.2052,54.5281 L21.9752,54.4931 L21.8782,54.4781 L21.6532,54.4421 L21.5632,54.4271 L21.3992,54.4001 L21.2552,54.3761 L21.2422,54.3741 Z" id="Fill-66" fill="#EC1D24"></path>
                <path d="M9.8171,46.936 C9.7971,47.306 9.8071,47.697 9.8501,48.108 C9.5501,48.472 8.3771,48.94 7.3201,48.932 C5.9211,47.788 4.9391,46.535 4.4771,45.215 C4.9901,45.48 5.5511,45.737 6.1601,45.98 C7.7031,46.595 8.8991,46.934 9.8171,46.936" id="Fill-68" fill="#B7292F"></path>
                <path d="M10.8999,46.8518 C10.6519,47.2108 10.2899,47.6848 9.8499,48.1078 C9.8069,47.6968 9.7979,47.3068 9.8179,46.9368 L9.8199,46.9368 C10.2399,46.9378 10.5419,46.9418 10.8999,46.8518" id="Fill-70" fill="#D0D2D3"></path>
                <path d="M49.2368,51.3183 L49.2528,51.3103 L49.2558,51.3093 L49.2928,51.2913 L49.2368,51.3183 Z M48.8248,51.5133 L48.8258,51.5133 L48.8288,51.5113 L48.8248,51.5133 Z M46.7938,52.3613 C47.3678,52.1453 47.9218,51.9173 48.4548,51.6803 L48.4478,51.6843 C47.9528,51.9033 47.3948,52.1313 46.7938,52.3613 Z M39.2728,54.3543 C39.8608,54.2533 40.4398,54.1423 41.0078,54.0223 C40.4398,54.1423 39.8608,54.2533 39.2728,54.3543 Z M39.5438,53.6603 C36.0908,54.3703 31.8858,54.8483 26.7698,55.0073 L26.7758,55.0073 C27.1858,55.0323 27.5988,55.0533 28.0138,55.0693 L28.0958,55.0733 L28.0978,55.0733 L28.1508,55.0753 L28.3198,55.0813 L28.5248,55.0873 L28.5768,55.0893 L28.5798,55.0893 L28.6328,55.0903 L28.8248,55.0953 L28.9018,55.0973 L28.9558,55.0983 L28.9648,55.0993 L29.1628,55.1033 L29.2248,55.1043 C29.3148,55.1053 29.4048,55.1073 29.4948,55.1083 L29.5378,55.1093 L29.5488,55.1093 C29.6498,55.1103 29.7498,55.1113 29.8508,55.1113 L29.8688,55.1113 L29.8738,55.1113 L29.9278,55.1123 C30.0188,55.1123 30.1088,55.1133 30.1998,55.1133 L30.1998,55.1113 L30.2028,55.1113 L30.2028,55.1133 C33.3668,55.1123 36.4278,54.8443 39.2718,54.3543 C39.3838,54.1293 39.4798,53.8723 39.5438,53.6603 Z M54.8868,39.8043 C54.9968,42.6253 54.3388,46.0913 50.7678,49.0063 C50.6378,49.5823 50.4438,50.1933 50.1738,50.8403 L50.1768,50.8383 L50.1878,50.8323 L50.1878,50.8333 C50.0618,50.9003 49.9348,50.9673 49.8068,51.0333 C53.7768,48.9893 56.2248,46.3463 56.2248,43.4873 L56.2238,43.4873 C56.2238,42.2333 55.7648,40.9883 54.8868,39.8043 Z" id="Fill-72" fill="#B7292F"></path>
                <path d="M21.139,17.8783 C20.94,18.0343 20.651,18.0003 20.495,17.8013 C20.338,17.6013 20.373,17.3123 20.572,17.1563 L20.576,17.1533 C20.726,17.0353 20.885,16.9223 21.052,16.8153 C21.215,16.7103 21.383,16.6123 21.557,16.5233 C22.432,16.0683 23.411,15.8283 24.396,15.8223 C24.775,15.8123 25.15,15.7623 25.515,15.6733 L25.551,15.6643 L25.551,15.6653 C25.799,15.6223 26.036,15.7893 26.079,16.0383 C26.122,16.2863 25.956,16.5233 25.708,16.5673 L25.708,16.5683 C25.236,16.6813 24.751,16.7393 24.266,16.7403 C23.465,16.7643 22.683,16.9693 21.978,17.3363 C21.833,17.4113 21.69,17.4943 21.549,17.5853 C21.413,17.6733 21.277,17.7693 21.142,17.8753 L21.139,17.8783 Z" id="Fill-74" fill="#231F20"></path>
                <path d="M40.0126,17.8783 C40.2116,18.0343 40.4996,18.0003 40.6566,17.8013 C40.8136,17.6013 40.7786,17.3123 40.5786,17.1563 L40.5756,17.1533 C40.4256,17.0353 40.2666,16.9223 40.0996,16.8153 C39.9366,16.7103 39.7686,16.6123 39.5946,16.5233 C38.7196,16.0683 37.7406,15.8283 36.7556,15.8223 C36.3766,15.8123 36.0016,15.7623 35.6366,15.6733 L35.6006,15.6643 L35.6006,15.6653 C35.3526,15.6223 35.1156,15.7893 35.0726,16.0383 C35.0296,16.2863 35.1956,16.5233 35.4436,16.5673 L35.4436,16.5683 C35.9156,16.6813 36.4006,16.7393 36.8856,16.7403 C37.6866,16.7643 38.4686,16.9693 39.1736,17.3363 C39.3186,17.4113 39.4616,17.4943 39.6026,17.5853 C39.7386,17.6733 39.8746,17.7693 40.0096,17.8753 L40.0126,17.8783 Z" id="Fill-76" fill="#231F20"></path>
                <path d="M20.5899,19.6718 L20.5899,19.6698 L20.5889,19.6698 L20.5889,19.6708 L20.5889,19.6718 C19.0729,19.8028 17.7549,20.5348 16.8489,21.6118 C15.9419,22.6888 15.4469,24.1138 15.5769,25.6288 L15.5759,25.6288 L15.5759,25.6298 L15.5759,25.6308 L15.5779,25.6308 C15.7079,27.1458 16.4399,28.4638 17.5169,29.3708 C18.5949,30.2768 20.0189,30.7728 21.5349,30.6418 L21.5349,30.6438 L21.5359,30.6428 L21.5359,30.6418 C23.0509,30.5108 24.3699,29.7788 25.2759,28.7018 C26.1829,27.6248 26.6779,26.1998 26.5469,24.6848 L26.5489,24.6838 L26.5489,24.6828 L26.5469,24.6828 C26.4169,23.1678 25.6849,21.8498 24.6079,20.9428 C23.5299,20.0368 22.1059,19.5408 20.5899,19.6718" id="Fill-78" fill="#231F20"></path>
                <path d="M20.6715,20.6234 L20.6715,20.6214 C21.9225,20.5144 23.0995,20.9244 23.9915,21.6754 C24.8835,22.4254 25.4895,23.5144 25.5975,24.7654 L25.5955,24.7654 L25.5955,24.7664 L25.5975,24.7664 C25.7055,26.0164 25.2945,27.1944 24.5445,28.0864 C23.7935,28.9784 22.7045,29.5834 21.4535,29.6914 L21.4535,29.6904 L21.4525,29.6904 L21.4525,29.6914 C20.2025,29.7994 19.0245,29.3894 18.1325,28.6384 C17.2415,27.8884 16.6355,26.7984 16.5275,25.5484 L16.5285,25.5484 L16.5285,25.5464 L16.5275,25.5464 C16.4195,24.2964 16.8305,23.1194 17.5805,22.2274 C18.3305,21.3354 19.4205,20.7294 20.6705,20.6224 L20.6715,20.6234 Z" id="Fill-80" fill="#FEFEFE"></path>
                <path d="M21.2943,23.5394 C22.5283,23.5394 23.5293,24.5404 23.5293,25.7744 C23.5293,27.0094 22.5283,28.0104 21.2943,28.0104 C20.0603,28.0104 19.0593,27.0094 19.0593,25.7744 C19.0593,24.5404 20.0603,23.5394 21.2943,23.5394" id="Fill-82" fill="#231F20"></path>
                <path d="M21.2943,25.408 C21.6443,25.408 21.9283,25.693 21.9283,26.043 C21.9283,26.392 21.6443,26.676 21.2943,26.676 C20.9443,26.676 20.6603,26.392 20.6603,26.043 C20.6603,25.692 20.9443,25.409 21.2943,25.408" id="Fill-84" fill="#FEFEFE"></path>
                <path d="M40.5807,19.6718 L40.5807,19.6698 L40.5817,19.6698 L40.5817,19.6708 L40.5817,19.6718 C42.0977,19.8028 43.4157,20.5348 44.3217,21.6118 C45.2287,22.6888 45.7237,24.1138 45.5937,25.6288 L45.5947,25.6288 L45.5947,25.6298 L45.5947,25.6308 L45.5927,25.6308 C45.4627,27.1458 44.7307,28.4638 43.6537,29.3708 C42.5767,30.2768 41.1517,30.7728 39.6357,30.6418 L39.6357,30.6438 L39.6347,30.6428 L39.6347,30.6418 C38.1197,30.5108 36.8007,29.7788 35.8947,28.7018 C34.9877,27.6248 34.4927,26.1998 34.6237,24.6848 L34.6217,24.6838 L34.6217,24.6828 L34.6237,24.6828 C34.7537,23.1678 35.4857,21.8498 36.5627,20.9428 C37.6407,20.0368 39.0647,19.5408 40.5807,19.6718" id="Fill-86" fill="#231F20"></path>
                <path d="M40.499,20.6234 L40.499,20.6214 C39.248,20.5144 38.071,20.9244 37.179,21.6754 C36.287,22.4254 35.681,23.5144 35.573,24.7654 L35.575,24.7654 L35.575,24.7664 L35.573,24.7664 C35.466,26.0164 35.876,27.1944 36.626,28.0864 C37.377,28.9784 38.466,29.5834 39.717,29.6914 L39.717,29.6904 L39.718,29.6904 L39.718,29.6914 C40.968,29.7994 42.146,29.3894 43.038,28.6384 C43.93,27.8884 44.535,26.7984 44.643,25.5484 L44.642,25.5484 L44.642,25.5464 L44.643,25.5464 C44.751,24.2964 44.34,23.1194 43.59,22.2274 C42.84,21.3354 41.75,20.7294 40.5,20.6224 L40.499,20.6234 Z" id="Fill-88" fill="#FEFEFE"></path>
                <path d="M39.8763,23.5394 C38.6423,23.5394 37.6413,24.5404 37.6413,25.7744 C37.6413,27.0094 38.6423,28.0104 39.8763,28.0104 C41.1103,28.0104 42.1113,27.0094 42.1113,25.7744 C42.1113,24.5404 41.1103,23.5394 39.8763,23.5394" id="Fill-90" fill="#231F20"></path>
                <path d="M39.8763,25.408 C39.5263,25.408 39.2423,25.693 39.2423,26.043 C39.2423,26.392 39.5263,26.676 39.8763,26.676 C40.2263,26.676 40.5103,26.392 40.5103,26.043 C40.5103,25.692 40.2263,25.409 39.8763,25.408" id="Fill-92" fill="#FEFEFE"></path>
                <path d="M31.1441,41.4455 C29.0761,41.4735 25.2111,36.8825 24.6361,34.3675 C24.5851,34.1705 24.5481,33.9815 24.5221,33.8015 L24.5411,33.8555 C25.1131,35.4725 27.1271,37.9875 28.6971,39.2615 C29.0131,39.5185 29.3161,39.7295 29.5931,39.8785 C29.9041,40.0475 30.1931,40.1405 30.4471,40.1405 L30.4471,40.1425 L30.4481,40.1425 C31.4961,40.1425 33.7041,38.0605 35.1281,36.0545 C35.3981,35.6735 35.6451,35.2895 35.8551,34.9195 C36.0631,34.5505 36.2321,34.1975 36.3481,33.8745 C36.3521,33.8655 36.3551,33.8565 36.3581,33.8475 L36.3581,33.8465 L36.3581,33.8455 C36.6341,33.0605 36.6761,32.4085 36.5481,31.8675 C36.6701,32.1605 36.7711,32.4935 36.8451,32.8715 C37.3261,35.3385 33.9051,41.4085 31.1441,41.4455" id="Fill-94" fill="#E7B809"></path>
                <path d="M26.2393,35.0886 C27.0583,36.3256 28.2503,37.6686 29.2543,38.4836 C29.5283,38.7066 29.7833,38.8846 30.0063,39.0056 C30.1953,39.1076 30.3463,39.1636 30.4473,39.1636 L30.4473,39.1626 L30.4483,39.1626 C31.2263,39.1626 33.1053,37.2786 34.3933,35.4646 C34.4783,35.3446 34.5603,35.2266 34.6383,35.1086 C34.4063,35.2546 34.1643,35.3906 33.9183,35.5166 C32.5853,36.1946 31.0793,36.5796 30.4553,36.5696 C29.8303,36.5796 28.3243,36.1946 26.9913,35.5166 C26.7333,35.3846 26.4813,35.2426 26.2393,35.0886" id="Fill-96" fill="#F4811F"></path>
                <path d="M30.455,27.3817 C29.188,27.3817 25.743,30.0377 24.985,31.5257 C23.605,34.2377 29.183,36.1387 30.455,36.1087 C31.727,36.1387 37.305,34.2377 35.925,31.5257 C35.167,30.0377 31.722,27.3817 30.455,27.3817" id="Fill-98" fill="#F9A51A"></path>
                <path d="M30.8609,27.9263 C31.1789,28.4183 31.6459,29.2003 32.0379,30.0913 C32.2209,30.0133 32.4419,30.0273 32.7029,30.1893 C33.8989,30.9333 31.6689,31.5163 31.4099,31.6783 C31.3979,31.6863 31.3859,31.6873 31.3759,31.6833 C31.4739,31.8753 32.0079,31.8083 32.6419,31.9053 C32.9489,33.3833 32.7179,34.8343 31.0989,35.5673 C31.7379,35.4313 32.6439,35.1293 33.4999,34.6933 C34.0979,34.3893 34.6579,34.0243 35.0649,33.6123 C35.4329,33.2393 35.6719,32.8333 35.6819,32.4093 C35.6869,32.1993 35.6349,31.9743 35.5129,31.7353 C35.2379,31.1953 34.5479,30.4643 33.7389,29.7763 C33.3209,29.4203 32.8789,29.0823 32.4509,28.7923 C32.2429,28.6513 32.0349,28.5193 31.8329,28.4003 C31.4669,28.1853 31.1319,28.0193 30.8609,27.9263" id="Fill-100" fill="#F26F21"></path>
                <path d="M29.4997,31.6776 C29.7587,31.8396 29.4027,29.4446 28.2067,30.1896 C27.0107,30.9336 29.2407,31.5156 29.4997,31.6776" id="Fill-102" fill="#231F20"></path>
                <path d="M31.41,31.6776 C31.151,31.8396 31.507,29.4446 32.703,30.1896 C33.899,30.9336 31.669,31.5156 31.41,31.6776" id="Fill-104" fill="#231F20"></path>
                <path d="M30.9828,36.5198 C30.9538,37.1058 30.8578,38.3768 30.5528,39.1518 C31.3848,39.0028 33.1598,37.2018 34.3938,35.4648 C34.4788,35.3448 34.5598,35.2268 34.6388,35.1088 C34.4068,35.2548 34.1648,35.3918 33.9188,35.5158 C32.8778,36.0458 31.7328,36.3968 30.9828,36.5198" id="Fill-106" fill="#EC1D24"></path>
                <path d="M26.2391,35.0886 C27.0581,36.3256 28.2511,37.6686 29.2551,38.4836 C29.5281,38.7056 29.7831,38.8846 30.0071,39.0056 C30.1951,39.1076 30.3471,39.1636 30.4481,39.1636 L30.4481,39.1626 C31.2271,39.1626 33.1061,37.2786 34.3941,35.4646 C34.4791,35.3446 34.5601,35.2266 34.6381,35.1086 C34.4071,35.2546 34.1651,35.3906 33.9191,35.5166 C32.5851,36.1946 31.0791,36.5796 30.4551,36.5696 C29.8311,36.5796 28.3251,36.1946 26.9911,35.5166 C26.7341,35.3846 26.4811,35.2426 26.2391,35.0886 Z M30.4481,40.1426 L30.4481,40.1406 C30.1941,40.1406 29.9041,40.0466 29.5931,39.8786 C29.3171,39.7296 29.0131,39.5176 28.6971,39.2616 C27.1271,37.9866 25.1141,35.4726 24.5411,33.8556 C24.0771,32.5426 24.2671,31.6016 24.8121,30.9256 C25.5861,29.8076 27.3391,28.3256 28.7421,27.5306 C29.0591,27.3506 29.3591,27.2046 29.6281,27.1016 C29.9321,26.9866 30.2131,26.9216 30.4541,26.9216 L30.4541,26.9196 L30.4551,26.9196 L30.4551,26.9216 C30.9251,26.9216 31.5861,27.1886 32.2981,27.6076 C32.5141,27.7326 32.7391,27.8766 32.9671,28.0306 C33.4321,28.3466 33.9011,28.7046 34.3351,29.0726 C35.1311,29.7496 35.8331,30.4856 36.2111,31.0976 L36.2121,31.0966 L36.2121,31.0976 C36.6551,31.7566 36.7801,32.6456 36.3581,33.8456 L36.3591,33.8456 L36.3581,33.8466 C36.3551,33.8566 36.3521,33.8656 36.3481,33.8746 C36.2321,34.1966 36.0641,34.5496 35.8551,34.9186 C35.6451,35.2896 35.3991,35.6736 35.1281,36.0546 C33.7041,38.0606 31.4961,40.1426 30.4481,40.1426 Z M30.4551,27.8436 L30.4541,27.8436 L30.4541,27.8426 C30.3341,27.8426 30.1631,27.8856 29.9561,27.9656 C29.7251,28.0526 29.4681,28.1786 29.1971,28.3316 C27.7441,29.1556 25.9051,30.7376 25.3971,31.7356 C25.2751,31.9736 25.2231,32.1986 25.2281,32.4106 C25.2381,32.8326 25.4771,33.2406 25.8461,33.6126 C26.2521,34.0236 26.8131,34.3886 27.4101,34.6936 C28.6231,35.3106 29.9351,35.6606 30.4461,35.6486 L30.4641,35.6486 C30.9751,35.6606 32.2871,35.3116 33.5001,34.6936 C34.0971,34.3886 34.6581,34.0236 35.0641,33.6126 C35.4331,33.2396 35.6721,32.8326 35.6821,32.4106 C35.6871,32.1986 35.6351,31.9736 35.5131,31.7356 C35.2381,31.1956 34.5481,30.4636 33.7391,29.7756 C33.3211,29.4206 32.8791,29.0836 32.4511,28.7936 C32.2431,28.6516 32.0351,28.5196 31.8331,28.4016 C31.2521,28.0596 30.7511,27.8426 30.4551,27.8436 Z" id="Fill-108" fill="#231F20"></path>
                <path d="M10.1482,31.7828 C6.8152,32.8228 4.2072,34.3198 2.6162,35.9898 C1.6972,36.9548 1.1262,37.9708 0.9642,38.9788 C0.8072,39.9588 1.0422,40.9498 1.7262,41.8918 C2.5852,43.0748 4.1392,44.1868 6.4982,45.1278 C7.3122,45.4468 10.7892,46.9178 11.4512,45.3298 C11.9312,44.1258 10.9492,41.7118 10.2182,39.9578 C9.9082,39.1098 9.7932,39.0608 9.5422,38.0258 C9.4522,37.6538 9.4692,37.3048 9.4752,36.9268 C9.5122,35.1768 9.7102,34.1188 10.0552,32.2818 L10.1482,31.7828 Z" id="Fill-110" fill="#FFDA00"></path>
                <path d="M10.1349,31.8554 C-0.2501,36.3164 0.7009,41.4884 4.9119,44.4084 C3.4219,43.6384 2.3749,42.7854 1.7259,41.8914 C1.0419,40.9484 0.8079,39.9594 0.9649,38.9784 C1.1259,37.9704 1.6969,36.9544 2.6169,35.9894 C4.2069,34.3194 6.8159,32.8234 10.1479,31.7834 L10.1349,31.8554 Z" id="Fill-112" fill="#FFEEC5"></path>
                <path d="M9.2091,45.9764 C11.7201,46.3464 9.2501,43.1254 9.4701,37.3274 C9.4711,37.5604 9.4851,37.7884 9.5421,38.0254 C9.7931,39.0594 9.9091,39.1084 10.2191,39.9564 C10.9491,41.7114 11.9321,44.1264 11.4521,45.3294 C11.1391,46.0784 10.2001,46.1464 9.2091,45.9764" id="Fill-114" fill="#E7B809"></path>
                <path d="M50.1771,50.8387 L50.1731,50.8407 C50.4441,50.1927 50.6381,49.5817 50.7681,49.0047 C48.6561,50.7297 44.1651,52.5647 39.5441,53.6587 C39.4801,53.8707 39.3841,54.1287 39.2721,54.3547 C41.9901,53.8867 44.5101,53.2167 46.7351,52.3837 C47.3591,52.1467 47.9371,51.9107 48.4481,51.6837 C48.5011,51.6597 48.5551,51.6367 48.6081,51.6127 C49.1591,51.3627 49.6871,51.1027 50.1881,50.8327 L50.1771,50.8387 Z" id="Fill-116" fill="#D0D2D3"></path>
            </g>
        </g>
    </g>
</svg>