<?xml version="1.0" encoding="UTF-8"?>
<svg width="138px" height="69px" viewBox="0 0 138 69" version="1.1" xmlns="http://www.w3.org/2000/svg" xmlns:xlink="http://www.w3.org/1999/xlink">
    <!-- Generator: Sketch 48.2 (47327) - http://www.bohemiancoding.com/sketch -->
    <title>Artboard</title>
    <desc>Created with Sketch.</desc>
    <defs>
        <polygon id="path-1" points="0.000247716895 0.119303944 42.0285154 0.119303944 42.0285154 28.345679 0.000247716895 28.345679"></polygon>
        <polygon id="path-3" points="0.326614726 0.0196652949 22.313347 0.0196652949 22.313347 13.5513885 0.326614726 13.5513885"></polygon>
        <polygon id="path-5" points="0.0149249429 0.129697229 6.61837614 0.129697229 6.61837614 7.54870628 0.0149249429 7.54870628"></polygon>
    </defs>
    <g id="Page-1" stroke="none" stroke-width="1" fill="none" fill-rule="evenodd">
        <g id="Artboard">
            <g id="Page-1" transform="translate(7.000000, 6.000000)">
                <g id="Group-3" transform="translate(0.000000, 27.634719)">
                    <mask id="mask-2" fill="white">
                        <use xlink:href="#path-1"></use>
                    </mask>
                    <g id="Clip-2"></g>
                    <path d="M42.0285154,0.235647078 C42.0285154,0.235647078 36.7998311,-0.917707106 29.2246484,4.03837739 C29.2246484,4.03837739 25.0016946,6.34634557 24.1303505,6.82192307 C23.2596256,7.29750058 16.5557871,10.1497058 15.2156387,10.6240235 C13.874871,11.0989711 6.50219692,13.7483472 3.15058733,14.0866057 L0.000247716895,28.3444822 L0.000247716895,28.345742 L17.6290205,23.1861985 L27.48196,20.3339933 L28.28704,20.0625047 C28.28704,20.0625047 32.4418716,17.4811582 35.5259469,13.7483472 C35.5259469,13.7483472 41.0227848,5.9400575 42.0285154,0.235647078" id="Fill-1" fill="#FEFEFE" mask="url(#mask-2)"></path>
                </g>
                <path d="M43.3691592,28.3451874 C43.3691592,28.3451874 41.2908145,38.1225569 32.7111398,46.3390244 C32.7111398,46.3390244 42.6309629,44.7781224 46.9876838,38.0822431 L47.0545674,34.9320933 C47.0545674,34.9320933 47.1220702,29.0922535 43.3691592,28.3451874" id="Fill-4" fill="#FEFEFE"></path>
                <path d="M43.9047232,26.7167596 L44.7773059,21.8274449 C44.7773059,21.8274449 48.4639526,22.77797 52.3506307,25.8336342 C52.3506307,25.8336342 52.7531707,29.2974762 48.5302169,36.35744 C48.5302169,36.35744 48.5302169,32.4192803 47.9939098,30.7903486 C47.9939098,30.7903486 46.9875599,27.7346844 43.9047232,26.7167596" id="Fill-6" fill="#FEFEFE"></path>
                <path d="M42.4977531,26.2408672 L43.4359809,21.2847827 C43.4359809,21.2847827 36.6652588,19.3157028 29.8282725,19.3157028 C29.8282725,19.3157028 16.1542999,19.1796436 6.70266182,23.3892919 L3.41855508,39.8889967 C3.41855508,39.8889967 10.5899592,38.9378416 16.4230728,36.0856364 L26.2085094,31.4697001 L29.962659,29.4999903 L33.4480357,27.9384584 C33.4480357,27.9384584 37.5372223,25.3590016 42.4977531,26.2408672" id="Fill-8" fill="#FEFEFE"></path>
                <path d="M43.6371889,19.9940464 L43.6371889,15.6495987 L39.0785788,13.4758001 C39.0785788,13.4758001 33.9173973,9.26741158 32.7778995,8.31562667 C32.7778995,8.31562667 26.8797603,3.42694189 21.8511073,3.42694189 C21.8511073,3.42694189 16.355508,3.22348291 12.1319349,9.06206288 C12.1319349,9.06206288 8.04336758,15.037332 7.10390126,21.3521194 C7.10390126,21.3521194 18.902657,18.0243367 24.0644578,18.0243367 C24.0644578,18.0243367 31.7721689,17.0070418 43.6371889,19.9940464" id="Fill-10" fill="#FEFEFE"></path>
                <path d="M44.9780186,20.3130928 L44.9780186,15.9201424 C44.9780186,15.9201424 49.5353901,16.3957199 50.3398507,14.0197221 C50.3398507,14.0197221 52.9538833,17.8885924 52.4844598,24.2720393 C52.4844598,24.2720393 48.7321681,21.059529 44.9780186,20.3130928" id="Fill-12" fill="#FEFEFE"></path>
                <path d="M42.1625922,4.17293717 C42.1625922,4.17293717 44.5072326,8.38258546 44.8441276,13.9509366 C44.8441276,13.9509366 45.7142332,14.4945438 46.3192817,14.4945438 C46.9206144,14.4945438 48.6633028,14.5613136 49.6690334,12.524834 C49.6690334,12.524834 47.7263136,7.36529053 42.1625922,4.17293717" id="Fill-14" fill="#FEFEFE"></path>
                <g id="Group-18" transform="translate(21.055936, 0.264623)">
                    <mask id="mask-4" fill="white">
                        <use xlink:href="#path-3"></use>
                    </mask>
                    <g id="Clip-17"></g>
                    <path d="M18.827351,2.55200527 C18.827351,2.55200527 12.056629,-2.60879802 0.326614726,1.80430925 C0.326614726,1.80430925 4.2139121,1.39676137 7.63302454,3.43387084 C11.0508984,5.4709803 13.7324338,8.051067 13.7324338,8.051067 C13.7324338,8.051067 19.229891,13.0077814 22.313347,13.5513885 C22.313347,13.5513885 21.3745,8.051067 18.827351,2.55200527" id="Fill-16" fill="#FEFEFE" mask="url(#mask-4)"></path>
                </g>
                <path d="M60.3491615,6.06220818 C62.8572951,6.06220818 64.2308853,7.65712505 64.2308853,8.60261092 C64.2308853,9.22432615 63.8977061,9.60289844 63.2443527,9.60289844 C61.9766615,9.60289844 62.3500947,7.84609624 60.3491615,7.84609624 C58.9749521,7.84609624 57.841028,9.04858294 57.841028,11.1568716 C57.841028,12.9269017 58.5346353,14.4676469 60.4284309,14.4676469 C62.1500634,14.4676469 62.1098094,12.6025012 63.1638447,12.6025012 C63.6976747,12.6025012 64.2308853,12.9136737 64.2308853,13.4541314 C64.2308853,14.8594471 62.5501261,16.250905 60.4284309,16.250905 C57.4273408,16.250905 55.6530685,14.5079607 55.6530685,11.1568716 C55.6530685,8.41363973 57.2539389,6.06220818 60.3491615,6.06220818" id="Fill-19" fill="#FEFEFE"></path>
                <path d="M68.7664578,10.4945275 L65.9517745,10.4945275 C65.5913465,10.4945275 65.1646541,10.2916984 65.1646541,9.72478486 C65.1646541,9.15661147 65.5913465,8.95378239 65.9517745,8.95378239 L70.5803647,8.95378239 C71.1011895,8.95378239 71.3817289,9.30526881 71.3817289,9.81864055 C71.3817289,10.0353275 71.2609669,10.2784705 71.0745599,10.4812995 L67.472137,14.4811898 L70.6738779,14.4811898 C71.0343059,14.4811898 71.4609983,14.683389 71.4609983,15.2509325 C71.4609983,15.8184759 71.0343059,16.021305 70.6738779,16.021305 L65.7114892,16.021305 C65.1380245,16.021305 64.84448,15.6433626 64.84448,15.2509325 C64.84448,14.9674757 64.9243687,14.7243327 65.0977705,14.5347316 L68.7664578,10.4945275 Z" id="Fill-21" fill="#FEFEFE"></path>
                <path d="M77.5712451,11.7241631 C77.4641076,10.8189911 76.7971299,10.1563321 75.9301207,10.1563321 C74.9565933,10.1563321 74.368885,10.7648193 74.1558485,11.7241631 L77.5712451,11.7241631 Z M74.1558485,12.85925 C74.1558485,13.8998514 74.8228262,14.6563661 75.9573696,14.6563661 C77.4238536,14.6563661 77.4238536,13.6831644 78.2115933,13.6831644 C78.6785397,13.6831644 79.0117189,14.0888226 79.0117189,14.4541669 C79.0117189,15.6434256 77.1309284,16.1971112 75.9573696,16.1971112 C73.2355802,16.1971112 72.2081744,14.3325954 72.2081744,12.6161071 C72.2081744,10.3188473 73.5823838,8.77810217 75.8898667,8.77810217 C78.1310853,8.77810217 79.4117817,10.386247 79.4117817,12.0076199 C79.4117817,12.6835068 79.2117503,12.85925 78.558397,12.85925 L74.1558485,12.85925 Z" id="Fill-23" fill="#FEFEFE"></path>
                <path d="M83.8142063,8.77841712 C85.4417063,8.77841712 86.6555191,9.71067501 86.6555191,10.6297049 C86.6555191,11.1972484 86.2418319,11.4807052 85.748256,11.4807052 C84.8279877,11.4807052 85.1617862,10.3185323 83.7609472,10.3185323 C83.0004563,10.3185323 82.1068176,10.845762 82.1068176,12.62965 C82.1068176,13.8592226 82.6802822,14.656681 83.7473228,14.656681 C85.1079078,14.656681 84.8143633,13.3861647 85.8417691,13.3861647 C86.335345,13.3861647 86.6555191,13.7508791 86.6555191,14.1433093 C86.6555191,15.0081675 85.6949969,16.1974262 83.6940636,16.1974262 C81.2930676,16.1974262 80.1585243,14.6969949 80.1585243,12.62965 C80.1585243,10.3594761 81.4262155,8.77841712 83.8142063,8.77841712" id="Fill-25" fill="#FEFEFE"></path>
                <path d="M87.562163,7.10287254 C87.562163,6.45407144 87.9492206,6.11644291 88.5363096,6.11644291 C89.1233987,6.11644291 89.509837,6.45407144 89.509837,7.10287254 L89.509837,9.81901849 L89.5370859,9.81901849 C89.9235243,9.30501684 90.6041264,8.77841712 91.7114209,8.77841712 C92.8849797,8.77841712 94.1656761,9.37304647 94.1656761,11.3729916 L94.1656761,15.2103666 C94.1656761,15.7375963 93.9520203,16.1974262 93.1921487,16.1974262 C92.4316578,16.1974262 92.2186213,15.7375963 92.2186213,15.2103666 L92.2186213,11.7647919 C92.2186213,10.9673334 91.8315636,10.39979 90.9911841,10.39979 C90.3105819,10.39979 89.509837,10.9673334 89.509837,11.9537631 L89.509837,15.2103666 C89.509837,15.7375963 89.2968005,16.1974262 88.5363096,16.1974262 C87.7758188,16.1974262 87.562163,15.7375963 87.562163,15.2103666 L87.562163,7.10287254 Z" id="Fill-27" fill="#FEFEFE"></path>
                <path d="M58.1476396,26.0163064 L59.9887954,26.0163064 C60.8427994,26.0163064 61.8027023,25.8405632 61.8027023,24.7193341 C61.8027023,23.5433034 60.7895402,23.3952759 59.7218804,23.3952759 L58.1476396,23.3952759 L58.1476396,26.0163064 Z M58.1476396,21.9893303 L59.9485414,21.9893303 C60.9759472,21.9893303 61.4695231,21.5704441 61.4695231,20.8000716 C61.4695231,19.8678137 60.6954078,19.6114427 59.8822771,19.6114427 L58.1476396,19.6114427 L58.1476396,21.9893303 Z M55.9596801,19.2870422 C55.9596801,18.3006126 56.4668804,17.98944 57.2409957,17.98944 L60.1491921,17.98944 C61.7500625,17.98944 63.6574826,18.3541544 63.6574826,20.5027569 C63.6574826,21.3273012 63.2171658,22.1109017 62.3099027,22.476246 L62.3099027,22.502702 C63.3236841,22.7729308 63.9912811,23.5029895 63.9912811,24.8409056 C63.9912811,26.8811646 62.3501567,27.7189368 60.4557417,27.7189368 L57.2409957,27.7189368 C56.4668804,27.7189368 55.9596801,27.4083942 55.9596801,26.4219646 L55.9596801,19.2870422 Z" id="Fill-29" fill="#FEFEFE"></path>
                <path d="M69.7402329,24.3948706 C69.5265771,24.5976996 69.1265143,24.6650994 68.8998533,24.7054132 L68.1926216,24.8137567 C67.3788716,24.9353282 66.9391741,25.192329 66.9391741,25.7869584 C66.9391741,26.2329304 67.3528613,26.5970149 68.0192197,26.5970149 C69.0862603,26.5970149 69.7402329,25.8946719 69.7402329,25.1652431 L69.7402329,24.3948706 Z M71.687907,25.8134143 C71.687907,26.6385885 71.8879384,26.8269298 71.8879384,27.1381024 C71.8879384,27.5840744 71.4748704,27.8946171 71.0073048,27.8946171 C70.1675445,27.8946171 69.8863858,27.3541595 69.8603756,26.7456722 C69.0998847,27.5973024 68.2192511,27.8946171 67.1918453,27.8946171 C66.0851701,27.8946171 64.9908807,27.1242445 64.9908807,25.881444 C64.9908807,24.2462132 66.2183179,23.7870132 67.7126701,23.61127 L68.8998533,23.4758407 C69.3667997,23.4216689 69.7402329,23.3139553 69.7402329,22.7464119 C69.7402329,22.1788684 69.1667683,21.9357254 68.5127957,21.9357254 C67.0723219,21.9357254 67.0320679,23.0166407 66.2585719,23.0166407 C65.764996,23.0166407 65.4311975,22.6651542 65.4311975,22.2594961 C65.4311975,21.4758955 66.5254869,20.4762379 68.5258008,20.4762379 C70.3935862,20.4762379 71.687907,21.0840953 71.687907,22.502639 L71.687907,25.8134143 Z" id="Fill-31" fill="#FEFEFE"></path>
                <path d="M75.8499843,20.47586 C77.330712,20.47586 78.8250642,21.0704893 78.8250642,21.9756613 C78.8250642,22.4354912 78.5178953,22.8405195 78.0113142,22.8405195 C77.2508233,22.8405195 77.2235745,21.9353475 75.9967566,21.9353475 C75.3161544,21.9353475 74.8758376,22.1243187 74.8758376,22.5432048 C74.8758376,23.0030347 75.3161544,23.1107483 75.9168679,23.2461777 L76.7306179,23.4351489 C77.8372931,23.6921497 79.1582434,24.1652076 79.1582434,25.5434375 C79.1582434,27.1515823 77.6242566,27.894869 76.156534,27.894869 C74.3958861,27.894869 72.9281635,27.0974106 72.9281635,26.1242089 C72.9281635,25.6920948 73.1684489,25.3002945 73.715284,25.3002945 C74.5556635,25.3002945 74.6355522,26.5166391 76.0766453,26.5166391 C76.7702526,26.5166391 77.2105693,26.2054666 77.2105693,25.7998084 C77.2105693,25.3002945 76.7832577,25.2190369 76.0902697,25.0432937 L74.9427212,24.759207 C73.8087971,24.4757502 72.9281635,24.0026923 72.9281635,22.6786342 C72.9281635,21.0704893 74.5024044,20.47586 75.8499843,20.47586" id="Fill-33" fill="#FEFEFE"></path>
                <path d="M80.2653522,18.8003784 C80.2653522,18.1515773 80.6524098,17.8139488 81.2388796,17.8139488 C81.8265879,17.8139488 82.2130263,18.1515773 82.2130263,18.8003784 L82.2130263,23.2865545 L84.3743562,20.8544953 C84.5743876,20.6384382 84.8276781,20.475923 85.1212226,20.475923 C85.5615394,20.475923 86.0414909,20.8677232 86.0414909,21.367867 C86.0414909,21.7193534 85.9213482,21.8276969 85.7479463,22.0166681 L84.3074726,23.5435553 L86.3350354,26.3000151 C86.4019189,26.3945007 86.5350668,26.6111877 86.5350668,26.9349584 C86.5350668,27.4351021 86.135004,27.894932 85.6147985,27.894932 C85.1342277,27.894932 84.8815565,27.6517891 84.734165,27.4351021 L82.8930091,24.8002138 L82.2130263,25.408701 L82.2130263,26.9085024 C82.2130263,27.5566736 81.8265879,27.894932 81.2388796,27.894932 C80.6524098,27.894932 80.2653522,27.5566736 80.2653522,26.9085024 L80.2653522,18.8003784 Z" id="Fill-35" fill="#FEFEFE"></path>
                <path d="M92.3647743,23.4216689 C92.258256,22.5164969 91.5912783,21.8544678 90.7242691,21.8544678 C89.7501224,21.8544678 89.1630334,22.4623252 88.9499969,23.4216689 L92.3647743,23.4216689 Z M88.9499969,24.5567559 C88.9499969,25.5973573 89.6169746,26.3545018 90.7508987,26.3545018 C92.218002,26.3545018 92.218002,25.3813002 93.0051224,25.3813002 C93.4720688,25.3813002 93.8058673,25.7869584 93.8058673,26.1516728 C93.8058673,27.3409315 91.9244575,27.8946171 90.7508987,27.8946171 C88.0297286,27.8946171 87.0017035,26.0301013 87.0017035,24.3136129 C87.0017035,22.0163531 88.375913,20.475608 90.6840151,20.475608 C92.9252337,20.475608 94.2059301,22.0837529 94.2059301,23.7057556 C94.2059301,24.3810127 94.0058987,24.5567559 93.3519261,24.5567559 L88.9499969,24.5567559 Z" id="Fill-37" fill="#FEFEFE"></path>
                <path d="M95.8330585,21.9489534 L95.49926,21.9489534 C94.9524249,21.9489534 94.725764,21.7328964 94.725764,21.3001523 C94.725764,20.8680382 94.9524249,20.6519811 95.49926,20.6519811 L95.8330585,20.6519811 L95.8330585,19.4488645 C95.8330585,18.8000634 96.2201162,18.4624349 96.8072052,18.4624349 C97.3936749,18.4624349 97.7807326,18.8000634 97.7807326,19.4488645 L97.7807326,20.6519811 L98.3678216,20.6519811 C98.9412862,20.6519811 99.2478359,20.8270944 99.2478359,21.3001523 C99.2478359,21.7732102 98.9412862,21.9489534 98.3678216,21.9489534 L97.7807326,21.9489534 L97.7807326,25.8946719 C97.7807326,26.1919866 97.9411293,26.3538719 98.2879329,26.3538719 L98.567853,26.3538719 C98.9951647,26.3538719 99.2478359,26.5970149 99.2478359,27.0165309 C99.2478359,27.5840744 98.7685037,27.8946171 97.8339917,27.8946171 C96.4201475,27.8946171 95.8330585,27.2999877 95.8330585,26.1378149 L95.8330585,21.9489534 Z" id="Fill-39" fill="#FEFEFE"></path>
                <path d="M103.530489,22.0164791 C102.342687,22.0032511 101.969254,23.1918799 101.969254,24.2053954 C101.969254,25.3272544 102.396565,26.3539979 103.530489,26.3539979 C104.5709,26.3275419 105.077481,25.3675683 105.077481,24.2053954 C105.077481,23.2869954 104.770932,22.0164791 103.530489,22.0164791 Z M100.128717,18.8001894 C100.128717,18.1520182 100.515156,17.8137598 101.102245,17.8137598 C101.689334,17.8137598 102.075772,18.1520182 102.075772,18.8001894 L102.075772,21.4760215 L102.103021,21.4760215 C102.490078,20.8410783 103.156437,20.4763639 104.024065,20.4763639 C106.078258,20.4763639 107.025156,22.2463941 107.025156,24.1379957 C107.025156,26.6922564 105.598306,27.894743 103.970806,27.894743 C103.023289,27.894743 102.236169,27.4890849 101.915995,26.6513126 L101.889365,26.6513126 L101.889365,26.9624852 C101.889365,27.5703425 101.582815,27.894743 101.008731,27.894743 C100.408637,27.894743 100.128717,27.5703425 100.128717,26.9624852 L100.128717,18.8001894 Z" id="Fill-41" fill="#FEFEFE"></path>
                <path d="M112.668394,24.3948706 C112.454738,24.5976996 112.054676,24.6650994 111.828015,24.7054132 L111.120783,24.8137567 C110.307033,24.9353282 109.866716,25.192329 109.866716,25.7869584 C109.866716,26.2329304 110.280403,26.5970149 110.946762,26.5970149 C112.014422,26.5970149 112.668394,25.8946719 112.668394,25.1652431 L112.668394,24.3948706 Z M114.616068,25.8134143 C114.616068,26.6385885 114.8161,26.8269298 114.8161,27.1381024 C114.8161,27.5840744 114.402412,27.8946171 113.935466,27.8946171 C113.095086,27.8946171 112.815166,27.3541595 112.788537,26.7456722 C112.028046,27.5973024 111.147412,27.8946171 110.120626,27.8946171 C109.012712,27.8946171 107.919042,27.1242445 107.919042,25.881444 C107.919042,24.2462132 109.146479,23.7870132 110.640212,23.61127 L111.828015,23.4758407 C112.294342,23.4216689 112.668394,23.3139553 112.668394,22.7464119 C112.668394,22.1788684 112.09493,21.9357254 111.440957,21.9357254 C110.000483,21.9357254 109.960229,23.0166407 109.186733,23.0166407 C108.692538,23.0166407 108.359359,22.6651542 108.359359,22.2594961 C108.359359,21.4758955 109.453029,20.4762379 111.454581,20.4762379 C113.322367,20.4762379 114.616068,21.0840953 114.616068,22.502639 L114.616068,25.8134143 Z" id="Fill-43" fill="#FEFEFE"></path>
                <path d="M116.269764,18.8003784 C116.269764,18.1515773 116.657441,17.8139488 117.243911,17.8139488 C117.830381,17.8139488 118.218058,18.1515773 118.218058,18.8003784 L118.218058,26.9085024 C118.218058,27.5566736 117.830381,27.894932 117.243911,27.894932 C116.657441,27.894932 116.269764,27.5566736 116.269764,26.9085024 L116.269764,18.8003784 Z" id="Fill-45" fill="#FEFEFE"></path>
                <path d="M119.84531,18.8003784 C119.84531,18.1515773 120.231129,17.8139488 120.819457,17.8139488 C121.405926,17.8139488 121.792365,18.1515773 121.792365,18.8003784 L121.792365,26.9085024 C121.792365,27.5566736 121.405926,27.894932 120.819457,27.894932 C120.231129,27.894932 119.84531,27.5566736 119.84531,26.9085024 L119.84531,18.8003784 Z" id="Fill-47" fill="#FEFEFE"></path>
                <path d="M56.0134966,30.984611 C56.0134966,29.9981814 56.5200776,29.6876387 57.2941929,29.6876387 L62.1098094,29.6876387 C62.7501575,29.6876387 63.2171039,29.8766099 63.2171039,30.5789529 C63.2171039,31.2819257 62.7501575,31.4708969 62.1098094,31.4708969 L58.2008368,31.4708969 L58.2008368,33.7410708 L61.5097152,33.7410708 C62.0831798,33.7410708 62.5365017,33.9035861 62.5365017,34.592701 C62.5365017,35.281816 62.0831798,35.4437013 61.5097152,35.4437013 L58.2008368,35.4437013 L58.2008368,38.4842478 C58.2008368,39.1462769 57.7741444,39.5922489 57.1071667,39.5922489 C56.4401889,39.5922489 56.0134966,39.1462769 56.0134966,38.4842478 L56.0134966,30.984611 Z" id="Fill-49" fill="#FEFEFE"></path>
                <path d="M68.5680985,35.1193637 C68.4615802,34.2141917 67.7946025,33.5521626 66.9275933,33.5521626 C65.9534466,33.5521626 65.3663576,34.16002 65.1533211,35.1193637 L68.5680985,35.1193637 Z M65.1533211,36.2544507 C65.1533211,37.2950521 65.8196795,38.0521967 66.9542229,38.0521967 C68.4213262,38.0521967 68.4213262,37.078995 69.2084466,37.078995 C69.675393,37.078995 70.0085722,37.4840233 70.0085722,37.8493676 C70.0085722,39.0386263 68.1277817,39.5923119 66.9542229,39.5923119 C64.2324335,39.5923119 63.205647,37.7277961 63.205647,36.0113078 C63.205647,33.714048 64.5792372,32.1739327 66.8873393,32.1739327 C69.1285579,32.1739327 70.4092543,33.7814477 70.4092543,35.4028205 C70.4092543,36.0787075 70.2092229,36.2544507 69.5552503,36.2544507 L65.1533211,36.2544507 Z" id="Fill-51" fill="#FEFEFE"></path>
                <path d="M74.7310471,38.0520707 C75.8649712,38.0520707 76.2922828,37.0253272 76.2922828,35.9034682 C76.2922828,34.8899527 75.9188496,33.700694 74.7310471,33.7145519 C73.4906047,33.7145519 73.1840551,34.9844383 73.1840551,35.9034682 C73.1840551,37.065641 73.6906361,38.0249848 74.7310471,38.0520707 Z M78.1328193,38.659928 C78.1328193,39.2684153 77.8528993,39.5928158 77.2528051,39.5928158 C76.6787212,39.5928158 76.3721715,39.2684153 76.3721715,38.659928 L76.3721715,38.3493853 L76.345542,38.3493853 C76.0253679,39.1871576 75.2382474,39.5928158 74.2907303,39.5928158 C72.6632303,39.5928158 71.236381,38.3896992 71.236381,35.8360685 C71.236381,33.9438369 72.1832788,32.1738067 74.2374712,32.1738067 C75.1050996,32.1738067 75.7720773,32.5385212 76.1585157,33.1734644 L76.1857646,33.1734644 L76.1857646,30.4982622 C76.1857646,29.8494611 76.5722029,29.5118325 77.159292,29.5118325 C77.746381,29.5118325 78.1328193,29.8494611 78.1328193,30.4982622 L78.1328193,38.659928 Z" id="Fill-53" fill="#FEFEFE"></path>
                <path d="M84.6164994,35.1193637 C84.5093619,34.2141917 83.8423841,33.5521626 82.975375,33.5521626 C82.0018476,33.5521626 81.4147586,34.16002 81.201722,35.1193637 L84.6164994,35.1193637 Z M81.201722,36.2544507 C81.201722,37.2950521 81.8680805,38.0521967 83.0020046,38.0521967 C84.4697272,38.0521967 84.4697272,37.078995 85.2568476,37.078995 C85.7237939,37.078995 86.0569732,37.4840233 86.0569732,37.8493676 C86.0569732,39.0386263 84.1761826,39.5923119 83.0020046,39.5923119 C80.2808345,39.5923119 79.2534287,37.7277961 79.2534287,36.0113078 C79.2534287,33.714048 80.6276381,32.1739327 82.935121,32.1739327 C85.1763396,32.1739327 86.4576553,33.7814477 86.4576553,35.4028205 C86.4576553,36.0787075 86.2570046,36.2544507 85.6036513,36.2544507 L81.201722,36.2544507 Z" id="Fill-55" fill="#FEFEFE"></path>
                <path d="M87.6843493,33.0923957 C87.6843493,32.4977664 88.071407,32.1733658 88.5649829,32.1733658 C89.0585588,32.1733658 89.4456164,32.4977664 89.4456164,33.0923957 L89.4456164,33.8489104 L89.472246,33.8489104 C89.698907,33.024996 90.1392237,32.1733658 91.0861216,32.1733658 C91.6998402,32.1733658 92.1531621,32.579024 92.1531621,33.1327096 C92.1531621,33.8627683 91.6732106,34.1191392 91.1926398,34.1191392 L90.8464555,34.1191392 C90.059335,34.1191392 89.6320234,34.6734547 89.6320234,36.3086854 L89.6320234,38.6059452 C89.6320234,39.132545 89.4189869,39.5923749 88.658496,39.5923749 C87.8980051,39.5923749 87.6843493,39.132545 87.6843493,38.6059452 L87.6843493,33.0923957 Z" id="Fill-57" fill="#FEFEFE"></path>
                <path d="M97.158282,36.0923764 C96.9446261,36.2952055 96.5445634,36.3626052 96.3179024,36.403549 L95.6106707,36.5112626 C94.7969207,36.632834 94.3566039,36.8898348 94.3566039,37.4838343 C94.3566039,37.9298063 94.7702911,38.2951506 95.4372688,38.2951506 C96.5043094,38.2951506 97.158282,37.5928077 97.158282,36.862749 L97.158282,36.0923764 Z M99.1059561,37.5109202 C99.1059561,38.3360944 99.3059874,38.5250656 99.3059874,38.8356082 C99.3059874,39.2815802 98.8929195,39.5927528 98.4253539,39.5927528 C97.5855936,39.5927528 97.3050542,39.0516653 97.2784247,38.443808 C96.5179338,39.2948082 95.6373002,39.5927528 94.6098944,39.5927528 C93.5032192,39.5927528 92.4089298,38.8217503 92.4089298,37.5789498 C92.4089298,35.9437191 93.636367,35.4845191 95.1307192,35.3087759 L96.3179024,35.1733465 C96.7848487,35.1191748 97.158282,35.0114612 97.158282,34.4439177 C97.158282,33.8763742 96.5848174,33.6332313 95.9308447,33.6332313 C94.490371,33.6332313 94.450117,34.7141465 93.676621,34.7141465 C93.1824258,34.7141465 92.8492466,34.3626601 92.8492466,33.9576318 C92.8492466,33.1734014 93.943536,32.1737438 95.9438499,32.1737438 C97.8116353,32.1737438 99.1059561,32.7816011 99.1059561,34.2007748 L99.1059561,37.5109202 Z" id="Fill-59" fill="#FEFEFE"></path>
                <path d="M101.16021,33.6464593 L100.826412,33.6464593 C100.279577,33.6464593 100.052916,33.4304022 100.052916,32.9976582 C100.052916,32.565544 100.279577,32.349487 100.826412,32.349487 L101.16021,32.349487 L101.16021,31.1463704 C101.16021,30.4981992 101.547268,30.1599407 102.133738,30.1599407 C102.721446,30.1599407 103.107884,30.4981992 103.107884,31.1463704 L103.107884,32.349487 L103.694973,32.349487 C104.268438,32.349487 104.575607,32.5246003 104.575607,32.9976582 C104.575607,33.470716 104.268438,33.6464593 103.694973,33.6464593 L103.107884,33.6464593 L103.107884,37.5921778 C103.107884,37.8894925 103.268281,38.0520077 103.615085,38.0520077 L103.895005,38.0520077 C104.321697,38.0520077 104.575607,38.2951506 104.575607,38.7140368 C104.575607,39.2815802 104.095036,39.5921229 103.161144,39.5921229 C101.74668,39.5921229 101.16021,38.9974936 101.16021,37.8359506 L101.16021,33.6464593 Z" id="Fill-61" fill="#FEFEFE"></path>
                <path d="M105.562263,33.1601734 C105.562263,32.6329438 105.775919,32.1737438 106.53641,32.1737438 C107.296901,32.1737438 107.509938,32.6329438 107.509938,33.1601734 L107.509938,38.6056933 C107.509938,39.1329229 107.296901,39.5927528 106.53641,39.5927528 C105.775919,39.5927528 105.562263,39.1329229 105.562263,38.6056933 L105.562263,33.1601734 Z M106.53641,29.4575978 C107.09687,29.4575978 107.550191,29.9174277 107.550191,30.4843413 C107.550191,31.0518848 107.09687,31.5117147 106.53641,31.5117147 C105.975951,31.5117147 105.522629,31.0518848 105.522629,30.4843413 C105.522629,29.9174277 105.975951,29.4575978 106.53641,29.4575978 Z" id="Fill-63" fill="#FEFEFE"></path>
                <path d="M112.339426,38.1329503 C113.49998,38.1329503 113.993556,37.079121 113.993556,35.8760044 C113.993556,34.5922601 113.47335,33.6329163 112.339426,33.6329163 C111.205502,33.6329163 110.685297,34.5922601 110.685297,35.8760044 C110.685297,37.079121 111.178872,38.1329503 112.339426,38.1329503 M112.339426,32.1734288 C114.687782,32.1734288 115.94123,33.7954316 115.94123,35.8760044 C115.94123,37.8494936 114.994332,39.5924379 112.339426,39.5924379 C109.68452,39.5924379 108.737622,37.8494936 108.737622,35.8760044 C108.737622,33.7954316 109.99107,32.1734288 112.339426,32.1734288" id="Fill-65" fill="#FEFEFE"></path>
                <g id="Group-69" transform="translate(117.046233, 32.044047)">
                    <mask id="mask-6" fill="white">
                        <use xlink:href="#path-5"></use>
                    </mask>
                    <g id="Clip-68"></g>
                    <path d="M0.0149249429,1.11612686 C0.0149249429,0.521497503 0.283078482,0.129697229 0.896797089,0.129697229 C1.50927711,0.129697229 1.77619207,0.521497503 1.77619207,1.11612686 L1.77619207,1.37312768 L1.80344092,1.37312768 C2.35027597,0.643068971 3.05626912,0.129697229 4.16480223,0.129697229 C5.33774172,0.129697229 6.61843807,0.724326584 6.61843807,2.72427171 L6.61843807,6.56164675 C6.61843807,7.08887638 6.40540154,7.54870628 5.64552997,7.54870628 C4.88565839,7.54870628 4.67138328,7.08887638 4.67138328,6.56164675 L4.67138328,3.11607199 C4.67138328,2.31861355 4.28370634,1.75107007 3.44394606,1.75107007 C2.76396318,1.75107007 1.96321832,2.31861355 1.96321832,3.30504318 L1.96321832,6.56164675 C1.96321832,7.08887638 1.75018179,7.54870628 0.989071632,7.54870628 C0.228580765,7.54870628 0.0149249429,7.08887638 0.0149249429,6.56164675 L0.0149249429,1.11612686 Z" id="Fill-67" fill="#FEFEFE" mask="url(#mask-6)"></path>
                </g>
            </g>
        </g>
    </g>
</svg>