<?xml version="1.0" encoding="UTF-8"?>
<svg width="173px" height="93px" viewBox="0 0 173 93" version="1.1" xmlns="http://www.w3.org/2000/svg" xmlns:xlink="http://www.w3.org/1999/xlink">
    <!-- Generator: Sketch 48.2 (47327) - http://www.bohemiancoding.com/sketch -->
    <title>Artboard 5</title>
    <desc>Created with Sketch.</desc>
    <defs></defs>
    <g id="Page-1" stroke="none" stroke-width="1" fill="none" fill-rule="evenodd">
        <g id="Artboard-5">
            <g id="Group-4" transform="translate(10.000000, 15.000000)">
                <path d="M130.111186,32.6607477 L131.534075,32.6607477 L134.806163,57.7239668 C117.093187,57.7239668 99.3796395,57.7239668 81.6664607,57.7239668 C62.0380801,63.0494429 34.0711862,67.3806481 16.2906223,54.8922438 C13.6849164,57.1151475 9.19611528,57.9361937 5.83347933,57.9361937 L0,57.7239668 L1.99188154,46.2545195 L7.04270491,46.4667831 C10.1111994,46.4667831 9.55430394,44.3120828 8.46594374,42.501868 C6.89277577,40.1541941 3.56906976,35.4362342 5.08573307,30.4362839 C6.77945294,24.4713373 15.9305526,19.4781597 21.768421,20.4123031 L21.9820101,20.4123031 L22.4088932,20.4123031 L30.6605102,21.1908232 C50.7189644,8.48686989 82.3776007,2.7187512 105.497855,7.17257922 C114.396122,-4.61824599 140,-1.96262926 140,15.8102484 C139.599433,22.0285715 136.78248,28.024573 130.965321,32.2358351 L130.111186,32.6607477 Z" id="Fill-1" fill="#292D78"></path>
                <path d="M137,16.055844 C137,8.82243661 133.714776,4.38300993 126.556147,2.84483748 C123.343766,10.8828052 124.659835,18.251316 125.714028,22.1406617 C129.289402,20.7992397 134.293227,18.7653462 137,16.055844 Z M123.168506,33.5052059 C121.382548,30.8240463 120.718506,28.793302 119.781616,25.6637323 L117.382494,26.0874982 C117.382494,28.5645288 116.870138,31.2795237 115.759579,33.5052059 C117.663883,34.1647025 121.114363,34.1651602 123.168506,33.5052059 Z M125.003387,24.4627234 C123.891218,24.833704 122.547388,25.1617495 121.545957,25.6637323 C121.903664,27.5071737 124.475174,31.8421282 125.860118,32.4722386 C127.835345,31.4845316 131.51394,28.7452038 132.765961,26.8645947 C130.618327,27.4512758 126.52074,26.2855486 125.003387,24.4627234 Z M105.738358,24.8865809 C107.863753,28.9233155 109.674438,30.6945638 113.360037,33.081385 C114.540733,30.7195741 114.77148,28.8569813 114.77148,26.228662 L114.559186,26.228662 C111.066075,26.228662 108.910759,25.4150387 105.738358,24.8865809 Z M114.77148,24.8865809 C113.566936,19.2750555 110.120479,15.0300906 104.96217,12.4530919 C103.847221,15.7288238 103.503505,19.2892634 105.010433,23.1042921 C107.886468,24.6286961 111.536385,25.2671188 114.77148,24.8865809 Z M133.965166,25.0276531 L133.965166,24.8865809 C135.233062,22.9837811 137,20.3121057 137,18.0338579 C133.430936,20.7132049 130.661397,21.7907001 127.191,23.6856635 C129.126304,25.6233056 131.545927,25.4557217 133.965166,25.0276531 Z M119.358288,24.0389025 C117.262996,18.7998041 114.151441,7.92528683 115.970721,3.05696763 C112.971056,3.05696763 106.611164,7.01054193 105.738358,10.6161503 C110.075434,10.6161503 116.958783,20.4243226 116.958783,24.4627234 C117.829578,24.4627234 118.623012,24.2319728 119.358288,24.0389025 Z M120.769312,23.4734967 C121.839069,23.4734967 123.039571,22.7640343 124.157025,22.4847095 C122.431054,14.8470354 123.521587,7.16853184 125.255953,2.46550791 C123.345796,1.63723726 118.11179,2.06281582 117.202223,2.59597912 C117.128867,9.25288541 118.087283,17.2038662 120.769312,23.4734967 Z" id="Fill-2" fill="#FBD020"></path>
                <path d="M85.6273178,21.3971755 C88.6064065,19.8074917 93.7235705,20.0098357 97.8150989,19.521199 C91.8176289,17.8944892 83.2114544,18.7376167 77.0634146,19.1194745 C81.436666,17.4292498 90.1160752,16.867238 95.7277345,17.0425077 C89.2767718,15.2324974 77.1119926,16.5401874 70.5447516,16.8418284 C76.448504,15.200246 85.0550462,14.3630273 92.2935903,14.3630273 C82.9713408,12.6729124 72.8851555,13.895922 63.4742815,14.5637066 C69.4032055,12.6678269 80.0443788,11.5490351 87.917066,11.5490351 C78.7607025,9.86025567 65.3917884,12.2446258 56,14.0277813 C71.3448359,9.28331638 86.6688947,7.36683815 103,10.6110743 C101.175696,13.9441436 100.710987,18.3108485 101.45137,22 C96.1938038,21.3998646 90.9232569,21.1244199 85.6273178,21.3971755" id="Fill-3" fill="#FBD020"></path>
                <path d="M6,53.8635758 L6.50131219,50.6526702 C14.063036,51.2952328 17.5489557,45.3790606 12.4427339,40.2582631 C5.77889264,31.1401481 13.2122947,22.9104801 24.4261059,25.7507072 L24.0793749,27.9026318 C17.4672947,26.5750443 13.9346404,29.0046121 14.8616651,34.1119654 C15.5032552,37.6473838 19.5917363,38.884695 19.4962342,44.9784381 C19.4962342,52.0553303 13.1619935,54.4526024 6,53.8635758 Z M45.6188905,38.0518951 C50.1390714,38.0518951 53.0586865,41.8586605 52.1181902,46.5259105 C51.177657,51.1932902 46.7239653,55 42.2038397,55 C37.6837327,55 34.7640622,51.1932902 35.7045955,46.5259105 C36.6450363,41.8586605 41.0987834,38.0518951 45.6188905,38.0518951 Z M44.7138194,42.330615 C46.9806457,42.330615 48.4449437,44.2397106 47.9732911,46.5804095 C47.5015462,48.9212566 45.2680939,50.8306114 43.0006393,50.8306114 C40.7340903,50.8306114 39.269515,48.9212566 39.7414263,46.5804095 C40.2130974,44.2397106 42.4466975,42.330615 44.7138194,42.330615 Z M33.3092812,50.3803417 L30.9441069,54.9113905 L22.0405858,54.9113905 L25.3789465,38.6696248 L29.7617138,38.6696248 L27.187832,50.3803417 L33.3092812,50.3803417 Z M55.9866727,54.9113905 L55.0127655,38.6696248 L59.5342954,38.6696248 L59.74304,49.7526307 L64.6813938,38.6696248 L68.7853238,38.6696248 L61.1342331,54.9113905 L55.9866727,54.9113905 Z M73.3769466,48.9863481 L76.7156215,48.9863481 L76.0901085,43.409392 L73.3769466,48.9863481 Z M65.8646185,54.9113905 L74.9068838,38.6696248 L79.8464388,38.6696248 L81.8633297,54.9113905 L77.2720765,54.9113905 L77.1332769,52.8895932 L71.1504611,52.8895932 L70.1773485,54.9113905 L65.8646185,54.9113905 Z M84.3675438,54.9113905 L87.7759973,38.6696248 L89.7240705,38.6696248 L94.2454896,45.7794794 L95.8456305,38.6696248 L100.018711,38.6696248 L96.6103127,54.9113905 L94.6623504,54.9113905 L90.1412455,47.8009618 L88.54116,54.9113905 L84.3675438,54.9113905 Z M100.575073,54.9113905 L103.914635,38.6696248 L108.296627,38.6696248 L106.696633,45.7794794 L111.844988,38.6696248 L116.783693,38.6696248 L111.009788,45.9887719 L113.374556,54.9113905 L108.644965,54.9113905 L106.696633,46.1981015 L104.74941,54.9113905 L100.575073,54.9113905 Z M121.72214,48.9863481 L125.061295,48.9863481 L124.434895,43.409392 L121.72214,48.9863481 Z M114.000587,54.9113905 L123.252447,38.6696248 L127.983257,38.6696248 L130,54.9113905 L125.618064,54.9113905 L125.47847,52.8895932 L119.496079,52.8895932 L118.522117,54.9113905 L114.000587,54.9113905 Z M33.7178816,25.3097706 L31.543878,35.6778634 C33.1067272,35.6778634 34.6696135,35.6778634 36.2324627,35.6778634 C39.463014,35.8616564 40.624248,31.5044008 38.616098,30.4807524 C41.9950582,28.5821011 40.3536341,24.9948133 38.0922038,25.3097706 L33.7178816,25.3097706 Z M35.9443117,27.4359179 L35.5776227,29.2470707 C37.2054829,29.2470707 38.3684356,27.5768598 36.8611542,27.4359179 L35.9443117,27.4359179 Z M35.1323219,31.3994212 L34.765633,33.2106111 L35.7350867,33.2106111 C36.9491721,33.2326663 36.9694996,31.4855123 36.0491275,31.3994212 L35.1323219,31.3994212 Z M59.6756822,25.2835118 C59.5359771,26.1759959 59.3963828,27.0684244 59.2566223,27.9608344 C56.9554981,26.7532449 55.8290425,28.3018839 57.7111623,29.8769854 C59.7892018,32.0293729 57.7984964,35.9578584 54.8037068,35.8878967 C53.9829762,35.8878967 53.1621902,35.8878967 52.3414966,35.8878967 C52.5423319,34.9079697 52.7431858,33.9280242 52.9439656,32.9480417 C55.2838969,33.9367463 55.8164764,32.1693704 54.6989464,31.1894435 C53.6642231,30.3682544 52.8493136,28.286662 54.8298922,26.0710163 C55.9846215,24.8985928 57.7527596,24.7760765 59.6756822,25.2835118 Z M45.1120344,31.8683943 L47.2900112,31.8683943 L46.9387342,28.4887139 L45.1120344,31.8683943 Z M40.3344154,35.6704746 L46.306162,25.3204186 L49.3270817,25.3204186 L50.5220963,35.6704746 L47.7115843,35.6704746 L47.5003265,34.6846589 L43.7069817,34.6846589 L43.1440219,35.6704746 L40.3344154,35.6704746 Z M59.6555765,35.6704746 L62.044811,25.3204186 L64.6443609,25.3204186 L63.6602345,29.8967073 L67.0327454,25.3204186 L70.2648305,25.3204186 L66.6110614,30.1080554 L68.0165022,35.6704746 L65.0656199,35.6704746 L63.6602345,30.1080554 L62.4659591,35.6704746 L59.6555765,35.6704746 Z M76.5882792,32.8541915 L75.2533008,35.6704746 L69.4218876,35.6704746 L71.6699017,25.3204186 L77.4317026,25.3204186 L77.4317026,28.06624 L73.8482296,28.06624 L73.6377664,29.12261 L76.0262063,29.12261 L75.3936896,31.8683943 L73.0053421,31.8683943 L72.7944539,32.8541915 L76.5882792,32.8541915 Z M83.6145961,27.9255202 L81.998378,35.6704746 L79.1879399,35.6704746 L80.8042134,27.9255202 L79.0475511,27.9255202 L79.6096239,25.3204186 L86.3546457,25.3204186 L86.5655339,27.9255202 L83.6145961,27.9255202 Z" id="Fill-4" fill="#FBD020"></path>
            </g>
        </g>
    </g>
</svg>